<ttFont>
        <CharString name=".notdef">
          228 endchar
        </CharString>
        <CharString name=".null">
          -405 endchar
        </CharString>
        <CharString name="A">
          560 269 rmoveto
          32 -129 -11 -120 34 -124 rrcurveto
          17 11 2 -12 16 vvcurveto
          -4 81 -38 222 8 78 84 16 78 98 -162 -77 rrcurveto
          -10 hlineto
          -4 25 -15 347 -4 46 rrcurveto
          7 7 55 -45 -80 vhcurveto
          -46 -62 -45 -167 -46 -57 rrcurveto
          -60 -58 38 -61 hhcurveto
          -19 -20 2 -21 hvcurveto
          5 -25 72 -62 18 -18 5 -5 27 -21 6 -2 -54 -99 -123 -200 -112 27 rrcurveto
          -7 -4 -3 -5 -5 vvcurveto
          -5 3 -5 7 -4 vhcurveto
          9 30 -1 9 hhcurveto
          116 -2 78 203 76 81 rrcurveto
          65 95 -36 -5 64 hvcurveto
          -197 69 rmoveto
          8 21 20 23 9 13 53 -25 31 -36 15 -21 -28 8 -57 4 -51 13 rrcurveto
          62 86 rmoveto
          116 260 8 -72 8 -202 -3 -91 rlinecurve
          -304 133 rmoveto
          17 -5 91 -25 15 -8 -19 -32 3 -10 -12 -15 -37 -16 -142 123 84 -12 rrcurveto
          endchar
        </CharString>
        <CharString name="AE">
          667 560 269 rmoveto
          32 -129 -11 -120 34 -124 rrcurveto
          17 11 2 -12 16 vvcurveto
          -1 28 -6 50 -8 53 rrcurveto
          -44 35 58 -27 59 hhcurveto
          19 61 6 103 209 hvcurveto
          8 5 1 2 7 vvcurveto
          12 -4 4 -5 9 vhcurveto
          -102 -43 -92 -94 -142 27 rrcurveto
          -67 24 -29 30 68 vvcurveto
          75 36 61 60 45 vhcurveto
          5 hlineto
          31 21 -29 38 hhcurveto
          50 112 21 71 26 -31 8 -25 hvcurveto
          -21 hlineto
          -57 -53 -41 -52 hhcurveto
          -9 hlineto
          -5 31 -4 15 25 vvcurveto
          82 75 160 96 46 13 -92 -22 6 vhcurveto
          5 hlineto
          21 -5 30 10 52 -39 50 -53 -100 -94 -192 -85 -29 7 -23 3 -29 hvcurveto
          -21 -3 -32 -6 -52 -13 rrcurveto
          -10 hlineto
          -4 25 -15 347 -4 46 rrcurveto
          7 7 55 -45 -80 vhcurveto
          -46 -62 -45 -167 -46 -57 rrcurveto
          -60 -58 38 -61 hhcurveto
          -15 hlineto
          -12 -12 -3 -16 hvcurveto
          5 -25 72 -62 18 -18 5 -5 27 -21 6 -2 -54 -99 -123 -200 -112 27 rrcurveto
          -7 -4 -3 -5 -5 vvcurveto
          -5 3 -5 7 -4 vhcurveto
          10 hlineto
          8 11 -1 9 hhcurveto
          10 hlineto
          116 -2 78 203 76 81 rrcurveto
          65 95 -36 -5 64 hvcurveto
          -135 155 rmoveto
          116 260 8 -72 8 -202 -3 -91 rlinecurve
          217 17 rmoveto
          28 116 15 23 16 16 -5 -15 9 vhcurveto
          -34 -23 -63 -14 -37 hhcurveto
          -16 -41 2 23 hvcurveto
          -521 116 rmoveto
          17 -5 91 -25 15 -8 -19 -32 3 -10 -12 -15 -37 -16 -142 123 84 -12 rrcurveto
          113 -114 rmoveto
          8 21 20 23 9 13 53 -25 31 -36 15 -21 -28 8 -57 4 -51 13 rrcurveto
          238 -150 rmoveto
          -4 43 -1 37 4 24 28 3 27 8 24 9 -32 -37 -30 -42 -16 -45 rrcurveto
          endchar
        </CharString>
        <CharString name="Aacute">
          560 269 rmoveto
          32 -129 -11 -120 34 -124 rrcurveto
          17 11 2 -12 16 vvcurveto
          -4 81 -38 222 8 78 84 16 78 98 -162 -77 rrcurveto
          -10 hlineto
          -4 25 -15 347 -4 46 rrcurveto
          7 7 55 -45 -80 vhcurveto
          -46 -62 -45 -167 -46 -57 rrcurveto
          -60 -58 38 -61 hhcurveto
          -19 -20 2 -21 hvcurveto
          5 -25 72 -62 18 -18 5 -5 27 -21 6 -2 -54 -99 -123 -200 -112 27 rrcurveto
          -7 -4 -3 -5 -5 vvcurveto
          -5 3 -5 7 -4 vhcurveto
          9 30 -1 9 hhcurveto
          116 -2 78 203 76 81 rrcurveto
          65 95 -36 -5 64 hvcurveto
          -197 69 rmoveto
          8 21 20 23 9 13 53 -25 31 -36 15 -21 -28 8 -57 4 -51 13 rrcurveto
          62 86 rmoveto
          116 260 8 -72 8 -202 -3 -91 rlinecurve
          -304 133 rmoveto
          17 -5 91 -25 15 -8 -19 -32 3 -10 -12 -15 -37 -16 -142 123 84 -12 rrcurveto
          278 386 rmoveto
          -3 -4 3 -10 4 -1 43 11 20 28 20 32 48 75 -55 11 -38 -77 -13 -31 -16 -8 -13 -26 rrcurveto
          endchar
        </CharString>
        <CharString name="Abreve">
          560 269 rmoveto
          32 -129 -11 -120 34 -124 rrcurveto
          17 11 2 -12 16 vvcurveto
          -4 81 -38 222 8 78 84 16 78 98 -162 -77 rrcurveto
          -10 hlineto
          -4 25 -15 347 -4 46 rrcurveto
          7 7 55 -45 -80 vhcurveto
          -46 -62 -45 -167 -46 -57 rrcurveto
          -60 -58 38 -61 hhcurveto
          -19 -20 2 -21 hvcurveto
          5 -25 72 -62 18 -18 5 -5 27 -21 6 -2 -54 -99 -123 -200 -112 27 rrcurveto
          -7 -4 -3 -5 -5 vvcurveto
          -5 3 -5 7 -4 vhcurveto
          9 30 -1 9 hhcurveto
          116 -2 78 203 76 81 rrcurveto
          65 95 -36 -5 64 hvcurveto
          -197 69 rmoveto
          8 21 20 23 9 13 53 -25 31 -36 15 -21 -28 8 -57 4 -51 13 rrcurveto
          62 86 rmoveto
          116 260 8 -72 8 -202 -3 -91 rlinecurve
          -304 133 rmoveto
          17 -5 91 -25 15 -8 -19 -32 3 -10 -12 -15 -37 -16 -142 123 84 -12 rrcurveto
          407 483 rmoveto
          -84 -132 -90 102 -25 32 rrcurveto
          -5 -27 -8 -3 -3 hvcurveto
          52 -104 128 -66 92 170 rrcurveto
          1 vlineto
          1 1 rlineto
          7 -11 4 -13 -7 -5 -1 -3 -3 vhcurveto
          endchar
        </CharString>
        <CharString name="Acircumflex">
          560 269 rmoveto
          32 -129 -11 -120 34 -124 rrcurveto
          17 11 2 -12 16 vvcurveto
          -4 81 -38 222 8 78 84 16 78 98 -162 -77 rrcurveto
          -10 hlineto
          -4 25 -15 347 -4 46 rrcurveto
          7 7 55 -45 -80 vhcurveto
          -46 -62 -45 -167 -46 -57 rrcurveto
          -60 -58 38 -61 hhcurveto
          -19 -20 2 -21 hvcurveto
          5 -25 72 -62 18 -18 5 -5 27 -21 6 -2 -54 -99 -123 -200 -112 27 rrcurveto
          -7 -4 -3 -5 -5 vvcurveto
          -5 3 -5 7 -4 vhcurveto
          9 30 -1 9 hhcurveto
          116 -2 78 203 76 81 rrcurveto
          65 95 -36 -5 64 hvcurveto
          -197 69 rmoveto
          8 21 20 23 9 13 53 -25 31 -36 15 -21 -28 8 -57 4 -51 13 rrcurveto
          62 86 rmoveto
          116 260 8 -72 8 -202 -3 -91 rlinecurve
          -304 133 rmoveto
          17 -5 91 -25 15 -8 -19 -32 3 -10 -12 -15 -37 -16 -142 123 84 -12 rrcurveto
          377 346 rmoveto
          -4 2 3 -2 4 hhcurveto
          9 9 7 7 hvcurveto
          0 -1 1 1 vvcurveto
          1 vlineto
          3 -12 19 -1 2 vhcurveto
          -14 33 -35 64 46 vvcurveto
          -3 hlineto
          -3 1 1 -1 hhcurveto
          -45 -32 -68 -105 -13 -31 rrcurveto
          -4 2 3 -2 4 hhcurveto
          36 27 97 22 38 hvcurveto
          16 -24 6 -15 28 -69 8 -16 rlinecurve
          endchar
        </CharString>
        <CharString name="Adieresis">
          560 269 rmoveto
          32 -129 -11 -120 34 -124 rrcurveto
          17 11 2 -12 16 vvcurveto
          -4 81 -38 222 8 78 84 16 78 98 -162 -77 rrcurveto
          -10 hlineto
          -4 25 -15 347 -4 46 rrcurveto
          7 7 55 -45 -80 vhcurveto
          -46 -62 -45 -167 -46 -57 rrcurveto
          -60 -58 38 -61 hhcurveto
          -19 -20 2 -21 hvcurveto
          5 -25 72 -62 18 -18 5 -5 27 -21 6 -2 -54 -99 -123 -200 -112 27 rrcurveto
          -7 -4 -3 -5 -5 vvcurveto
          -5 3 -5 7 -4 vhcurveto
          9 30 -1 9 hhcurveto
          116 -2 78 203 76 81 rrcurveto
          65 95 -36 -5 64 hvcurveto
          -197 69 rmoveto
          8 21 20 23 9 13 53 -25 31 -36 15 -21 -28 8 -57 4 -51 13 rrcurveto
          62 86 rmoveto
          116 260 8 -72 8 -202 -3 -91 rlinecurve
          -304 133 rmoveto
          17 -5 91 -25 15 -8 -19 -32 3 -10 -12 -15 -37 -16 -142 123 84 -12 rrcurveto
          258 465 rmoveto
          -56 -21 69 -66 16 57 rrcurveto
          12 -20 18 -9 vhcurveto
          124 hmoveto
          -56 -21 68 -66 16 57 rrcurveto
          12 -19 18 -9 vhcurveto
          endchar
        </CharString>
        <CharString name="Agrave">
          560 269 rmoveto
          32 -129 -11 -120 34 -124 rrcurveto
          17 11 2 -12 16 vvcurveto
          -4 81 -38 222 8 78 84 16 78 98 -162 -77 rrcurveto
          -10 hlineto
          -4 25 -15 347 -4 46 rrcurveto
          7 7 55 -45 -80 vhcurveto
          -46 -62 -45 -167 -46 -57 rrcurveto
          -60 -58 38 -61 hhcurveto
          -19 -20 2 -21 hvcurveto
          5 -25 72 -62 18 -18 5 -5 27 -21 6 -2 -54 -99 -123 -200 -112 27 rrcurveto
          -7 -4 -3 -5 -5 vvcurveto
          -5 3 -5 7 -4 vhcurveto
          9 30 -1 9 hhcurveto
          116 -2 78 203 76 81 rrcurveto
          65 95 -36 -5 64 hvcurveto
          -197 69 rmoveto
          8 21 20 23 9 13 53 -25 31 -36 15 -21 -28 8 -57 4 -51 13 rrcurveto
          62 86 rmoveto
          116 260 8 -72 8 -202 -3 -91 rlinecurve
          -304 133 rmoveto
          17 -5 91 -25 15 -8 -19 -32 3 -10 -12 -15 -37 -16 -142 123 84 -12 rrcurveto
          339 380 rmoveto
          -11 24 -13 7 -13 27 -32 72 -48 -8 41 -71 20 -29 16 -28 36 -8 3 1 4 9 -3 4 rrcurveto
          endchar
        </CharString>
        <CharString name="Aring">
          549 760 rmoveto
          -5 -6 -6 -10 -9 -15 -46 -62 -45 -167 -46 -57 rrcurveto
          -60 -58 38 -61 hhcurveto
          -15 hlineto
          -12 -12 -3 -16 hvcurveto
          5 -25 72 -62 18 -18 5 -5 27 -21 6 -2 -54 -99 -123 -200 -112 27 rrcurveto
          -7 -4 -3 -5 -5 vvcurveto
          -5 3 -5 7 -4 vhcurveto
          10 hlineto
          8 11 -1 9 hhcurveto
          10 hlineto
          116 -2 78 203 76 81 rrcurveto
          65 95 -36 -5 64 hvcurveto
          32 -129 -11 -120 34 -124 rrcurveto
          17 11 2 -12 16 vvcurveto
          -4 81 -38 222 8 78 84 16 78 98 -162 -77 rrcurveto
          -10 hlineto
          -4 25 -15 347 -4 46 rrcurveto
          3 0 4 1 5 vhcurveto
          6 vlineto
          9 3 8 6 8 8 rrcurveto
          14 15 7 19 23 vvcurveto
          41 -28 14 -33 -37 -27 -26 -44 vhcurveto
          -36 -3 27 -28 31 hhcurveto
          -119 -336 rmoveto
          116 260 8 -72 8 -202 -3 -91 rlinecurve
          -55 504 rmoveto
          37 26 18 32 vhcurveto
          15 -3 40 -3 -11 -54 rrcurveto
          -25 -35 -18 -16 -25 -26 16 32 vhcurveto
          -249 -371 rmoveto
          17 -5 91 -25 15 -8 -19 -32 3 -10 -12 -15 -37 -16 -142 123 84 -12 rrcurveto
          113 -114 rmoveto
          8 21 20 23 9 13 53 -25 31 -36 15 -21 -28 8 -57 4 -51 13 rrcurveto
          endchar
        </CharString>
        <CharString name="Atilde">
          560 269 rmoveto
          32 -129 -11 -120 34 -124 rrcurveto
          17 11 2 -12 16 vvcurveto
          -4 81 -38 222 8 78 84 16 78 98 -162 -77 rrcurveto
          -10 hlineto
          -4 25 -15 347 -4 46 rrcurveto
          7 7 55 -45 -80 vhcurveto
          -46 -62 -45 -167 -46 -57 rrcurveto
          -60 -58 38 -61 hhcurveto
          -19 -20 2 -21 hvcurveto
          5 -25 72 -62 18 -18 5 -5 27 -21 6 -2 -54 -99 -123 -200 -112 27 rrcurveto
          -7 -4 -3 -5 -5 vvcurveto
          -5 3 -5 7 -4 vhcurveto
          9 30 -1 9 hhcurveto
          116 -2 78 203 76 81 rrcurveto
          65 95 -36 -5 64 hvcurveto
          -197 69 rmoveto
          8 21 20 23 9 13 53 -25 31 -36 15 -21 -28 8 -57 4 -51 13 rrcurveto
          62 86 rmoveto
          116 260 8 -72 8 -202 -3 -91 rlinecurve
          -304 133 rmoveto
          17 -5 91 -25 15 -8 -19 -32 3 -10 -12 -15 -37 -16 -142 123 84 -12 rrcurveto
          223 452 rmoveto
          45 34 -52 52 hhcurveto
          55 48 16 78 33 -13 32 -29 -9 -16 0 -16 hvcurveto
          31 6 -16 -39 -58 -35 6 -38 hvcurveto
          -50 -27 44 -47 hhcurveto
          -23 9 -55 -13 3 -63 rrcurveto
          11 hlineto
          17 15 18 22 24 hhcurveto
          endchar
        </CharString>
        <CharString name="B">
          536 391 212 rmoveto
          -110 109 -102 110 135 168 197 124 142 -129 28 -80 29 vhcurveto
          42 42 138 68 112 vvcurveto
          43 -23 38 -48 -132 -137 -155 -91 -67 vhcurveto
          -130 -154 -82 -338 -134 -28 rrcurveto
          -92 23 111 -56 hhcurveto
          -64 40 -76 75 60 50 44 51 29 vhcurveto
          200 365 rlineto
          -13 87 22 17 83 hhcurveto
          95 137 -62 -108 -125 -144 -169 -126 -103 -85 93 97 hvcurveto
          18 45 -34 20 -16 hhcurveto
          -12 -6 0 -11 -11 hvcurveto
          -4 -1 -22 -7 vvcurveto
          416 592 rmoveto
          36 22 -21 -37 hvcurveto
          -16 -87 -124 -89 -60 -41 rrcurveto
          -5 -42 -93 -10 -51 hhcurveto
          17 30 39 59 18 21 13 13 80 83 19 17 rrcurveto
          27 35 64 40 43 hhcurveto
          endchar
        </CharString>
        <CharString name="C">
          34 24 160 rmoveto
          -73 21 62 -87 86 hhcurveto
          104 97 134 84 26 hvcurveto
          1 3 1 7 3 vvcurveto
          9 0 13 -11 3 vhcurveto
          -90 -18 -97 -128 -103 hhcurveto
          -98 -44 138 80 100 138 365 89 71 3 -100 -44 3 hvcurveto
          -1 0 0 1 vhcurveto
          3 hlineto
          7 7 2 8 hvcurveto
          11 98 -50 44 -18 18 rrcurveto
          11 -11 -9 1 -13 hhcurveto
          -152 -27 -138 -437 31 -134 rrcurveto
          endchar
        </CharString>
        <CharString name="CR">
          228 endchar
        </CharString>
        <CharString name="Cacute">
          34 24 160 rmoveto
          -73 21 62 -87 86 hhcurveto
          104 97 134 84 26 hvcurveto
          1 3 1 7 3 vvcurveto
          9 0 13 -11 3 vhcurveto
          -90 -18 -97 -128 -103 hhcurveto
          -98 -44 138 80 100 138 365 89 71 3 -100 -44 3 hvcurveto
          -1 0 0 1 vhcurveto
          3 hlineto
          7 7 2 8 hvcurveto
          11 98 -50 44 -18 18 rrcurveto
          11 -11 -9 1 -13 hhcurveto
          -152 -27 -138 -437 31 -134 rrcurveto
          211 649 rmoveto
          -3 -4 3 -10 4 -1 43 11 20 28 20 32 48 75 -55 11 -38 -77 -13 -31 -16 -8 -13 -26 rrcurveto
          endchar
        </CharString>
        <CharString name="Ccaron">
          34 24 160 rmoveto
          -73 21 62 -87 86 hhcurveto
          104 97 134 84 26 hvcurveto
          1 3 1 7 3 vvcurveto
          9 0 13 -11 3 vhcurveto
          -90 -18 -97 -128 -103 hhcurveto
          -98 -44 138 80 100 138 365 89 71 3 -100 -44 3 hvcurveto
          -1 0 0 1 vhcurveto
          3 hlineto
          7 7 2 8 hvcurveto
          11 98 -50 44 -18 18 rrcurveto
          11 -11 -9 1 -13 hhcurveto
          -152 -27 -138 -437 31 -134 rrcurveto
          353 778 rmoveto
          -68 -164 -77 116 -54 50 rrcurveto
          -5 -27 -8 -3 -3 hvcurveto
          82 -114 111 -68 79 182 rrcurveto
          1 vlineto
          1 1 rlineto
          7 -11 4 -13 -7 -5 -1 -3 -3 vhcurveto
          endchar
        </CharString>
        <CharString name="Ccedilla">
          34 171 -193 rmoveto
          -23 10 -20 21 -12 vhcurveto
          32 hlineto
          59 83 41 68 63 -45 36 -60 hvcurveto
          -20 -18 -5 -20 hhcurveto
          -7 hlineto
          -3 -1 1 3 hvcurveto
          3 18 1 14 -2 9 23 2 21 7 20 13 73 43 59 89 20 64 rrcurveto
          1 3 1 7 3 vvcurveto
          9 0 13 -11 3 vhcurveto
          -90 -18 -97 -128 -103 hhcurveto
          -98 -44 138 80 100 138 365 89 71 3 -100 -44 3 hvcurveto
          -1 0 0 1 vhcurveto
          3 hlineto
          7 7 2 8 hvcurveto
          11 98 -50 44 -18 18 rrcurveto
          11 -11 -9 1 -13 hhcurveto
          -152 -27 -138 -437 31 -134 16 -57 40 -57 53 -32 13 -7 13 -4 15 -2 rrcurveto
          -5 1 -7 1 -8 vhcurveto
          2 -7 8 -40 -7 vvcurveto
          11 hlineto
          23 20 11 23 hhcurveto
          51 36 -23 -55 -58 -73 -28 -48 -17 -21 14 20 3 0 1 1 1 hvcurveto
          26 27 rlineto
          1 1 0 0 1 vvcurveto
          8 -7 1 -8 -25 -8 -23 -21 vhcurveto
          endchar
        </CharString>
        <CharString name="D">
          211 27 43 rmoveto
          -7 -48 rlineto
          50 -11 125 18 71 hvcurveto
          1 1 14 -8 3 -3 27 -21 10 -28 20 -27 228 -206 203 401 -5 226 rrcurveto
          130 -68 206 -158 -136 -54 -181 -107 -130 46 -121 148 77 50 21 55 57 vhcurveto
          -1 1 -3 -1 vvcurveto
          -107 -149 -217 -114 vhcurveto
          -101 -10 149 -90 hhcurveto
          -27 -16 -17 -21 -23 hvcurveto
          40 374 18 66 61 vvcurveto
          -20 hlineto
          -4 -29 -4 -17 0 -18 -1 -12 rlinecurve
          149 -36 rmoveto
          96 46 177 126 vhcurveto
          207 -37 81 -482 -284 27 rrcurveto
          -129 -47 98 121 hvcurveto
          endchar
        </CharString>
        <CharString name="Dcaron">
          211 27 43 rmoveto
          -7 -48 rlineto
          50 -11 125 18 71 hvcurveto
          1 1 14 -8 3 -3 27 -21 10 -28 20 -27 228 -206 203 401 -5 226 rrcurveto
          130 -68 206 -158 -136 -54 -181 -107 -130 46 -121 148 77 50 21 55 57 vhcurveto
          -1 1 -3 -1 vvcurveto
          -107 -149 -217 -114 vhcurveto
          -101 -10 149 -90 hhcurveto
          -27 -16 -17 -21 -23 hvcurveto
          40 374 18 66 61 vvcurveto
          -20 hlineto
          -4 -29 -4 -17 0 -18 -1 -12 rlinecurve
          149 -36 rmoveto
          96 46 177 126 vhcurveto
          207 -37 81 -482 -284 27 rrcurveto
          -129 -47 98 121 hvcurveto
          277 455 rmoveto
          -68 -164 -77 116 -54 50 rrcurveto
          -5 -27 -8 -3 -3 hvcurveto
          82 -114 111 -68 79 182 rrcurveto
          1 vlineto
          1 1 rlineto
          7 -11 4 -13 -7 -5 -1 -3 -3 vhcurveto
          endchar
        </CharString>
        <CharString name="E">
          67 13 157 rmoveto
          -95 89 -62 91 22 56 6 103 211 vhcurveto
          9 4 0 3 7 vvcurveto
          9 -4 5 -5 11 vhcurveto
          -97 -47 -101 -90 -138 27 rrcurveto
          -68 23 -28 31 68 vvcurveto
          75 37 61 59 45 vhcurveto
          5 hlineto
          32 21 -30 37 hhcurveto
          51 110 22 71 36 -53 -4 -23 hvcurveto
          -55 -56 -40 -50 hhcurveto
          -9 hlineto
          -7 31 -3 16 25 vvcurveto
          83 75 158 97 43 18 -91 -22 3 vhcurveto
          5 hlineto
          20 -5 29 11 52 -37 50 -54 -100 -94 -193 -84 hvcurveto
          -33 10 -24 -31 vvcurveto
          -4 vlineto
          -50 -58 -64 -72 -82 vvcurveto
          180 207 rmoveto
          28 116 16 23 16 16 -7 -13 9 vhcurveto
          -35 -24 -59 -13 -40 hhcurveto
          -16 -41 1 23 hvcurveto
          endchar
        </CharString>
        <CharString name="Eacute">
          67 13 157 rmoveto
          -95 89 -62 91 22 56 6 103 211 vhcurveto
          9 4 0 3 7 vvcurveto
          9 -4 5 -5 11 vhcurveto
          -97 -47 -101 -90 -138 27 rrcurveto
          -68 23 -28 31 68 vvcurveto
          75 37 61 59 45 vhcurveto
          5 hlineto
          32 21 -30 37 hhcurveto
          51 110 22 71 36 -53 -4 -23 hvcurveto
          -55 -56 -40 -50 hhcurveto
          -9 hlineto
          -7 31 -3 16 25 vvcurveto
          83 75 158 97 43 18 -91 -22 3 vhcurveto
          5 hlineto
          20 -5 29 11 52 -37 50 -54 -100 -94 -193 -84 hvcurveto
          -33 10 -24 -31 vvcurveto
          -4 vlineto
          -50 -58 -64 -72 -82 vvcurveto
          180 207 rmoveto
          28 116 16 23 16 16 -7 -13 9 vhcurveto
          -35 -24 -59 -13 -40 hhcurveto
          -16 -41 1 23 hvcurveto
          58 427 rmoveto
          -3 -4 3 -10 4 -1 43 11 20 28 20 32 48 75 -55 11 -38 -77 -13 -31 -16 -8 -13 -26 rrcurveto
          endchar
        </CharString>
        <CharString name="Ecaron">
          67 13 157 rmoveto
          -95 89 -62 91 22 56 6 103 211 vhcurveto
          9 4 0 3 7 vvcurveto
          9 -4 5 -5 11 vhcurveto
          -97 -47 -101 -90 -138 27 rrcurveto
          -68 23 -28 31 68 vvcurveto
          75 37 61 59 45 vhcurveto
          5 hlineto
          32 21 -30 37 hhcurveto
          51 110 22 71 36 -53 -4 -23 hvcurveto
          -55 -56 -40 -50 hhcurveto
          -9 hlineto
          -7 31 -3 16 25 vvcurveto
          83 75 158 97 43 18 -91 -22 3 vhcurveto
          5 hlineto
          20 -5 29 11 52 -37 50 -54 -100 -94 -193 -84 hvcurveto
          -33 10 -24 -31 vvcurveto
          -4 vlineto
          -50 -58 -64 -72 -82 vvcurveto
          180 207 rmoveto
          28 116 16 23 16 16 -7 -13 9 vhcurveto
          -35 -24 -59 -13 -40 hhcurveto
          -16 -41 1 23 hvcurveto
          205 541 rmoveto
          -68 -164 -77 116 -54 50 rrcurveto
          -5 -27 -8 -3 -3 hvcurveto
          82 -114 111 -68 79 182 rrcurveto
          1 vlineto
          1 1 rlineto
          7 -11 4 -13 -7 -5 -1 -3 -3 vhcurveto
          endchar
        </CharString>
        <CharString name="Ecircumflex">
          67 13 157 rmoveto
          -95 89 -62 91 22 56 6 103 211 vhcurveto
          9 4 0 3 7 vvcurveto
          9 -4 5 -5 11 vhcurveto
          -97 -47 -101 -90 -138 27 rrcurveto
          -68 23 -28 31 68 vvcurveto
          75 37 61 59 45 vhcurveto
          5 hlineto
          32 21 -30 37 hhcurveto
          51 110 22 71 36 -53 -4 -23 hvcurveto
          -55 -56 -40 -50 hhcurveto
          -9 hlineto
          -7 31 -3 16 25 vvcurveto
          83 75 158 97 43 18 -91 -22 3 vhcurveto
          5 hlineto
          20 -5 29 11 52 -37 50 -54 -100 -94 -193 -84 hvcurveto
          -33 10 -24 -31 vvcurveto
          -4 vlineto
          -50 -58 -64 -72 -82 vvcurveto
          180 207 rmoveto
          28 116 16 23 16 16 -7 -13 9 vhcurveto
          -35 -24 -59 -13 -40 hhcurveto
          -16 -41 1 23 hvcurveto
          188 411 rmoveto
          -4 2 3 -2 4 hhcurveto
          9 9 7 7 hvcurveto
          0 -1 1 1 vvcurveto
          1 vlineto
          3 -12 19 -1 2 vhcurveto
          -14 33 -35 64 46 vvcurveto
          -3 hlineto
          -3 1 1 -1 hhcurveto
          -45 -32 -68 -105 -13 -31 rrcurveto
          -4 2 3 -2 4 hhcurveto
          36 27 97 22 38 hvcurveto
          16 -24 6 -15 28 -69 8 -16 rlinecurve
          endchar
        </CharString>
        <CharString name="Edieresis">
          67 13 157 rmoveto
          -95 89 -62 91 22 56 6 103 211 vhcurveto
          9 4 0 3 7 vvcurveto
          9 -4 5 -5 11 vhcurveto
          -97 -47 -101 -90 -138 27 rrcurveto
          -68 23 -28 31 68 vvcurveto
          75 37 61 59 45 vhcurveto
          5 hlineto
          32 21 -30 37 hhcurveto
          51 110 22 71 36 -53 -4 -23 hvcurveto
          -55 -56 -40 -50 hhcurveto
          -9 hlineto
          -7 31 -3 16 25 vvcurveto
          83 75 158 97 43 18 -91 -22 3 vhcurveto
          5 hlineto
          20 -5 29 11 52 -37 50 -54 -100 -94 -193 -84 hvcurveto
          -33 10 -24 -31 vvcurveto
          -4 vlineto
          -50 -58 -64 -72 -82 vvcurveto
          180 207 rmoveto
          28 116 16 23 16 16 -7 -13 9 vhcurveto
          -35 -24 -59 -13 -40 hhcurveto
          -16 -41 1 23 hvcurveto
          54 457 rmoveto
          -56 -21 69 -66 16 57 rrcurveto
          12 -20 18 -9 vhcurveto
          124 hmoveto
          -56 -21 68 -66 16 57 rrcurveto
          12 -19 18 -9 vhcurveto
          endchar
        </CharString>
        <CharString name="Egrave">
          67 13 157 rmoveto
          -95 89 -62 91 22 56 6 103 211 vhcurveto
          9 4 0 3 7 vvcurveto
          9 -4 5 -5 11 vhcurveto
          -97 -47 -101 -90 -138 27 rrcurveto
          -68 23 -28 31 68 vvcurveto
          75 37 61 59 45 vhcurveto
          5 hlineto
          32 21 -30 37 hhcurveto
          51 110 22 71 36 -53 -4 -23 hvcurveto
          -55 -56 -40 -50 hhcurveto
          -9 hlineto
          -7 31 -3 16 25 vvcurveto
          83 75 158 97 43 18 -91 -22 3 vhcurveto
          5 hlineto
          20 -5 29 11 52 -37 50 -54 -100 -94 -193 -84 hvcurveto
          -33 10 -24 -31 vvcurveto
          -4 vlineto
          -50 -58 -64 -72 -82 vvcurveto
          180 207 rmoveto
          28 116 16 23 16 16 -7 -13 9 vhcurveto
          -35 -24 -59 -13 -40 hhcurveto
          -16 -41 1 23 hvcurveto
          127 418 rmoveto
          -11 24 -13 7 -13 27 -32 72 -48 -8 41 -71 20 -29 16 -28 36 -8 3 1 4 9 -3 4 rrcurveto
          endchar
        </CharString>
        <CharString name="Eth">
          242 5 287 rmoveto
          -5 1 -14 9 1 vhcurveto
          72 1 -29 -227 -8 -48 rlineto
          51 -9 124 19 69 hvcurveto
          3 1 12 -8 4 -3 27 -21 9 -28 21 -27 225 -203 210 396 -10 228 rrcurveto
          130 -70 206 -156 -136 -54 -181 -107 -130 47 -121 146 78 50 21 55 58 vhcurveto
          -5 vlineto
          -107 -148 -217 -115 vhcurveto
          -100 -10 149 -91 hhcurveto
          -27 -16 -17 -21 -24 hvcurveto
          8 53 3 46 7 44 143 3 rcurveline
          16 3 6 12 11 -3 8 -11 hvcurveto
          -5 hlineto
          -20 -64 -2 -55 hhcurveto
          27 217 11 54 49 vvcurveto
          -22 hlineto
          -3 -29 -3 -17 -1 -18 -1 -12 rlinecurve
          -32 -245 rlineto
          -21 -19 -1 -1 -8 hvcurveto
          -19 -20 7 -26 hvcurveto
          269 230 rmoveto
          96 46 177 125 vhcurveto
          208 -37 78 -482 -281 27 rrcurveto
          -131 -45 98 121 hvcurveto
          endchar
        </CharString>
        <CharString name="Euro">
          85 10 391 rmoveto
          -11 21 -11 8 vhcurveto
          53 hlineto
          -5 -30 -2 -29 -1 -27 rrcurveto
          -33 -29 -1 -1 hhcurveto
          -11 -3 0 -7 -8 vvcurveto
          -14 6 -7 13 5 21 0 1 28 vhcurveto
          -32 3 -28 5 -24 vhcurveto
          -73 23 60 -87 87 hhcurveto
          104 71 34 84 27 hvcurveto
          3 1 9 1 vvcurveto
          11 1 11 -11 3 vhcurveto
          -89 -21 -69 -29 -103 hhcurveto
          -95 -44 127 80 -3 hvcurveto
          84 3 118 6 8 18 rrcurveto
          13 -21 -27 -2 -23 hhcurveto
          -138 hlineto
          1 27 3 28 5 31 172 -1 rcurveline
          9 8 -11 18 -89 8 -74 3 rlinecurve
          36 189 96 193 158 -178 rrcurveto
          1 -1 0 0 0 vvcurveto
          3 hlineto
          7 7 3 7 1 hvcurveto
          -178 222 -128 -214 -40 -220 rrcurveto
          1 -32 -26 0 -8 hhcurveto
          -11 -12 -3 -13 hvcurveto
          endchar
        </CharString>
        <CharString name="F">
          306 4 123 rmoveto
          -71 60 133 -44 92 hhcurveto
          168 80 148 137 63 hvcurveto
          67 8 16 5 49 35 rrcurveto
          9 6 20 28 3 vvcurveto
          -10 10 rlineto
          -31 -35 -34 -27 -45 hhcurveto
          -11 -17 2 13 96 49 102 -11 100 hvcurveto
          14 16 65 79 16 19 rrcurveto
          16 20 3 11 20 vvcurveto
          15 -3 9 -16 -84 -16 -116 -55 -24 vhcurveto
          -60 -26 -158 -54 -65 hhcurveto
          -69 -57 23 36 -59 hvcurveto
          -1 8 -5 22 -13 7 rrcurveto
          -27 -5 6 -91 -21 vvcurveto
          24 2 33 23 52 53 -42 57 hhcurveto
          89 84 45 52 72 hvcurveto
          7 hlineto
          -93 0 -80 -27 -92 vhcurveto
          -3 hlineto
          -33 -8 48 -26 hhcurveto
          -26 2 -49 -18 -8 1 -7 9 -4 hvcurveto
          4 4 19 13 6 3 rrcurveto
          4 hlineto
          20 14 -14 -17 -20 -1 -5 -9 -19 hvcurveto
          -119 -53 -72 -101 -139 hhcurveto
          -48 -191 53 38 15 27 7 3 2 hvcurveto
          9 -5 -3 1 -5 hhcurveto
          -28 -22 -17 -21 -13 hvcurveto
          738 681 rmoveto
          -13 -41 -32 -36 -32 -28 rrcurveto
          5 vlineto
          32 33 68 39 vhcurveto
          endchar
        </CharString>
        <CharString name="G">
          381 363 213 rmoveto
          -108 81 -96 109 vhcurveto
          177 4 49 207 -8 149 rrcurveto
          -3 137 -17 128 131 vvcurveto
          25 33 70 71 62 vvcurveto
          17 -6 26 -23 -39 -41 -68 -37 -5 vhcurveto
          -3 -10 -12 -92 -3 -10 rrcurveto
          -74 -29 -148 -107 -83 -3 -11 1 -1 hhcurveto
          15 40 14 35 43 vvcurveto
          39 -16 43 -45 -66 3 -66 -49 vhcurveto
          -69 49 -29 -25 -3 -1 -4 -3 vvcurveto
          -141 -199 -72 -170 -166 -47 -1 -1 -7 -5 -1 -3 rrcurveto
          -20 8 10 0 15 hhcurveto
          82 49 107 46 54 hvcurveto
          198 292 rlineto
          3 3 6 6 1 vvcurveto
          121 38 62 46 102 86 5 -35 20 -177 3 -34 8 -134 1 -288 -189 -4 rrcurveto
          -93 -78 77 94 hvcurveto
          83 108 32 29 vvcurveto
          -73 -63 -66 -73 hvcurveto
          10 457 rmoveto
          26 1 51 37 30 8 -44 -23 vhcurveto
          -3 -36 -3 -37 -32 -21 rrcurveto
          -1 -1 0 0 -1 hhcurveto
          -2 hlineto
          -31 -3 69 16 hvcurveto
          446 268 rmoveto
          -45 -24 -43 -34 -28 vhcurveto
          1 -1 17 1 vvcurveto
          30 22 67 37 vhcurveto
          endchar
        </CharString>
        <CharString name="H">
          489 6 115 rmoveto
          -57 -5 158 -86 60 hhcurveto
          182 -8 88 178 56 162 rrcurveto
          -3 12 51 -6 12 hhcurveto
          43 33 7 21 43 hvcurveto
          12 -3 35 -83 -18 vvcurveto
          -230 vlineto
          8 20 0 12 5 hvcurveto
          11 246 16 170 24 317 -22 4 rcurveline
          -48 -463 -29 114 -124 58 -74 68 rlinecurve
          43 0 69 29 36 vhcurveto
          40 61 55 75 -57 15 rrcurveto
          -5 -41 -27 -124 -30 hvcurveto
          8 -47 -284 -71 -4 91 rrcurveto
          -14 0 -31 -13 hvcurveto
          8 -49 241 46 33 25 3 -44 -13 -34 -7 -43 rrcurveto
          -47 -16 -20 -24 -47 -40 40 -16 -36 vvcurveto
          -114 -147 -199 -132 -56 -140 61 59 1 1 12 48 48 vhcurveto
          9 vlineto
          -32 -13 -39 -24 -5 -39 rrcurveto
          539 227 rmoveto
          3 15 12 103 13 5 21 5 55 -45 10 -7 11 -14 52 -51 11 -11 -38 -25 -125 -14 -25 39 rrcurveto
          -47 76 rmoveto
          24 17 15 24 vhcurveto
          -35 -8 -30 -15 -31 vhcurveto
          -11 16 -7 20 21 vvcurveto
          145 362 rmoveto
          -27 -16 -22 -15 -20 vhcurveto
          4 vlineto
          16 5 49 26 vhcurveto
          endchar
        </CharString>
        <CharString name="I">
          142 13 28 rmoveto
          -22 45 -7 18 36 43 14 15 29 vhcurveto
          203 104 167 222 233 vvcurveto
          102 -35 77 -113 -102 -56 -151 -83 -44 8 -47 41 -25 vhcurveto
          14 -11 41 -19 2 2 19 8 rcurveline
          -65 19 -30 50 65 vvcurveto
          63 48 145 82 91 36 -47 -92 -214 -210 -348 -241 vhcurveto
          -24 -12 11 -20 hhcurveto
          -11 -4 -11 -9 hvcurveto
          endchar
        </CharString>
        <CharString name="Iacute">
          142 13 28 rmoveto
          -22 45 -7 18 36 43 14 15 29 vhcurveto
          203 104 167 222 233 vvcurveto
          102 -35 77 -113 -102 -56 -151 -83 -44 8 -47 41 -25 vhcurveto
          14 -11 41 -19 2 2 19 8 rcurveline
          -65 19 -30 50 65 vvcurveto
          63 48 145 82 91 36 -47 -92 -214 -210 -348 -241 vhcurveto
          -24 -12 11 -20 hhcurveto
          -11 -4 -11 -9 hvcurveto
          332 776 rmoveto
          -3 -4 3 -10 4 -1 43 11 20 28 20 32 48 75 -55 11 -38 -77 -13 -31 -16 -8 -13 -26 rrcurveto
          endchar
        </CharString>
        <CharString name="Icircumflex">
          142 13 28 rmoveto
          -22 45 -7 18 36 43 14 15 29 vhcurveto
          203 104 167 222 233 vvcurveto
          102 -35 77 -113 -102 -56 -151 -83 -44 8 -47 41 -25 vhcurveto
          14 -11 41 -19 2 2 19 8 rcurveline
          -65 19 -30 50 65 vvcurveto
          63 48 145 82 91 36 -47 -92 -214 -210 -348 -241 vhcurveto
          -24 -12 11 -20 hhcurveto
          -11 -4 -11 -9 hvcurveto
          470 793 rmoveto
          -4 2 3 -2 4 hhcurveto
          9 9 7 7 hvcurveto
          0 -1 1 1 vvcurveto
          1 vlineto
          3 -12 19 -1 2 vhcurveto
          -14 33 -35 64 46 vvcurveto
          -3 hlineto
          -3 1 1 -1 hhcurveto
          -45 -32 -68 -105 -13 -31 rrcurveto
          -4 2 3 -2 4 hhcurveto
          36 27 97 22 38 hvcurveto
          16 -24 6 -15 28 -69 8 -16 rlinecurve
          endchar
        </CharString>
        <CharString name="Idieresis">
          142 13 28 rmoveto
          -22 45 -7 18 36 43 14 15 29 vhcurveto
          203 104 167 222 233 vvcurveto
          102 -35 77 -113 -102 -56 -151 -83 -44 8 -47 41 -25 vhcurveto
          14 -11 41 -19 2 2 19 8 rcurveline
          -65 19 -30 50 65 vvcurveto
          63 48 145 82 91 36 -47 -92 -214 -210 -348 -241 vhcurveto
          -24 -12 11 -20 hhcurveto
          -11 -4 -11 -9 hvcurveto
          304 838 rmoveto
          -56 -21 69 -66 16 57 rrcurveto
          12 -20 18 -9 vhcurveto
          124 hmoveto
          -56 -21 68 -66 16 57 rrcurveto
          12 -19 18 -9 vhcurveto
          endchar
        </CharString>
        <CharString name="Igrave">
          142 20 20 rmoveto
          -22 45 -7 18 36 43 14 15 29 vhcurveto
          203 104 167 222 233 vvcurveto
          102 -35 77 -113 -102 -56 -151 -83 -44 8 -47 41 -25 vhcurveto
          14 -11 41 -19 2 2 19 8 rcurveline
          -65 19 -30 50 65 vvcurveto
          63 48 145 82 91 36 -47 -92 -214 -210 -348 -241 vhcurveto
          -24 -12 11 -20 hhcurveto
          -11 -4 -11 -9 hvcurveto
          388 780 rmoveto
          -11 24 -13 7 -13 27 -32 72 -48 -8 41 -71 20 -29 16 -28 36 -8 3 1 4 9 -3 4 rrcurveto
          endchar
        </CharString>
        <CharString name="J">
          146 -43 -164 rmoveto
          -109 35 -163 132 200 98 271 156 36 vhcurveto
          14 38 109 -33 46 vvcurveto
          8 -6 7 -8 vhcurveto
          -31 -22 -8 -35 hhcurveto
          75 18 66 8 75 vhcurveto
          8 57 19 176 2 12 1 7 6 25 3 5 rrcurveto
          32 45 63 48 64 vvcurveto
          31 -4 3 -29 -96 19 -131 -60 -24 vhcurveto
          -127 -148 -102 -51 13 -179 rrcurveto
          -90 58 -45 82 -25 vhcurveto
          -139 -24 -102 -278 -176 hhcurveto
          -113 -29 150 83 75 17 147 116 -19 hvcurveto
          1 1 2 1 vvcurveto
          15 -25 1 -10 -103 -24 -137 -75 vhcurveto
          358 339 rmoveto
          106 101 149 80 61 vhcurveto
          -37 vlineto
          -57 -398 rlineto
          -9 -3 -5 -1 -5 hhcurveto
          -65 -46 70 59 hvcurveto
          297 539 rmoveto
          -45 -24 -37 -35 -27 vhcurveto
          3 -1 5 1 vvcurveto
          34 13 66 47 vhcurveto
          endchar
        </CharString>
        <CharString name="K">
          390 9 91 rmoveto
          -78 26 -96 88 -24 vhcurveto
          57 hlineto
          205 1 73 175 72 164 rrcurveto
          3 6 6 3 1 vhcurveto
          89 -124 268 -562 173 6 rrcurveto
          128 229 117 145 77 -57 43 -78 hvcurveto
          -12 vlineto
          51 -16 55 -35 -58 vvcurveto
          -28 -12 -20 -17 -23 vhcurveto
          -99 -88 -84 -55 -138 hhcurveto
          -154 1 -263 558 -74 133 rrcurveto
          4 vlineto
          5 vlineto
          119 34 140 64 82 100 rrcurveto
          24 30 61 80 4 vvcurveto
          18 -19 vlineto
          -125 -90 -158 -165 -168 hhcurveto
          6 vlineto
          57 266 rlineto
          33 28 44 42 45 vvcurveto
          20 2 17 -24 -70 13 -123 -29 -46 vhcurveto
          -32 -51 -81 10 -56 hhcurveto
          -149 -73 249 51 86 3 rrcurveto
          -3 5 -19 -3 -4 vhcurveto
          -8 -48 -27 -127 -2 -4 -10 -20 rcurveline
          52 -43 -37 16 -65 hhcurveto
          -26 -75 -5 -43 -71 66 -24 57 hvcurveto
          35 31 9 36 hhcurveto
          -164 -139 -195 -176 -107 -40 69 100 36 10 27 15 19 vhcurveto
          7 11 8 10 9 7 rrcurveto
          13 -19 3 -11 -42 -5 -99 -26 vhcurveto
          302 270 rmoveto
          12 15 3 16 1 vhcurveto
          9 1 10 -1 12 -1 rrcurveto
          47 43 -10 -47 19 hvcurveto
          -27 -8 -52 7 -26 hhcurveto
          -37 -48 17 45 hvcurveto
          350 364 rmoveto
          1 -1 0 -6 -3 vvcurveto
          -16 -6 -8 -13 -12 vhcurveto
          3 vlineto
          15 6 21 12 7 vhcurveto
          endchar
        </CharString>
        <CharString name="L">
          553 612 157 rmoveto
          5 hlineto
          139 -118 114 -531 216 32 rrcurveto
          189 182 7 221 66 -35 92 -81 hvcurveto
          -3 -13 -2 -3 hhcurveto
          59 -26 46 -65 -64 vvcurveto
          -199 -162 7 -169 vhcurveto
          -220 -4 -72 439 -144 181 42 66 24 40 39 58 6 4 41 13 3 3 rrcurveto
          130 36 220 49 182 vvcurveto
          -3 83 -134 -34 -34 -37 -246 -245 rcurveline
          -7 -8 -24 -4 -15 hhcurveto
          -80 -75 23 39 -72 hvcurveto
          16 -30 -76 107 -1 hhcurveto
          -13 -2 -10 -9 -134 283 -73 86 8 hvcurveto
          -13 -41 -39 -57 -43 -56 rrcurveto
          -1 -13 6 3 -5 hvcurveto
          3 -27 15 -1 1 vhcurveto
          -12 5 -40 21 -4 2 rrcurveto
          24 -60 -64 24 -67 hhcurveto
          -18 hlineto
          -85 -16 -198 -19 -134 vvcurveto
          -99 108 -36 85 59 61 2 28 56 vhcurveto
          31 17 147 77 29 20 rrcurveto
          -540 -10 rmoveto
          115 162 18 90 69 159 -36 -60 32 vhcurveto
          -18 -19 -4 -4 -120 -66 -47 -24 rlinecurve
          -29 -52 -60 0 -59 hhcurveto
          -65 -87 23 82 hvcurveto
          1065 482 rmoveto
          -125 -206 -85 -97 vhcurveto
          -15 hlineto
          208 218 rlineto
          30 30 80 21 -59 vvcurveto
          endchar
        </CharString>
        <CharString name="Lacute">
          553 612 157 rmoveto
          5 hlineto
          139 -118 114 -531 216 32 rrcurveto
          189 182 7 221 66 -35 92 -81 hvcurveto
          -3 -13 -2 -3 hhcurveto
          59 -26 46 -65 -64 vvcurveto
          -199 -162 7 -169 vhcurveto
          -220 -4 -72 439 -144 181 42 66 24 40 39 58 6 4 41 13 3 3 rrcurveto
          130 36 220 49 182 vvcurveto
          -3 83 -134 -34 -34 -37 -246 -245 rcurveline
          -7 -8 -24 -4 -15 hhcurveto
          -80 -75 23 39 -72 hvcurveto
          16 -30 -76 107 -1 hhcurveto
          -13 -2 -10 -9 -134 283 -73 86 8 hvcurveto
          -13 -41 -39 -57 -43 -56 rrcurveto
          -1 -13 6 3 -5 hvcurveto
          3 -27 15 -1 1 vhcurveto
          -12 5 -40 21 -4 2 rrcurveto
          24 -60 -64 24 -67 hhcurveto
          -18 hlineto
          -85 -16 -198 -19 -134 vvcurveto
          -99 108 -36 85 59 61 2 28 56 vhcurveto
          31 17 147 77 29 20 rrcurveto
          -540 -10 rmoveto
          115 162 18 90 69 159 -36 -60 32 vhcurveto
          -18 -19 -4 -4 -120 -66 -47 -24 rlinecurve
          -29 -52 -60 0 -59 hhcurveto
          -65 -87 23 82 hvcurveto
          1065 482 rmoveto
          -125 -206 -85 -97 vhcurveto
          -15 hlineto
          208 218 rlineto
          30 30 80 21 -59 vvcurveto
          -126 110 rmoveto
          -3 -4 3 -10 4 -1 43 11 20 28 20 32 48 75 -55 11 -38 -77 -13 -31 -16 -8 -13 -26 rrcurveto
          endchar
        </CharString>
        <CharString name="Lcaron">
          553 617 157 rmoveto
          139 -118 114 -531 216 32 rrcurveto
          189 182 7 221 66 -35 92 -81 hvcurveto
          -3 -13 -2 -3 hhcurveto
          59 -26 46 -65 -64 vvcurveto
          -199 -162 7 -169 vhcurveto
          -220 -4 -72 439 -144 181 42 66 24 40 39 58 6 4 41 13 3 3 rrcurveto
          130 36 220 49 182 vvcurveto
          -3 83 -134 -34 -34 -37 -246 -245 rcurveline
          -7 -8 -24 -4 -15 hhcurveto
          -80 -75 23 39 -72 hvcurveto
          16 -30 -76 107 -1 hhcurveto
          -13 -2 -10 -9 -134 283 -73 86 8 hvcurveto
          -13 -41 -39 -57 -43 -56 rrcurveto
          -1 -2 1 3 -5 hvcurveto
          -11 5 rlineto
          3 -27 15 -1 1 vhcurveto
          -9 3 -25 14 -13 7 -9 4 rcurveline
          24 -60 -64 24 -67 hhcurveto
          -18 hlineto
          -85 -16 -198 -19 -134 vvcurveto
          -99 108 -36 85 59 61 2 28 56 vhcurveto
          31 17 147 77 29 20 rrcurveto
          -540 -10 rmoveto
          115 162 18 90 69 159 -36 -60 32 vhcurveto
          -18 -19 -4 -4 -120 -66 -47 -24 rlinecurve
          -29 -52 -60 0 -59 hhcurveto
          -65 -87 23 82 hvcurveto
          1065 482 rmoveto
          -125 -206 -85 -97 vhcurveto
          -15 hlineto
          208 218 rlineto
          30 30 80 21 -59 vvcurveto
          -239 130 rmoveto
          -116 73 rlineto
          -4 -7 -2 -4 -7 hvcurveto
          -11 -4 rlineto
          -4 -1 -2 -1 -1 vvcurveto
          38 -40 67 -51 52 -26 114 117 rcurveline
          1 vlineto
          1 2 rlineto
          7 -11 4 -13 -6 -5 -1 -3 -3 vhcurveto
          endchar
        </CharString>
        <CharString name="Lslash">
          553 581 301 rmoveto
          -4 0 -14 11 vhcurveto
          86 1 -52 -71 rlineto
          -1 -2 1 3 -5 hvcurveto
          -11 5 rlineto
          3 -27 15 -1 1 vhcurveto
          -9 3 -25 14 -13 7 -9 4 rcurveline
          24 -60 -64 24 -67 hhcurveto
          -18 hlineto
          -85 -16 -198 -19 -134 vvcurveto
          -99 108 -36 85 59 61 2 28 56 vhcurveto
          31 17 147 77 29 20 rrcurveto
          10 hlineto
          139 -118 114 -531 216 32 rrcurveto
          189 182 7 221 66 -35 92 -81 hvcurveto
          -3 -13 -2 -3 hhcurveto
          59 -26 46 -65 -64 vvcurveto
          -199 -162 7 -169 vhcurveto
          -220 -4 -72 439 -144 181 53 85 rcurveline
          4 7 95 2 rlineto
          17 1 3 6 11 vvcurveto
          11 -3 9 -12 vhcurveto
          -5 hlineto
          -7 -1 -13 0 -18 -1 rrcurveto
          -10 -11 0 -1 -11 hvcurveto
          7 11 7 12 9 12 6 4 41 13 3 3 rrcurveto
          130 36 220 49 182 vvcurveto
          -3 83 -134 -34 -34 -37 -246 -245 rcurveline
          -7 -8 -24 -4 -15 hhcurveto
          -80 -75 23 39 -72 hvcurveto
          16 -30 -76 107 -1 hhcurveto
          -13 -2 -10 -9 -134 283 -73 86 8 hvcurveto
          -4 -14 -7 -15 -9 -16 rrcurveto
          -15 -14 0 -1 -13 hvcurveto
          -18 -13 0 -1 -8 hvcurveto
          -19 -20 7 -26 hvcurveto
          -514 -154 rmoveto
          115 162 18 90 69 159 -36 -60 32 vhcurveto
          -18 -19 -4 -4 -120 -66 -47 -24 rlinecurve
          -29 -52 -60 0 -59 hhcurveto
          -65 -87 23 82 hvcurveto
          1065 482 rmoveto
          -125 -206 -85 -97 vhcurveto
          -15 hlineto
          208 218 rlineto
          30 30 80 21 -59 vvcurveto
          endchar
        </CharString>
        <CharString name="M">
          451 751 -78 rmoveto
          -115 26 64 -112 137 hhcurveto
          36 -12 104 66 -92 -34 -404 67 200 494 6 288 rrcurveto
          25 vlineto
          34 2 100 -46 vhcurveto
          -106 -21 -111 -265 -90 -156 10 34 23 167 5 35 -1 2 3 43 -1 12 -24 73 7 14 -239 -314 rrcurveto
          67 10 49 52 vvcurveto
          33 7 56 -46 vhcurveto
          -42 -3 -69 -46 -40 -19 rrcurveto
          -4 -2 -44 -8 -13 vvcurveto
          -8 7 -7 8 vhcurveto
          0 4 0 180 76 vhcurveto
          8 25 4 -202 -12 -12 -5 -26 -18 -75 -166 -201 rrcurveto
          -16 -21 -3 -12 -24 vvcurveto
          -31 7 1 31 63 51 65 60 19 vhcurveto
          8 23 31 113 8 24 30 41 147 186 31 37 5 7 28 26 5 -33 rrcurveto
          -69 -407 2 -35 -12 vvcurveto
          -3 1 6 -5 3 hhcurveto
          4 12 5 3 3 hvcurveto
          8 27 38 110 11 25 61 133 81 186 127 98 rrcurveto
          11 3 -29 0 hvcurveto
          -12 1 -53 -12 vvcurveto
          -5 -216 -53 -208 19 -218 rrcurveto
          -691 103 rmoveto
          47 106 115 28 33 vhcurveto
          -5 vlineto
          -5 -22 -31 -75 -2 -7 rrcurveto
          -30 -14 -42 -56 -40 hhcurveto
          endchar
        </CharString>
        <CharString name="N">
          226 534 52 rmoveto
          -105 24 50 -56 111 hhcurveto
          31 48 0 29 19 hvcurveto
          -3 -10 -54 -7 -11 hhcurveto
          -107 -59 54 107 -13 hvcurveto
          14 -2 74 16 153 43 148 152 15 -4 39 4 vvcurveto
          -19 18 -339 -329 -29 197 rlineto
          15 -3 -11 14 -15 hhcurveto
          0 -8 -1 -1 vhcurveto
          -17 -7 -78 -44 -18 -5 rrcurveto
          -25 -13 -15 6 -30 vvcurveto
          48 49 26 29 37 hvcurveto
          1 7 1 1 hhcurveto
          8 8 1 -11 3 hvcurveto
          16 -71 4 -30 -60 vvcurveto
          -5 -1 -27 -1 -5 vhcurveto
          -72 -72 -106 -108 -11 -113 rrcurveto
          -39 -1 27 -28 36 hhcurveto
          81 58 121 68 8 hvcurveto
          19 152 322 303 rlineto
          -62 vlineto
          -136 -30 -134 -137 -17 1 -84 -17 vvcurveto
          -484 16 rmoveto
          60 47 72 41 41 vhcurveto
          15 12 41 42 3 hhcurveto
          11 hlineto
          -70 -34 -205 -101 -22 2 31 14 vhcurveto
          endchar
        </CharString>
        <CharString name="Nacute">
          226 534 52 rmoveto
          -105 24 50 -56 111 hhcurveto
          31 48 0 29 19 hvcurveto
          -3 -10 -54 -7 -11 hhcurveto
          -107 -59 54 107 -13 hvcurveto
          14 -2 74 16 153 43 148 152 15 -4 39 4 vvcurveto
          -19 18 -339 -329 -29 197 rlineto
          15 -3 -11 14 -15 hhcurveto
          0 -8 -1 -1 vhcurveto
          -17 -7 -78 -44 -18 -5 rrcurveto
          -25 -13 -15 6 -30 vvcurveto
          48 49 26 29 37 hvcurveto
          1 7 1 1 hhcurveto
          8 8 1 -11 3 hvcurveto
          16 -71 4 -30 -60 vvcurveto
          -5 -1 -27 -1 -5 vhcurveto
          -72 -72 -106 -108 -11 -113 rrcurveto
          -39 -1 27 -28 36 hhcurveto
          81 58 121 68 8 hvcurveto
          19 152 322 303 rlineto
          -62 vlineto
          -136 -30 -134 -137 -17 1 -84 -17 vvcurveto
          -484 16 rmoveto
          60 47 72 41 41 vhcurveto
          15 12 41 42 3 hhcurveto
          11 hlineto
          -70 -34 -205 -101 -22 2 31 14 vhcurveto
          407 700 rmoveto
          -3 -4 3 -10 4 -1 43 11 20 28 20 32 48 75 -55 11 -38 -77 -13 -31 -16 -8 -13 -26 rrcurveto
          endchar
        </CharString>
        <CharString name="Ncaron">
          226 534 52 rmoveto
          -105 24 50 -56 111 hhcurveto
          31 48 0 29 19 hvcurveto
          -3 -10 -54 -7 -11 hhcurveto
          -107 -59 54 107 -13 hvcurveto
          14 -2 74 16 153 43 148 152 15 -4 39 4 vvcurveto
          -19 18 -339 -329 -29 197 rlineto
          15 -3 -11 14 -15 hhcurveto
          0 -8 -1 -1 vhcurveto
          -17 -7 -78 -44 -18 -5 rrcurveto
          -25 -13 -15 6 -30 vvcurveto
          48 49 26 29 37 hvcurveto
          1 7 1 1 hhcurveto
          8 8 1 -11 3 hvcurveto
          16 -71 4 -30 -60 vvcurveto
          -5 -1 -27 -1 -5 vhcurveto
          -72 -72 -106 -108 -11 -113 rrcurveto
          -39 -1 27 -28 36 hhcurveto
          81 58 121 68 8 hvcurveto
          19 152 322 303 rlineto
          -62 vlineto
          -136 -30 -134 -137 -17 1 -84 -17 vvcurveto
          -484 16 rmoveto
          60 47 72 41 41 vhcurveto
          15 12 41 42 3 hhcurveto
          11 hlineto
          -70 -34 -205 -101 -22 2 31 14 vhcurveto
          505 792 rmoveto
          -68 -164 -77 116 -54 50 rrcurveto
          -5 -27 -8 -3 -3 hvcurveto
          82 -114 111 -68 79 182 rrcurveto
          1 vlineto
          1 1 rlineto
          7 -11 4 -13 -7 -5 -1 -3 -3 vhcurveto
          endchar
        </CharString>
        <CharString name="Ntilde">
          226 534 52 rmoveto
          -105 24 50 -56 111 hhcurveto
          31 48 0 29 19 hvcurveto
          -3 -10 -54 -7 -11 hhcurveto
          -107 -59 54 107 -13 hvcurveto
          14 -2 74 16 153 43 148 152 15 -4 39 4 vvcurveto
          -19 18 -339 -329 -29 197 rlineto
          15 -3 -11 14 -15 hhcurveto
          0 -8 -1 -1 vhcurveto
          -17 -7 -78 -44 -18 -5 rrcurveto
          -25 -13 -15 6 -30 vvcurveto
          48 49 26 29 37 hvcurveto
          1 7 1 1 hhcurveto
          8 8 1 -11 3 hvcurveto
          16 -71 4 -30 -60 vvcurveto
          -5 -1 -27 -1 -5 vhcurveto
          -72 -72 -106 -108 -11 -113 rrcurveto
          -39 -1 27 -28 36 hhcurveto
          81 58 121 68 8 hvcurveto
          19 152 322 303 rlineto
          -62 vlineto
          -136 -30 -134 -137 -17 1 -84 -17 vvcurveto
          -484 16 rmoveto
          60 47 72 41 41 vhcurveto
          15 12 41 42 3 hhcurveto
          11 hlineto
          -70 -34 -205 -101 -22 2 31 14 vhcurveto
          242 688 rmoveto
          45 34 -52 52 hhcurveto
          55 48 16 78 33 -13 32 -29 -9 -16 0 -16 hvcurveto
          31 6 -16 -39 -58 -35 6 -38 hvcurveto
          -50 -27 44 -47 hhcurveto
          -23 9 -55 -13 3 -63 rrcurveto
          11 hlineto
          17 15 18 22 24 hhcurveto
          endchar
        </CharString>
        <CharString name="O">
          103 23 289 rmoveto
          -104 7 -176 145 135 81 122 114 48 vhcurveto
          4 8 19 71 5 7 5 8 54 25 8 5 rrcurveto
          7 4 3 4 5 vvcurveto
          6 vlineto
          -67 -29 rlineto
          10 vlineto
          73 11 68 76 21 -1 99 22 vvcurveto
          63 -14 -41 117 -83 hhcurveto
          -151 -23 -241 -100 -189 65 -78 189 11 hvcurveto
          -117 -24 -100 -156 -136 hhcurveto
          -13 -6 0 9 -12 hvcurveto
          -81 68 -7 67 100 vvcurveto
          137 17 123 71 119 vhcurveto
          15 vlineto
          -60 -28 -116 -40 -8 hvcurveto
          -5 -32 -13 -92 -8 -5 -1 -68 -26 vvcurveto
          179 253 rmoveto
          56 30 297 123 -16 vhcurveto
          96 -15 16 -162 -69 -19 -8 -151 -18 vvcurveto
          -10 vlineto
          -5 -11 -13 -60 -2 -15 rrcurveto
          -24 -8 -45 5 -23 hhcurveto
          -115 -46 115 97 hvcurveto
          endchar
        </CharString>
        <CharString name="OE">
          432 23 289 rmoveto
          -104 7 -176 145 89 67 57 71 50 vhcurveto
          -82 11 85 -53 84 hhcurveto
          20 56 6 103 212 hvcurveto
          8 4 1 3 7 vvcurveto
          9 -5 6 -4 9 vhcurveto
          -101 -45 -95 -91 -141 27 rrcurveto
          -65 23 -29 31 68 vvcurveto
          16 0 15 4 13 vhcurveto
          12 25 8 20 5 20 17 28 21 24 27 20 rrcurveto
          5 hlineto
          33 20 -30 38 hhcurveto
          50 111 22 71 26 -30 6 -25 hvcurveto
          -21 hlineto
          -58 -53 -40 -50 hhcurveto
          -9 hlineto
          -8 31 -3 16 25 vvcurveto
          81 75 161 98 44 13 -94 -20 8 vhcurveto
          4 hlineto
          21 -6 28 12 52 -38 50 -52 -80 -84 -125 -92 -29 hvcurveto
          1 20 1 22 21 vvcurveto
          71 vlineto
          29 -1 31 11 vvcurveto
          63 -14 -41 117 -83 hhcurveto
          -151 -23 -241 -100 -189 65 -78 189 11 hvcurveto
          -3 -9 -1 -10 -3 -11 -17 -28 -15 -29 -7 -31 rrcurveto
          -85 -45 -79 -70 -90 hhcurveto
          -13 -6 0 9 -12 hvcurveto
          -81 68 -7 67 100 vvcurveto
          137 17 123 71 119 vhcurveto
          15 vlineto
          -60 -28 -116 -40 -8 hvcurveto
          -5 -32 -13 -92 -8 -3 -1 -18 -21 vvcurveto
          179 196 rmoveto
          56 30 297 123 -16 vhcurveto
          96 -15 16 -162 -69 -19 -8 -151 -18 vvcurveto
          -10 vlineto
          -5 -11 -13 -60 -2 -15 rrcurveto
          -24 -8 -45 5 -23 hhcurveto
          -115 -46 115 97 hvcurveto
          359 -176 rmoveto
          29 116 14 21 17 16 -6 -13 9 vhcurveto
          -36 -25 -60 -12 -39 hhcurveto
          -16 -39 0 24 hvcurveto
          -67 5 rmoveto
          -4 -4 rlineto
          -1 -1 -1 -1 -1 vhcurveto
          -11 -5 rlineto
          40 vlineto
          10 1 10 1 10 vhcurveto
          7 -17 8 -17 -20 vvcurveto
          endchar
        </CharString>
        <CharString name="Oacute">
          103 23 289 rmoveto
          -104 7 -176 145 135 81 122 114 48 vhcurveto
          4 8 19 71 5 7 5 8 54 25 8 5 rrcurveto
          7 4 3 4 5 vvcurveto
          6 vlineto
          -67 -29 rlineto
          10 vlineto
          73 11 68 76 21 -1 99 22 vvcurveto
          63 -14 -41 117 -83 hhcurveto
          -151 -23 -241 -100 -189 65 -78 189 11 hvcurveto
          -117 -24 -100 -156 -136 hhcurveto
          -13 -6 0 9 -12 hvcurveto
          -81 68 -7 67 100 vvcurveto
          137 17 123 71 119 vhcurveto
          15 vlineto
          -60 -28 -116 -40 -8 hvcurveto
          -5 -32 -13 -92 -8 -5 -1 -68 -26 vvcurveto
          179 253 rmoveto
          56 30 297 123 -16 vhcurveto
          96 -15 16 -162 -69 -19 -8 -151 -18 vvcurveto
          -10 vlineto
          -5 -11 -13 -60 -2 -15 rrcurveto
          -24 -8 -45 5 -23 hhcurveto
          -115 -46 115 97 hvcurveto
          6 381 rmoveto
          -3 -4 3 -10 4 -1 43 11 20 28 20 32 48 75 -55 11 -38 -77 -13 -31 -16 -8 -13 -26 rrcurveto
          endchar
        </CharString>
        <CharString name="Ocircumflex">
          103 23 289 rmoveto
          -104 7 -176 145 135 81 122 114 48 vhcurveto
          4 8 19 71 5 7 5 8 54 25 8 5 rrcurveto
          7 4 3 4 5 vvcurveto
          6 vlineto
          -67 -29 rlineto
          10 vlineto
          73 11 68 76 21 -1 99 22 vvcurveto
          63 -14 -41 117 -83 hhcurveto
          -151 -23 -241 -100 -189 65 -78 189 11 hvcurveto
          -117 -24 -100 -156 -136 hhcurveto
          -13 -6 0 9 -12 hvcurveto
          -81 68 -7 67 100 vvcurveto
          137 17 123 71 119 vhcurveto
          15 vlineto
          -60 -28 -116 -40 -8 hvcurveto
          -5 -32 -13 -92 -8 -5 -1 -68 -26 vvcurveto
          179 253 rmoveto
          56 30 297 123 -16 vhcurveto
          96 -15 16 -162 -69 -19 -8 -151 -18 vvcurveto
          -10 vlineto
          -5 -11 -13 -60 -2 -15 rrcurveto
          -24 -8 -45 5 -23 hhcurveto
          -115 -46 115 97 hvcurveto
          152 430 rmoveto
          -4 2 3 -2 4 hhcurveto
          9 9 7 7 hvcurveto
          0 -1 1 1 vvcurveto
          1 vlineto
          3 -12 19 -1 2 vhcurveto
          -14 33 -35 64 46 vvcurveto
          -3 hlineto
          -3 1 1 -1 hhcurveto
          -45 -32 -68 -105 -13 -31 rrcurveto
          -4 2 3 -2 4 hhcurveto
          36 27 97 22 38 hvcurveto
          16 -24 6 -15 28 -69 8 -16 rlinecurve
          endchar
        </CharString>
        <CharString name="Odieresis">
          103 23 289 rmoveto
          -104 7 -176 145 135 81 122 114 48 vhcurveto
          4 8 19 71 5 7 5 8 54 25 8 5 rrcurveto
          7 4 3 4 5 vvcurveto
          6 vlineto
          -67 -29 rlineto
          10 vlineto
          73 11 68 76 21 -1 99 22 vvcurveto
          63 -14 -41 117 -83 hhcurveto
          -151 -23 -241 -100 -189 65 -78 189 11 hvcurveto
          -117 -24 -100 -156 -136 hhcurveto
          -13 -6 0 9 -12 hvcurveto
          -81 68 -7 67 100 vvcurveto
          137 17 123 71 119 vhcurveto
          15 vlineto
          -60 -28 -116 -40 -8 hvcurveto
          -5 -32 -13 -92 -8 -5 -1 -68 -26 vvcurveto
          179 253 rmoveto
          56 30 297 123 -16 vhcurveto
          96 -15 16 -162 -69 -19 -8 -151 -18 vvcurveto
          -10 vlineto
          -5 -11 -13 -60 -2 -15 rrcurveto
          -24 -8 -45 5 -23 hhcurveto
          -115 -46 115 97 hvcurveto
          44 483 rmoveto
          -56 -21 69 -66 16 57 rrcurveto
          12 -20 18 -9 vhcurveto
          124 hmoveto
          -56 -21 68 -66 16 57 rrcurveto
          12 -19 18 -9 vhcurveto
          endchar
        </CharString>
        <CharString name="Ograve">
          103 23 289 rmoveto
          -104 7 -176 145 135 81 122 114 48 vhcurveto
          4 8 19 71 5 7 5 8 54 25 8 5 rrcurveto
          7 4 3 4 5 vvcurveto
          6 vlineto
          -67 -29 rlineto
          10 vlineto
          73 11 68 76 21 -1 99 22 vvcurveto
          63 -14 -41 117 -83 hhcurveto
          -151 -23 -241 -100 -189 65 -78 189 11 hvcurveto
          -117 -24 -100 -156 -136 hhcurveto
          -13 -6 0 9 -12 hvcurveto
          -81 68 -7 67 100 vvcurveto
          137 17 123 71 119 vhcurveto
          15 vlineto
          -60 -28 -116 -40 -8 hvcurveto
          -5 -32 -13 -92 -8 -5 -1 -68 -26 vvcurveto
          179 253 rmoveto
          56 30 297 123 -16 vhcurveto
          96 -15 16 -162 -69 -19 -8 -151 -18 vvcurveto
          -10 vlineto
          -5 -11 -13 -60 -2 -15 rrcurveto
          -24 -8 -45 5 -23 hhcurveto
          -115 -46 115 97 hvcurveto
          135 399 rmoveto
          -11 24 -13 7 -13 27 -32 72 -48 -8 41 -71 20 -29 16 -28 36 -8 3 1 4 9 -3 4 rrcurveto
          endchar
        </CharString>
        <CharString name="Ohungarumlaut">
          103 23 289 rmoveto
          -104 7 -176 145 135 81 122 114 48 vhcurveto
          4 8 19 71 5 7 5 8 54 25 8 5 rrcurveto
          7 4 3 4 5 vvcurveto
          6 vlineto
          -67 -29 rlineto
          10 vlineto
          73 11 68 76 21 -1 99 22 vvcurveto
          63 -14 -41 117 -83 hhcurveto
          -151 -23 -241 -100 -189 65 -78 189 11 hvcurveto
          -117 -24 -100 -156 -136 hhcurveto
          -13 -6 0 9 -12 hvcurveto
          -81 68 -7 67 100 vvcurveto
          137 17 123 71 119 vhcurveto
          15 vlineto
          -60 -28 -116 -40 -8 hvcurveto
          -5 -32 -13 -92 -8 -5 -1 -68 -26 vvcurveto
          179 253 rmoveto
          56 30 297 123 -16 vhcurveto
          96 -15 16 -162 -69 -19 -8 -151 -18 vvcurveto
          -10 vlineto
          -5 -11 -13 -60 -2 -15 rrcurveto
          -24 -8 -45 5 -23 hhcurveto
          -115 -46 115 97 hvcurveto
          22 458 rmoveto
          -3 -3 4 -10 5 -1 40 9 21 30 21 31 45 77 -49 8 -41 -76 -16 -31 -11 -7 -16 -27 rrcurveto
          98 -4 rmoveto
          -3 -4 4 -10 4 -1 41 11 21 28 21 32 48 74 -55 12 -38 -77 -16 -31 -11 -8 -16 -26 rrcurveto
          endchar
        </CharString>
        <CharString name="Oslash">
          103 24 50 rmoveto
          -24 5 -27 9 vhcurveto
          1 hlineto
          1 0 0 1 hvcurveto
          1 0 0 1 1 hvcurveto
          12 31 13 33 rlineto
          -33 23 33 -23 52 hhcurveto
          135 81 122 114 48 hvcurveto
          4 8 19 71 5 7 5 8 54 25 8 5 rrcurveto
          7 4 3 4 5 vvcurveto
          6 vlineto
          -67 -29 rlineto
          10 vlineto
          73 11 68 76 vvcurveto
          71 vlineto
          29 -1 31 11 vvcurveto
          -7 31 -12 39 -19 36 1 3 2 2 1 2 rrcurveto
          5 18 57 10 5 hvcurveto
          41 5 -17 9 -8 hhcurveto
          -1 -2 0 -1 -3 hvcurveto
          -1 -1 0 0 -1 hhcurveto
          -13 -28 -13 -24 -13 -24 rrcurveto
          17 -19 -21 11 -25 hhcurveto
          -151 -23 -241 -100 -56 6 -46 11 -35 hvcurveto
          -65 -133 -40 -86 -24 -56 rrcurveto
          -12 37 -1 39 51 vvcurveto
          137 17 123 71 119 vhcurveto
          15 vlineto
          -60 -28 -116 -40 -8 hvcurveto
          -5 -32 -13 -92 -8 -3 -1 -18 -21 vvcurveto
          -57 vlineto
          -52 2 -69 19 -57 vhcurveto
          -16 -41 -4 -12 -5 vvcurveto
          405 258 rmoveto
          -117 -24 -100 -156 -136 hhcurveto
          -13 -6 0 9 -12 hvcurveto
          -23 19 -18 21 -13 21 39 99 43 92 43 92 39 -63 68 -24 113 7 rrcurveto
          38 322 rmoveto
          -19 -8 -151 -18 vvcurveto
          -10 vlineto
          -5 -11 -13 -60 -2 -15 rrcurveto
          -24 -8 -45 5 -23 hhcurveto
          -69 -44 39 56 -24 hvcurveto
          68 137 71 129 69 119 rrcurveto
          29 -55 4 -81 -41 vvcurveto
          -265 -91 rmoveto
          56 30 297 123 -16 vhcurveto
          19 -3 14 -8 13 -13 -79 -160 -62 -124 -49 -103 rrcurveto
          -6 24 -3 25 25 vvcurveto
          endchar
        </CharString>
        <CharString name="Otilde">
          103 23 289 rmoveto
          -104 7 -176 145 135 81 122 114 48 vhcurveto
          4 8 19 71 5 7 5 8 54 25 8 5 rrcurveto
          7 4 3 4 5 vvcurveto
          6 vlineto
          -67 -29 rlineto
          10 vlineto
          73 11 68 76 21 -1 99 22 vvcurveto
          63 -14 -41 117 -83 hhcurveto
          -151 -23 -241 -100 -189 65 -78 189 11 hvcurveto
          -117 -24 -100 -156 -136 hhcurveto
          -13 -6 0 9 -12 hvcurveto
          -81 68 -7 67 100 vvcurveto
          137 17 123 71 119 vhcurveto
          15 vlineto
          -60 -28 -116 -40 -8 hvcurveto
          -5 -32 -13 -92 -8 -5 -1 -68 -26 vvcurveto
          179 253 rmoveto
          56 30 297 123 -16 vhcurveto
          96 -15 16 -162 -69 -19 -8 -151 -18 vvcurveto
          -10 vlineto
          -5 -11 -13 -60 -2 -15 rrcurveto
          -24 -8 -45 5 -23 hhcurveto
          -115 -46 115 97 hvcurveto
          12 443 rmoveto
          45 34 -52 52 hhcurveto
          55 48 16 78 33 -13 32 -29 -9 -16 0 -16 hvcurveto
          31 6 -16 -39 -58 -35 6 -38 hvcurveto
          -50 -27 44 -47 hhcurveto
          -23 9 -55 -13 3 -63 rrcurveto
          11 hlineto
          17 15 18 22 24 hhcurveto
          endchar
        </CharString>
        <CharString name="P">
          91 12 100 rmoveto
          -49 24 -52 53 94 65 136 63 30 vhcurveto
          8 19 11 22 5 23 8 24 25 110 5 27 rrcurveto
          -24 28 34 -24 37 hhcurveto
          159 140 301 131 33 -14 9 -32 -52 -33 -18 -39 -40 hvcurveto
          -208 -209 rlineto
          -5 80 36 71 80 vvcurveto
          -25 -30 -46 -15 -23 hvcurveto
          -28 -46 -33 -3 -53 hhcurveto
          -25 vlineto
          70 33 36 56 hhcurveto
          3 -76 -8 -68 -32 -72 -26 -27 -112 -124 -22 -29 rrcurveto
          -66 -79 -64 -49 -109 vvcurveto
          28 2 rmoveto
          94 47 36 55 68 vhcurveto
          52 41 114 127 18 hhcurveto
          -92 -75 -359 -151 -41 -8 39 35 vhcurveto
          309 398 rmoveto
          37 -1 -6 30 33 vhcurveto
          27 31 133 138 29 29 rrcurveto
          31 43 37 28 55 hhcurveto
          -134 -119 -283 -153 -51 -30 53 43 vhcurveto
          endchar
        </CharString>
        <CharString name="Q">
          214 345 131 rmoveto
          -68 41 36 -54 84 hhcurveto
          32 101 20 51 1 0 4 -1 hvcurveto
          -32 -39 -48 -18 -49 hhcurveto
          -69 -42 77 58 -18 hvcurveto
          76 132 29 133 152 vvcurveto
          60 6 213 -93 vhcurveto
          -111 -32 1 -176 -12 -85 -5 -120 33 -146 29 -141 -27 -23 -70 -97 -61 16 -220 92 131 335 77 169 rrcurveto
          12 26 62 13 27 vvcurveto
          -46 hlineto
          -126 -28 -62 -393 28 -155 rrcurveto
          -62 16 57 -60 68 hhcurveto
          75 59 63 48 46 hvcurveto
          -47 436 rmoveto
          11 13 92 5 29 vhcurveto
          28 6 44 106 25 hhcurveto
          21 14 -23 -15 3 hvcurveto
          19 -89 11 -52 -78 vvcurveto
          -81 -15 -74 -24 -80 vhcurveto
          -38 -9 -40 -85 -8 hhcurveto
          -11 -13 32 15 -3 hvcurveto
          -26 89 -17 119 5 94 rrcurveto
          endchar
        </CharString>
        <CharString name="R">
          227 73 -34 rmoveto
          33 29 0 -41 88 408 174 32 0 -373 166 -8 rrcurveto
          56 6 62 22 59 vvcurveto
          -36 -23 -45 -14 -40 hhcurveto
          -107 -73 280 65 -73 hvcurveto
          164 16 206 441 -260 -154 -44 -27 -133 -109 -9 -26 rrcurveto
          15 -7 58 -3 13 vhcurveto
          12 -3 -7 36 -23 hhcurveto
          -16 -58 -39 -9 -6 hvcurveto
          -24 vlineto
          45 8 40 59 -90 vvcurveto
          -32 -175 -231 -427 159 -7 rrcurveto
          77 412 rmoveto
          8 -116 -87 -339 -24 108 rrcurveto
          83 51 199 52 65 vhcurveto
          244 272 rmoveto
          134 87 -4 -75 -58 -89 -57 -88 -121 -108 -92 37 -19 92 140 70 77 74 rrcurveto
          endchar
        </CharString>
        <CharString name="Racute">
          227 73 -34 rmoveto
          33 29 0 -41 88 408 174 32 0 -373 166 -8 rrcurveto
          56 6 62 22 59 vvcurveto
          -36 -23 -45 -14 -40 hhcurveto
          -107 -73 280 65 -73 hvcurveto
          164 16 206 441 -260 -154 -44 -27 -133 -109 -9 -26 rrcurveto
          15 -7 58 -3 13 vhcurveto
          12 -3 -7 36 -23 hhcurveto
          -16 -58 -39 -9 -6 hvcurveto
          -24 vlineto
          45 8 40 59 -90 vvcurveto
          -32 -175 -231 -427 159 -7 rrcurveto
          77 412 rmoveto
          8 -116 -87 -339 -24 108 rrcurveto
          83 51 199 52 65 vhcurveto
          244 272 rmoveto
          134 87 -4 -75 -58 -89 -57 -88 -121 -108 -92 37 -19 92 140 70 77 74 rrcurveto
          -108 76 rmoveto
          -3 -4 3 -10 4 -1 43 11 20 28 20 32 48 75 -55 11 -38 -77 -13 -31 -16 -8 -13 -26 rrcurveto
          endchar
        </CharString>
        <CharString name="Rcaron">
          227 73 -34 rmoveto
          33 29 0 -41 88 408 174 32 0 -373 166 -8 rrcurveto
          56 6 62 22 59 vvcurveto
          -36 -23 -45 -14 -40 hhcurveto
          -107 -73 280 65 -73 hvcurveto
          164 16 206 441 -260 -154 -44 -27 -133 -109 -9 -26 rrcurveto
          15 -7 58 -3 13 vhcurveto
          12 -3 -7 36 -23 hhcurveto
          -16 -58 -39 -9 -6 hvcurveto
          -24 vlineto
          45 8 40 59 -90 vvcurveto
          -32 -175 -231 -427 159 -7 rrcurveto
          77 412 rmoveto
          8 -116 -87 -339 -24 108 rrcurveto
          83 51 199 52 65 vhcurveto
          244 272 rmoveto
          134 87 -4 -75 -58 -89 -57 -88 -121 -108 -92 37 -19 92 140 70 77 74 rrcurveto
          38 203 rmoveto
          -68 -164 -77 116 -54 50 rrcurveto
          -5 -27 -8 -3 -3 hvcurveto
          82 -114 111 -68 79 182 rrcurveto
          1 vlineto
          1 1 rlineto
          7 -11 4 -13 -7 -5 -1 -3 -3 vhcurveto
          endchar
        </CharString>
        <CharString name="S">
          395 208 113 rmoveto
          374 -334 163 360 -48 343 84 140 273 248 -215 45 rrcurveto
          -88 -67 -97 -84 -8 hvcurveto
          -19 -255 -180 -149 -108 -63 -142 -107 rlinecurve
          -54 163 67 28 125 64 7 7 -21 6 14 11 -174 -51 -33 -82 41 -157 rrcurveto
          -59 -54 -131 -19 -15 vvcurveto
          -5 8 -31 8 vhcurveto
          636 412 rmoveto
          52 -292 -161 -305 -307 287 rrcurveto
          593 759 rmoveto
          28 27 -16 -32 -60 -151 -206 -49 -41 hvcurveto
          16 109 -31 230 160 16 rrcurveto
          endchar
        </CharString>
        <CharString name="Sacute">
          395 208 113 rmoveto
          374 -334 163 360 -48 343 84 140 273 248 -215 45 rrcurveto
          -88 -67 -97 -84 -8 hvcurveto
          -19 -255 -180 -149 -108 -63 -142 -107 rlinecurve
          -54 163 67 28 125 64 7 7 -21 6 14 11 -174 -51 -33 -82 41 -157 rrcurveto
          -59 -54 -131 -19 -15 vvcurveto
          -5 8 -31 8 vhcurveto
          636 412 rmoveto
          52 -292 -161 -305 -307 287 rrcurveto
          593 759 rmoveto
          28 27 -16 -32 -60 -151 -206 -49 -41 hvcurveto
          16 109 -31 230 160 16 rrcurveto
          -79 115 rmoveto
          -3 -4 3 -10 4 -1 43 11 20 28 20 32 48 75 -55 11 -38 -77 -13 -31 -16 -8 -13 -26 rrcurveto
          endchar
        </CharString>
        <CharString name="Scaron">
          395 208 113 rmoveto
          374 -334 163 360 -48 343 84 140 273 248 -215 45 rrcurveto
          -88 -67 -97 -84 -8 hvcurveto
          -19 -255 -180 -149 -108 -63 -142 -107 rlinecurve
          -54 163 67 28 125 64 7 7 -21 6 14 11 -174 -51 -33 -82 41 -157 rrcurveto
          -59 -54 -131 -19 -15 vvcurveto
          -5 8 -31 8 vhcurveto
          636 412 rmoveto
          52 -292 -161 -305 -307 287 rrcurveto
          593 759 rmoveto
          28 27 -16 -32 -60 -151 -206 -49 -41 hvcurveto
          16 109 -31 230 160 16 rrcurveto
          48 187 rmoveto
          -68 -164 -77 116 -54 50 rrcurveto
          -5 -27 -8 -3 -3 hvcurveto
          82 -114 111 -68 79 182 rrcurveto
          1 vlineto
          1 1 rlineto
          7 -11 4 -13 -7 -5 -1 -3 -3 vhcurveto
          endchar
        </CharString>
        <CharString name="T">
          281 13 212 rmoveto
          -118 149 -85 107 224 124 289 184 40 vhcurveto
          8 36 26 182 4 37 rrcurveto
          5 47 51 25 51 vvcurveto
          23 -1 -13 25 -23 hhcurveto
          -38 -28 -6 -84 -5 -31 rrcurveto
          -79 -60 -122 -54 -100 -72 -65 17 -75 hhcurveto
          3 36 10 59 -38 -16 rrcurveto
          -125 vlineto
          22 70 76 -20 72 hhcurveto
          138 -13 73 63 82 63 -1 -203 -56 -196 -113 -159 rrcurveto
          -69 -53 -77 -54 -92 hhcurveto
          -93 -132 78 103 73 57 43 61 hvcurveto
          20 -25 5 -13 -71 -36 -89 -58 vhcurveto
          710 648 rmoveto
          -1 1 -10 -3 vvcurveto
          -13 -1 -9 -9 -11 vhcurveto
          24 2 10 7 13 vhcurveto
          endchar
        </CharString>
        <CharString name="Tcaron">
          281 13 212 rmoveto
          -118 149 -85 107 224 124 289 184 40 vhcurveto
          8 36 26 182 4 37 rrcurveto
          5 47 51 25 51 vvcurveto
          23 -1 -13 25 -23 hhcurveto
          -38 -28 -6 -84 -5 -31 rrcurveto
          -79 -60 -122 -54 -100 -72 -65 17 -75 hhcurveto
          3 36 10 59 -38 -16 rrcurveto
          -125 vlineto
          22 70 76 -20 72 hhcurveto
          138 -13 73 63 82 63 -1 -203 -56 -196 -113 -159 rrcurveto
          -69 -53 -77 -54 -92 hhcurveto
          -93 -132 78 103 73 57 43 61 hvcurveto
          20 -25 5 -13 -71 -36 -89 -58 vhcurveto
          710 648 rmoveto
          -1 1 -10 -3 vvcurveto
          -13 -1 -9 -9 -11 vhcurveto
          24 2 10 7 13 vhcurveto
          -70 213 rmoveto
          -68 -164 -77 116 -54 50 rrcurveto
          -5 -27 -8 -3 -3 hvcurveto
          82 -114 111 -68 79 182 rrcurveto
          1 vlineto
          1 1 rlineto
          7 -11 4 -13 -7 -5 -1 -3 -3 vhcurveto
          endchar
        </CharString>
        <CharString name="Thorn">
          -32 49 -182 rmoveto
          -4 3 16 -10 4 hhcurveto
          4 -1 83 54 -10 163 -19 145 rlinecurve
          9 10 113 32 160 292 -121 17 rlinecurve
          -64 -13 -67 -52 -43 -69 12 36 3 323 -27 -8 -51 -121 41 -336 -18 -36 -52 -113 -11 -136 25 -128 rrcurveto
          2 -6 8 -31 -8 vvcurveto
          14 69 rmoveto
          -21 97 -1 154 61 77 -3 -119 40 -147 -56 -105 -15 9 -1 19 -4 15 rrcurveto
          202 585 rmoveto
          115 31 -158 -270 -84 -12 -21 89 68 146 80 16 rrcurveto
          endchar
        </CharString>
        <CharString name="U">
          353 130 171 rmoveto
          -75 27 -87 88 89 50 103 68 32 vhcurveto
          12 32 74 159 8 36 rrcurveto
          -149 -8 1 -230 202 hhcurveto
          26 64 4 44 1 -8 8 -3 hvcurveto
          -21 -27 -14 -8 -35 hhcurveto
          -145 -25 141 114 hvcurveto
          113 49 114 110 vvcurveto
          9 -2 14 -13 -5 -7 -2 -8 -1 vhcurveto
          -49 -189 -72 -120 -15 -132 -82 -116 rlinecurve
          -27 -19 -32 -39 -39 hhcurveto
          -64 -27 89 48 hvcurveto
          14 vlineto
          77 435 rlineto
          22 vlineto
          -49 -41 -42 -53 hhcurveto
          -4 -19 1 1 -4 hvcurveto
          17 8 -7 2 -1 hhcurveto
          -20 -11 -7 -12 -16 hvcurveto
          -1 -2 -4 -1 vvcurveto
          -29 65 5 9 37 25 -3 23 36 vhcurveto
          -38 vlineto
          -58 -350 rlineto
          -3 -2 -24 -10 vvcurveto
          endchar
        </CharString>
        <CharString name="Uacute">
          353 130 171 rmoveto
          -75 27 -87 88 89 50 103 68 32 vhcurveto
          12 32 74 159 8 36 rrcurveto
          -149 -8 1 -230 202 hhcurveto
          26 64 4 44 1 -8 8 -3 hvcurveto
          -21 -27 -14 -8 -35 hhcurveto
          -145 -25 141 114 hvcurveto
          113 49 114 110 vvcurveto
          9 -2 14 -13 -5 -7 -2 -8 -1 vhcurveto
          -49 -189 -72 -120 -15 -132 -82 -116 rlinecurve
          -27 -19 -32 -39 -39 hhcurveto
          -64 -27 89 48 hvcurveto
          14 vlineto
          77 435 rlineto
          22 vlineto
          -49 -41 -42 -53 hhcurveto
          -4 -19 1 1 -4 hvcurveto
          17 8 -7 2 -1 hhcurveto
          -20 -11 -7 -12 -16 hvcurveto
          -1 -2 -4 -1 vvcurveto
          -29 65 5 9 37 25 -3 23 36 vhcurveto
          -38 vlineto
          -58 -350 rlineto
          -3 -2 -24 -10 vvcurveto
          224 568 rmoveto
          -3 -4 3 -10 4 -1 43 11 20 28 20 32 48 75 -55 11 -38 -77 -13 -31 -16 -8 -13 -26 rrcurveto
          endchar
        </CharString>
        <CharString name="Ucircumflex">
          353 130 171 rmoveto
          -75 27 -87 88 89 50 103 68 32 vhcurveto
          12 32 74 159 8 36 rrcurveto
          -149 -8 1 -230 202 hhcurveto
          26 64 4 44 1 -8 8 -3 hvcurveto
          -21 -27 -14 -8 -35 hhcurveto
          -145 -25 141 114 hvcurveto
          113 49 114 110 vvcurveto
          9 -2 14 -13 -5 -7 -2 -8 -1 vhcurveto
          -49 -189 -72 -120 -15 -132 -82 -116 rlinecurve
          -27 -19 -32 -39 -39 hhcurveto
          -64 -27 89 48 hvcurveto
          14 vlineto
          77 435 rlineto
          22 vlineto
          -49 -41 -42 -53 hhcurveto
          -4 -19 1 1 -4 hvcurveto
          17 8 -7 2 -1 hhcurveto
          -20 -11 -7 -12 -16 hvcurveto
          -1 -2 -4 -1 vvcurveto
          -29 65 5 9 37 25 -3 23 36 vhcurveto
          -38 vlineto
          -58 -350 rlineto
          -3 -2 -24 -10 vvcurveto
          334 552 rmoveto
          -4 2 3 -2 4 hhcurveto
          9 9 7 7 hvcurveto
          0 -1 1 1 vvcurveto
          1 vlineto
          3 -12 19 -1 2 vhcurveto
          -14 33 -35 64 46 vvcurveto
          -3 hlineto
          -3 1 1 -1 hhcurveto
          -45 -32 -68 -105 -13 -31 rrcurveto
          -4 2 3 -2 4 hhcurveto
          36 27 97 22 38 hvcurveto
          16 -24 6 -15 28 -69 8 -16 rlinecurve
          endchar
        </CharString>
        <CharString name="Udieresis">
          353 130 171 rmoveto
          -75 27 -87 88 89 50 103 68 32 vhcurveto
          12 32 74 159 8 36 rrcurveto
          -149 -8 1 -230 202 hhcurveto
          26 64 4 44 1 -8 8 -3 hvcurveto
          -21 -27 -14 -8 -35 hhcurveto
          -145 -25 141 114 hvcurveto
          113 49 114 110 vvcurveto
          9 -2 14 -13 -5 -7 -2 -8 -1 vhcurveto
          -49 -189 -72 -120 -15 -132 -82 -116 rlinecurve
          -27 -19 -32 -39 -39 hhcurveto
          -64 -27 89 48 hvcurveto
          14 vlineto
          77 435 rlineto
          22 vlineto
          -49 -41 -42 -53 hhcurveto
          -4 -19 1 1 -4 hvcurveto
          17 8 -7 2 -1 hhcurveto
          -20 -11 -7 -12 -16 hvcurveto
          -1 -2 -4 -1 vvcurveto
          -29 65 5 9 37 25 -3 23 36 vhcurveto
          -38 vlineto
          -58 -350 rlineto
          -3 -2 -24 -10 vvcurveto
          221 612 rmoveto
          -56 -21 69 -66 16 57 rrcurveto
          12 -20 18 -9 vhcurveto
          124 hmoveto
          -56 -21 68 -66 16 57 rrcurveto
          12 -19 18 -9 vhcurveto
          endchar
        </CharString>
        <CharString name="Ugrave">
          353 130 171 rmoveto
          -75 27 -87 88 89 50 103 68 32 vhcurveto
          12 32 74 159 8 36 rrcurveto
          -149 -8 1 -230 202 hhcurveto
          26 64 4 44 1 -8 8 -3 hvcurveto
          -21 -27 -14 -8 -35 hhcurveto
          -145 -25 141 114 hvcurveto
          113 49 114 110 vvcurveto
          9 -2 14 -13 -5 -7 -2 -8 -1 vhcurveto
          -49 -189 -72 -120 -15 -132 -82 -116 rlinecurve
          -27 -19 -32 -39 -39 hhcurveto
          -64 -27 89 48 hvcurveto
          14 vlineto
          77 435 rlineto
          22 vlineto
          -49 -41 -42 -53 hhcurveto
          -4 -19 1 1 -4 hvcurveto
          17 8 -7 2 -1 hhcurveto
          -20 -11 -7 -12 -16 hvcurveto
          -1 -2 -4 -1 vvcurveto
          -29 65 5 9 37 25 -3 23 36 vhcurveto
          -38 vlineto
          -58 -350 rlineto
          -3 -2 -24 -10 vvcurveto
          310 557 rmoveto
          -11 24 -13 7 -13 27 -32 72 -48 -8 41 -71 20 -29 16 -28 36 -8 3 1 4 9 -3 4 rrcurveto
          endchar
        </CharString>
        <CharString name="Uhungarumlaut">
          353 130 171 rmoveto
          -75 27 -87 88 89 50 103 68 32 vhcurveto
          12 32 74 159 8 36 rrcurveto
          -149 -8 1 -230 202 hhcurveto
          26 64 4 44 1 -8 8 -3 hvcurveto
          -21 -27 -14 -8 -35 hhcurveto
          -145 -25 141 114 hvcurveto
          113 49 114 110 vvcurveto
          9 -2 14 -13 -5 -7 -2 -8 -1 vhcurveto
          -49 -189 -72 -120 -15 -132 -82 -116 rlinecurve
          -27 -19 -32 -39 -39 hhcurveto
          -64 -27 89 48 hvcurveto
          14 vlineto
          77 435 rlineto
          22 vlineto
          -49 -41 -42 -53 hhcurveto
          -4 -19 1 1 -4 hvcurveto
          17 8 -7 2 -1 hhcurveto
          -20 -11 -7 -12 -16 hvcurveto
          -1 -2 -4 -1 vvcurveto
          -29 65 5 9 37 25 -3 23 36 vhcurveto
          -38 vlineto
          -58 -350 rlineto
          -3 -2 -24 -10 vvcurveto
          187 569 rmoveto
          -3 -3 4 -10 5 -1 40 9 21 30 21 31 45 77 -49 8 -41 -76 -16 -31 -11 -7 -16 -27 rrcurveto
          98 -4 rmoveto
          -3 -4 4 -10 4 -1 41 11 21 28 21 32 48 74 -55 12 -38 -77 -16 -31 -11 -8 -16 -26 rrcurveto
          endchar
        </CharString>
        <CharString name="Uring">
          353 130 171 rmoveto
          -75 27 -87 88 89 50 103 68 32 vhcurveto
          12 32 74 159 8 36 rrcurveto
          -149 -8 1 -230 202 hhcurveto
          26 64 4 44 1 -8 8 -3 hvcurveto
          -21 -27 -14 -8 -35 hhcurveto
          -145 -25 141 114 hvcurveto
          113 49 114 110 vvcurveto
          9 -2 14 -13 -5 -7 -2 -8 -1 vhcurveto
          -49 -189 -72 -120 -15 -132 -82 -116 rlinecurve
          -27 -19 -32 -39 -39 hhcurveto
          -64 -27 89 48 hvcurveto
          14 vlineto
          77 435 rlineto
          22 vlineto
          -49 -41 -42 -53 hhcurveto
          -4 -19 1 1 -4 hvcurveto
          17 8 -7 2 -1 hhcurveto
          -20 -11 -7 -12 -16 hvcurveto
          -1 -2 -4 -1 vvcurveto
          -29 65 5 9 37 25 -3 23 36 vhcurveto
          -38 vlineto
          -58 -350 rlineto
          -3 -2 -24 -10 vvcurveto
          246 537 rmoveto
          37 33 33 45 43 -28 12 -32 -39 -26 -26 -43 hvcurveto
          -36 -3 27 -28 31 hhcurveto
          -45 63 rmoveto
          37 26 18 32 vhcurveto
          16 -3 39 -4 -11 -53 rrcurveto
          -25 -35 -19 -16 -25 -26 17 32 vhcurveto
          endchar
        </CharString>
        <CharString name="V">
          109 151 454 rmoveto
          132 -407 3 -6 15 -33 10 -8 rlinecurve
          49 25 28 90 132 575 1 1 7 86 1 36 rrcurveto
          5 vlineto
          9 -5 5 -9 vhcurveto
          -3 hlineto
          -2 hlineto
          -22 -13 16 -38 -3 -16 -5 -45 -21 -146 -3 -16 -12 -61 -75 -277 -16 -60 -7 -13 -24 -61 -7 -10 rrcurveto
          -3 -1 -6 -6 -3 hhcurveto
          -10 18 -13 30 -88 249 -20 81 rlinecurve
          -12 35 -32 174 -4 36 rrcurveto
          13 -3 0 6 -11 hhcurveto
          -5 hlineto
          -14 -8 -77 -21 -12 -10 rrcurveto
          -9 -4 -4 -7 -9 vvcurveto
          36 25 12 35 hhcurveto
          0 3 -1 3 vhcurveto
          4 hlineto
          endchar
        </CharString>
        <CharString name="W">
          492 467 463 rmoveto
          14 -9 -8 2 4 -11 rrcurveto
          8 -58 29 -170 -19 vvcurveto
          -77 15 59 -113 92 hhcurveto
          127 69 406 108 108 -38 175 -141 -25 -23 3 -33 -11 hvcurveto
          -3 6 -7 3 vhcurveto
          3 13 10 3 hhcurveto
          1 1 20 0 8 hhcurveto
          113 48 -165 -92 -102 -38 -142 -39 -95 hvcurveto
          -31 -10 -38 -103 -53 hhcurveto
          -66 -63 106 56 -5 hvcurveto
          -48 312 -1 9 -10 14 -8 5 rlinecurve
          -10 -9 -141 -435 rlineto
          -7 -3 -5 -3 -7 hhcurveto
          -27 -22 92 12 -2 hvcurveto
          -5 31 -14 156 31 3 -1 23 10 87 20 89 87 vvcurveto
          13 -3 10 -16 vhcurveto
          -3 -4 -1 -3 hhcurveto
          -19 -10 -112 -45 -20 -12 rrcurveto
          -4 -48 -9 -4 hhcurveto
          -7 -1 -4 -5 -8 vvcurveto
          -11 15 -4 9 vhcurveto
          3 hlineto
          1 0 0 1 1 hvcurveto
          3 9 26 7 3 hhcurveto
          122 56 rlineto
          24 hlineto
          -59 -4 -277 -61 vvcurveto
          -14 6 -75 3 -15 vhcurveto
          -30 6 21 -112 53 hhcurveto
          11 7 -2 13 7 hvcurveto
          60 122 26 110 37 146 rrcurveto
          endchar
        </CharString>
        <CharString name="X">
          412 120 -178 rmoveto
          34 -34 23 23 238 480 244 -228 -2 -102 199 83 rrcurveto
          -1 -12 23 1 vvcurveto
          -181 -96 -117 267 -111 91 1 5 6 19 12 31 21 55 42 107 85 213 rrcurveto
          11 -24 24 -3 -15 vhcurveto
          -85 -122 -38 -168 -53 -137 -128 80 -34 165 -48 104 rrcurveto
          -40 -150 -47 -38 33 hvcurveto
          134 58 63 -149 27 -109 125 -93 rlinecurve
          -61 -154 -105 -199 -95 -148 rrcurveto
          endchar
        </CharString>
        <CharString name="Y">
          193 65 -190 rmoveto
          330 -575 159 700 16 669 -20 7 rcurveline
          -39 -108 46 -275 -158 -37 -122 41 39 189 -12 107 -8 59 -94 -90 -54 -25 4 -51 88 85 36 8 -39 -387 214 -76 62 227 -15 -364 -150 -582 -254 492 -62 175 -21 -119 54 -70 rrcurveto
          endchar
        </CharString>
        <CharString name="Yacute">
          193 65 -190 rmoveto
          330 -575 159 700 16 669 -20 7 rcurveline
          -39 -108 46 -275 -158 -37 -122 41 39 189 -12 107 -8 59 -94 -90 -54 -25 4 -51 88 85 36 8 -39 -387 214 -76 62 227 -15 -364 -150 -582 -254 492 -62 175 -21 -119 54 -70 rrcurveto
          297 870 rmoveto
          -3 -4 3 -10 4 -1 43 11 20 28 20 32 48 75 -55 11 -38 -77 -13 -31 -16 -8 -13 -26 rrcurveto
          endchar
        </CharString>
        <CharString name="Ydieresis">
          193 65 -190 rmoveto
          330 -575 159 700 16 669 -20 7 rcurveline
          -39 -108 46 -275 -158 -37 -122 41 39 189 -12 107 -8 59 -94 -90 -54 -25 4 -51 88 85 36 8 -39 -387 214 -76 62 227 -15 -364 -150 -582 -254 492 -62 175 -21 -119 54 -70 rrcurveto
          260 890 rmoveto
          -56 -21 69 -66 16 57 rrcurveto
          12 -20 18 -9 vhcurveto
          124 hmoveto
          -56 -21 68 -66 16 57 rrcurveto
          12 -19 18 -9 vhcurveto
          endchar
        </CharString>
        <CharString name="Z">
          318 1111 -25 rmoveto
          -3 -2 13 -1 -1 hvcurveto
          -49 -36 1 -19 -66 -11 rrcurveto
          -8 -31 -34 -4 -35 hhcurveto
          -268 -308 226 -12 -103 hvcurveto
          19 19 38 30 176 142 42 27 rlinecurve
          32 40 280 238 42 vvcurveto
          19 -8 1 -15 -59 -28 -82 -32 -42 vhcurveto
          -35 -48 -59 -3 -59 hhcurveto
          -63 -38 0 38 -54 hvcurveto
          14 -23 19 18 -33 hhcurveto
          -107 vlineto
          16 4 12 9 9 15 rrcurveto
          -26 53 27 -4 48 55 53 29 57 hhcurveto
          -9 vlineto
          -85 -94 -369 -285 rlineto
          -1 -3 -13 -7 -3 hhcurveto
          -67 -24 -18 -6 -48 -46 rrcurveto
          -13 3 21 3 4 hhcurveto
          33 40 45 14 51 204 287 -216 226 hhcurveto
          84 73 27 80 60 hvcurveto
          -350 668 rmoveto
          -7 -14 -13 -5 1 vhcurveto
          -8 27 27 -8 hvcurveto
          endchar
        </CharString>
        <CharString name="Zacute">
          318 1111 -25 rmoveto
          -3 -2 13 -1 -1 hvcurveto
          -49 -36 1 -19 -66 -11 rrcurveto
          -8 -31 -34 -4 -35 hhcurveto
          -268 -308 226 -12 -103 hvcurveto
          19 19 38 30 176 142 42 27 rlinecurve
          32 40 280 238 42 vvcurveto
          19 -8 1 -15 -59 -28 -82 -32 -42 vhcurveto
          -35 -48 -59 -3 -59 hhcurveto
          -63 -38 0 38 -54 hvcurveto
          14 -23 19 18 -33 hhcurveto
          -107 vlineto
          16 4 12 9 9 15 rrcurveto
          -26 53 27 -4 48 55 53 29 57 hhcurveto
          -9 vlineto
          -85 -94 -369 -285 rlineto
          -1 -3 -13 -7 -3 hhcurveto
          -67 -24 -18 -6 -48 -46 rrcurveto
          -13 3 21 3 4 hhcurveto
          33 40 45 14 51 204 287 -216 226 hhcurveto
          84 73 27 80 60 hvcurveto
          -350 668 rmoveto
          -7 -14 -13 -5 1 vhcurveto
          -8 27 27 -8 hvcurveto
          -263 32 rmoveto
          -3 -4 3 -10 4 -1 43 11 20 28 20 32 48 75 -55 11 -38 -77 -13 -31 -16 -8 -13 -26 rrcurveto
          endchar
        </CharString>
        <CharString name="Zcaron">
          318 1111 -25 rmoveto
          -3 -2 13 -1 -1 hvcurveto
          -49 -36 1 -19 -66 -11 rrcurveto
          -8 -31 -34 -4 -35 hhcurveto
          -268 -308 226 -12 -103 hvcurveto
          19 19 38 30 176 142 42 27 rlinecurve
          32 40 280 238 42 vvcurveto
          19 -8 1 -15 -59 -28 -82 -32 -42 vhcurveto
          -35 -48 -59 -3 -59 hhcurveto
          -63 -38 0 38 -54 hvcurveto
          14 -23 19 18 -33 hhcurveto
          -107 vlineto
          16 4 12 9 9 15 rrcurveto
          -26 53 27 -4 48 55 53 29 57 hhcurveto
          -9 vlineto
          -85 -94 -369 -285 rlineto
          -1 -3 -13 -7 -3 hhcurveto
          -67 -24 -18 -6 -48 -46 rrcurveto
          -13 3 21 3 4 hhcurveto
          33 40 45 14 51 204 287 -216 226 hhcurveto
          84 73 27 80 60 hvcurveto
          -350 668 rmoveto
          -7 -14 -13 -5 1 vhcurveto
          -8 27 27 -8 hvcurveto
          -91 139 rmoveto
          -68 -164 -77 116 -54 50 rrcurveto
          -5 -27 -8 -3 -3 hvcurveto
          82 -114 111 -68 79 182 rrcurveto
          1 vlineto
          1 1 rlineto
          7 -11 4 -13 -7 -5 -1 -3 -3 vhcurveto
          endchar
        </CharString>
        <CharString name="Zdotaccent">
          318 1111 -25 rmoveto
          -3 -2 13 -1 -1 hvcurveto
          -49 -36 1 -19 -66 -11 rrcurveto
          -8 -31 -34 -4 -35 hhcurveto
          -268 -308 226 -12 -103 hvcurveto
          19 19 38 30 176 142 42 27 rlinecurve
          32 40 280 238 42 vvcurveto
          19 -8 1 -15 -59 -28 -82 -32 -42 vhcurveto
          -35 -48 -59 -3 -59 hhcurveto
          -63 -38 0 38 -54 hvcurveto
          14 -23 19 18 -33 hhcurveto
          -107 vlineto
          16 4 12 9 9 15 rrcurveto
          -26 53 27 -4 48 55 53 29 57 hhcurveto
          -9 vlineto
          -85 -94 -369 -285 rlineto
          -1 -3 -13 -7 -3 hhcurveto
          -67 -24 -18 -6 -48 -46 rrcurveto
          -13 3 21 3 4 hhcurveto
          33 40 45 14 51 204 287 -216 226 hhcurveto
          84 73 27 80 60 hvcurveto
          -350 668 rmoveto
          -7 -14 -13 -5 1 vhcurveto
          -8 27 27 -8 hvcurveto
          -259 51 rmoveto
          -9 -15 -15 -5 -3 hvcurveto
          -58 -87 132 -12 4 78 rrcurveto
          25 -7 16 -44 vhcurveto
          endchar
        </CharString>
        <CharString name="a">
          -4 62 -3 rmoveto
          49 -5 68 70 6 30 rrcurveto
          -75 7 48 -30 80 hhcurveto
          66 56 13 82 8 hvcurveto
          -5 hlineto
          -49 -39 6 -25 -65 -8 rrcurveto
          -157 36 155 89 35 hvcurveto
          -138 85 -221 -294 170 -48 rrcurveto
          -31 79 rmoveto
          30 140 115 51 27 -54 -3 -57 -69 -128 -64 -3 rrcurveto
          -34 -2 25 26 hvcurveto
          endchar
        </CharString>
        <CharString name="aacute">
          -4 62 -3 rmoveto
          39 -4 44 38 25 33 8 11 5 9 2 7 rrcurveto
          -73 7 48 -31 80 hhcurveto
          66 56 13 82 8 hvcurveto
          -5 hlineto
          -49 -39 6 -25 -65 -8 rrcurveto
          -157 36 155 89 35 hvcurveto
          -138 85 -221 -294 170 -48 rrcurveto
          -31 79 rmoveto
          30 140 115 51 27 -54 -3 -57 -69 -128 -64 -3 rrcurveto
          -34 -2 25 26 hvcurveto
          81 245 rmoveto
          -3 -3 3 -10 4 -1 43 9 20 30 20 32 47 76 -55 9 -37 -77 -16 -30 -13 -7 -13 -28 rrcurveto
          endchar
        </CharString>
        <CharString name="abreve">
          -4 62 -3 rmoveto
          49 -5 68 70 6 30 rrcurveto
          -75 7 48 -30 80 hhcurveto
          66 56 13 82 8 hvcurveto
          -5 hlineto
          -49 -39 6 -25 -65 -8 rrcurveto
          -157 36 155 89 35 hvcurveto
          -138 85 -221 -294 170 -48 rrcurveto
          -31 79 rmoveto
          30 140 115 51 27 -54 -3 -57 -69 -128 -64 -3 rrcurveto
          -34 -2 25 26 hvcurveto
          259 396 rmoveto
          -84 -132 -90 102 -25 32 rrcurveto
          -5 -27 -8 -3 -3 hvcurveto
          52 -104 128 -66 92 170 rrcurveto
          1 vlineto
          1 1 rlineto
          7 -11 4 -13 -7 -5 -1 -3 -3 vhcurveto
          endchar
        </CharString>
        <CharString name="acircumflex">
          -4 62 -3 rmoveto
          49 -5 68 70 6 30 rrcurveto
          -75 7 48 -30 80 hhcurveto
          66 56 13 82 8 hvcurveto
          -5 hlineto
          -49 -39 6 -25 -65 -8 rrcurveto
          -157 36 155 89 35 hvcurveto
          -138 85 -221 -294 170 -48 rrcurveto
          -31 79 rmoveto
          30 140 115 51 27 -54 -3 -57 -69 -128 -64 -3 rrcurveto
          -34 -2 25 26 hvcurveto
          214 227 rmoveto
          -4 2 3 -2 4 hhcurveto
          9 9 7 7 hvcurveto
          0 -1 1 1 vvcurveto
          1 vlineto
          3 -12 19 -1 2 vhcurveto
          -14 33 -35 64 46 vvcurveto
          -3 hlineto
          -3 1 1 -1 hhcurveto
          -45 -32 -68 -105 -13 -31 rrcurveto
          -4 2 3 -2 4 hhcurveto
          36 27 97 22 38 hvcurveto
          16 -24 6 -15 28 -69 8 -16 rlinecurve
          endchar
        </CharString>
        <CharString name="acute">
          -239 39 496 rmoveto
          -3 -4 3 -10 4 -1 43 11 20 28 20 32 48 75 -55 11 -38 -77 -13 -31 -16 -8 -13 -26 rrcurveto
          endchar
        </CharString>
        <CharString name="adieresis">
          -4 62 -3 rmoveto
          49 -5 68 70 6 30 rrcurveto
          -75 7 48 -30 80 hhcurveto
          66 56 13 82 8 hvcurveto
          -5 hlineto
          -49 -39 6 -25 -65 -8 rrcurveto
          -157 36 155 89 35 hvcurveto
          -138 85 -221 -294 170 -48 rrcurveto
          -31 79 rmoveto
          30 140 115 51 27 -54 -3 -57 -69 -128 -64 -3 rrcurveto
          -34 -2 25 26 hvcurveto
          82 309 rmoveto
          -56 -21 69 -66 16 57 rrcurveto
          12 -20 18 -9 vhcurveto
          124 hmoveto
          -56 -21 68 -66 16 57 rrcurveto
          12 -19 18 -9 vhcurveto
          endchar
        </CharString>
        <CharString name="ae">
          107 62 -3 rmoveto
          39 -4 44 38 25 33 8 11 5 9 2 7 1 -24 1 -20 3 -15 8 -45 19 -10 20 51 100 -132 185 145 25 91 rrcurveto
          9 -1 7 -9 4 vhcurveto
          -17 -12 18 1 -21 -18 rrcurveto
          -66 -58 -44 -40 -96 hhcurveto
          -29 -51 20 38 hvcurveto
          1 1 7 1 vvcurveto
          67 35 75 78 86 vvcurveto
          19 -11 10 -17 -43 -35 -24 -35 -25 vhcurveto
          1 vlineto
          -138 85 -221 -294 170 -48 rrcurveto
          -31 79 rmoveto
          30 140 115 51 27 -54 -3 -57 -69 -128 -64 -3 rrcurveto
          -34 -2 25 26 hvcurveto
          324 199 rmoveto
          -55 -67 -74 -47 -25 vhcurveto
          -29 68 75 83 68 3 rrcurveto
          endchar
        </CharString>
        <CharString name="agrave">
          -4 62 -3 rmoveto
          49 -5 68 70 6 30 rrcurveto
          -75 7 48 -30 80 hhcurveto
          66 56 13 82 8 hvcurveto
          -5 hlineto
          -49 -39 6 -25 -65 -8 rrcurveto
          -157 36 155 89 35 hvcurveto
          -138 85 -221 -294 170 -48 rrcurveto
          -31 79 rmoveto
          30 140 115 51 27 -54 -3 -57 -69 -128 -64 -3 rrcurveto
          -34 -2 25 26 hvcurveto
          177 272 rmoveto
          -11 24 -13 7 -13 27 -32 72 -48 -8 41 -71 20 -29 16 -28 36 -8 3 1 4 9 -3 4 rrcurveto
          endchar
        </CharString>
        <CharString name="ampersand">
          -97 276 -83 rmoveto
          10 40 -86 138 223 127 -226 35 rlinecurve
          19 21 20 32 9 29 8 35 2 57 -35 9 -28 8 -21 -26 -9 -31 -10 -37 9 -39 -9 -34 -11 -44 -62 -56 -19 -64 -20 -77 31 -48 60 -16 25 -8 52 22 22 15 rrcurveto
          -145 107 rmoveto
          1 3 8 13 14 24 15 24 11 17 7 9 8 10 8 7 9 3 32 -5 -42 -75 33 -10 9 -3 7 -1 11 8 -10 -17 4 -50 -2 -19 -4 -13 -12 -8 -13 -7 -13 -7 -25 -4 -8 3 rrcurveto
          -40 11 -23 35 15 52 rrcurveto
          139 98 rmoveto
          35 -9 24 -13 -12 -29 -12 -28 -3 -17 -3 -5 -27 12 -11 58 9 31 rrcurveto
          -24 197 rmoveto
          27 -19 2 -17 -5 -19 -4 -15 1 -10 -31 -12 -15 20 0 31 25 41 rrcurveto
          endchar
        </CharString>
        <CharString name="aring">
          -4 62 -3 rmoveto
          39 -4 44 38 25 33 8 11 5 9 2 7 rrcurveto
          -73 7 48 -31 80 hhcurveto
          66 56 13 82 8 hvcurveto
          -5 hlineto
          -49 -39 6 -25 -65 -8 rrcurveto
          -157 36 155 89 35 hvcurveto
          -11 7 -11 4 -11 2 5 3 4 4 5 5 rrcurveto
          14 15 7 19 23 vvcurveto
          41 -28 14 -32 -39 -26 -26 -44 vhcurveto
          -1 -18 5 -15 11 -13 4 -5 5 -3 5 -3 -6 -2 -6 -3 -6 -3 -112 -46 -93 -177 128 -36 rrcurveto
          -31 79 rmoveto
          30 140 115 51 27 -54 -3 -57 -69 -128 -64 -3 rrcurveto
          -34 -2 25 26 hvcurveto
          107 244 rmoveto
          37 26 18 32 vhcurveto
          16 -3 39 -3 -11 -54 rrcurveto
          -25 -35 -18 -16 -25 -26 16 32 vhcurveto
          endchar
        </CharString>
        <CharString name="asciicircum">
          -107 241 407 rmoveto
          -7 3 5 -4 7 hhcurveto
          12 11 11 12 hvcurveto
          1 -1 2 1 vvcurveto
          2 vlineto
          4 -18 30 4 vvcurveto
          -19 50 -48 105 71 vvcurveto
          1 -6 1 -3 -29 -16 -36 -22 -12 vhcurveto
          -6 -8 -36 -60 -5 -7 -11 -21 -45 -92 -11 -20 rrcurveto
          -7 3 5 -3 7 hhcurveto
          52 28 153 37 57 hvcurveto
          3 -7 16 -25 -6 vvcurveto
          11 -24 38 -113 8 -23 rrcurveto
          endchar
        </CharString>
        <CharString name="asciitilde">
          -27 109 560 rmoveto
          45 34 -52 52 hhcurveto
          55 48 16 78 33 -13 32 -29 -9 -16 0 -16 hvcurveto
          31 6 -16 -39 -58 -35 6 -38 hvcurveto
          -50 -27 44 -47 hhcurveto
          -23 9 -55 -13 3 -63 rrcurveto
          11 hlineto
          17 15 18 22 24 hhcurveto
          endchar
        </CharString>
        <CharString name="asterisk">
          -130 147 205 rmoveto
          28 -7 25 90 6 17 35 -19 13 47 rlinecurve
          -48 13 -3 21 5 38 -25 6 rlinecurve
          -14 5 -34 -53 -5 -8 -18 30 -26 19 -33 9 -13 -50 17 -4 45 -34 -2 -10 rcurveline
          -7 -24 -37 8 -8 -24 -5 -15 13 -22 16 -4 rrcurveto
          -6 19 19 30 22 hhcurveto
          endchar
        </CharString>
        <CharString name="at">
          30 52 297 rmoveto
          -23 -87 -9 -73 43 -92 22 -46 28 -28 33 -9 45 -5 45 12 43 31 4 16 4 25 -13 4 -21 3 -10 -79 -85 24 -87 24 -29 135 30 110 35 128 77 104 101 -27 80 -19 40 -98 -29 -110 rrcurveto
          -16 -57 -28 -52 -41 11 -24 8 -1 34 -3 53 -1 53 -7 45 -33 11 -49 12 -41 -28 -19 -65 -3 -13 0 -16 2 -21 2 -20 4 -14 5 -8 6 -8 9 -5 11 -3 16 -4 8 -5 15 9 rrcurveto
          15 9 15 9 5 -3 9 -2 24 -55 27 -8 63 -13 45 74 19 74 17 64 -10 49 -15 47 -15 47 -38 36 -47 12 -49 13 -53 -3 -49 -36 -48 -36 -31 -65 -20 -73 rrcurveto
          90 -54 rmoveto
          11 44 29 35 35 -9 23 -5 -15 -37 -5 -24 -11 -36 -19 -33 -28 7 -27 8 -2 19 9 31 rrcurveto
          endchar
        </CharString>
        <CharString name="atilde">
          -4 62 -3 rmoveto
          49 -5 68 70 6 30 rrcurveto
          -75 7 48 -30 80 hhcurveto
          66 56 13 82 8 hvcurveto
          -5 hlineto
          -49 -39 6 -25 -65 -8 rrcurveto
          -157 36 155 89 35 hvcurveto
          -138 85 -221 -294 170 -48 rrcurveto
          -31 79 rmoveto
          30 140 115 51 27 -54 -3 -57 -69 -128 -64 -3 rrcurveto
          -34 -2 25 26 hvcurveto
          80 281 rmoveto
          45 34 -52 52 hhcurveto
          55 48 16 78 33 -13 32 -29 -9 -16 0 -16 hvcurveto
          31 6 -16 -39 -58 -35 6 -38 hvcurveto
          -50 -27 44 -47 hhcurveto
          -23 9 -55 -13 3 -63 rrcurveto
          11 hlineto
          17 15 18 22 24 hhcurveto
          endchar
        </CharString>
        <CharString name="b">
          -135 13 192 rmoveto
          -21 -86 11 -106 74 8 rrcurveto
          42 30 50 36 11 hvcurveto
          7 17 24 56 2 17 rrcurveto
          14 59 9 13 hhcurveto
          39 39 -22 -10 -27 hhcurveto
          -40 -3 -30 4 -43 -1 16 -35 -31 -133 -57 -8 -45 -5 -19 4 29 188 100 100 181 287 -181 24 rrcurveto
          -57 -43 -52 -400 -36 hvcurveto
          144 416 rmoveto
          40 1 -25 -30 -60 -93 -171 -51 -27 hvcurveto
          -4 57 41 237 66 19 rrcurveto
          endchar
        </CharString>
        <CharString name="backslash">
          -60 316 hmoveto
          13 8 7 15 15 vvcurveto
          38 -23 -6 -16 24 vhcurveto
          -236 322 -6 6 -15 18 -8 5 rlinecurve
          -4 hlineto
          -11 -4 -10 -9 hvcurveto
          -10 vlineto
          11 -8 38 -47 9 -12 37 -49 166 -238 33 -53 rrcurveto
          endchar
        </CharString>
        <CharString name="bar">
          -311 33 737 rmoveto
          -8 -245 -3 -240 -245 vvcurveto
          12 15 2 11 12 hvcurveto
          -4 197 15 197 200 18 -1 87 18 vvcurveto
          8 -4 -3 1 -7 hhcurveto
          -11 -4 -2 -7 -9 hvcurveto
          endchar
        </CharString>
        <CharString name="braceleft">
          -149 22 25 rmoveto
          -48 18 -90 69 vhcurveto
          132 hlineto
          3 38 38 18 16 hvcurveto
          3 3 5 12 1 3 rrcurveto
          1 1 4 1 vvcurveto
          -1 0 0 1 hvcurveto
          1 vlineto
          2 vlineto
          -42 -47 -6 -6 -61 hhcurveto
          -77 -46 25 84 hvcurveto
          121 124 48 97 vvcurveto
          44 -23 11 -33 25 vhcurveto
          16 24 21 30 31 73 -96 21 90 6 1 32 5 vvcurveto
          32 23 32 16 39 27 15 -13 28 hhcurveto
          35 -45 6 -24 -67 -76 -44 -75 vhcurveto
          -95 96 -32 -72 -50 -78 -8 -36 -24 98 29 -65 -82 -126 -55 -132 vvcurveto
          endchar
        </CharString>
        <CharString name="braceright">
          -46 50 -24 rmoveto
          -63 33 -45 63 106 85 130 96 vhcurveto
          162 -144 2 71 vvcurveto
          43 19 -10 19 35 vhcurveto
          2 3 2 5 1 7 2 9 rcurveline
          -69 hlineto
          -3 8 -2 5 0 6 1 5 rlinecurve
          30 73 84 29 93 vvcurveto
          92 -45 52 -97 -35 -92 -46 -39 vhcurveto
          14 hlineto
          12 12 57 30 16 5 rrcurveto
          1 19 1 8 68 37 -44 -71 -63 -78 -74 -36 -33 vhcurveto
          -8 -15 -2 -9 -13 vvcurveto
          -32 34 0 5 -16 vhcurveto
          -2 -10 -24 -2 vvcurveto
          -24 vlineto
          -99 144 -11 -109 vvcurveto
          -76 -46 -126 -94 -59 1 70 25 -41 vhcurveto
          -3 -1 -18 -3 vvcurveto
          endchar
        </CharString>
        <CharString name="bracketleft">
          214 71 20 rmoveto
          -13 3 12 2 8 hhcurveto
          33 47 29 9 29 hvcurveto
          13 59 24 -3 68 79 76 -19 77 hhcurveto
          22 -4 39 8 hvcurveto
          -382 hlineto
          -41 -35 -27 -41 hhcurveto
          48 4 215 48 vvcurveto
          -3 65 -17 73 65 3 1 8 3 vvcurveto
          28 -5 134 -20 26 -3 rrcurveto
          3 37 -2 14 hhcurveto
          62 96 -20 80 hvcurveto
          -24 -44 -17 -3 -11 hvcurveto
          -13 -71 -4 -16 -101 -74 42 -90 -1 0 -1 -1 hhcurveto
          -2 hlineto
          -5 -4 -13 -12 -3 -4 18 -30 -3 vvcurveto
          19 -57 rlineto
          16 -57 4 -58 -57 -8 -1 -25 -4 -42 -9 -207 -42 vvcurveto
          endchar
        </CharString>
        <CharString name="bracketright">
          34 53 68 rmoveto
          -40 27 -16 43 -3 vhcurveto
          274 -9 rlineto
          17 -1 3 18 11 vvcurveto
          16 -5 15 -5 17 vhcurveto
          -66 520 -68 -5 -72 4 -69 11 rlinecurve
          6 -56 -4 13 -40 hhcurveto
          -8 -11 1 -12 -4 hvcurveto
          20 -18 2 -4 58 -12 24 -3 rlinecurve
          29 -5 133 -11 27 -3 11 -11 3 -13 -5 -14 58 -435 rcurveline
          -3 1 -9 -3 vvcurveto
          -5 1 -18 -12 vhcurveto
          -236 hlineto
          -26 -16 21 -28 hhcurveto
          endchar
        </CharString>
        <CharString name="breve">
          -107 239 615 rmoveto
          -84 -132 -90 102 -25 32 rrcurveto
          -5 -27 -8 -3 -3 hvcurveto
          52 -104 128 -66 92 170 rrcurveto
          1 vlineto
          1 1 rlineto
          7 -11 4 -13 -7 -5 -1 -3 -3 vhcurveto
          endchar
        </CharString>
        <CharString name="brokenbar">
          -307 34 366 rmoveto
          -3 -135 0 -131 -133 vvcurveto
          12 16 2 9 11 hvcurveto
          -3 131 7 128 3 131 rrcurveto
          -3 67 rmoveto
          1 35 1 26 28 vvcurveto
          114 vlineto
          24 -1 27 23 vvcurveto
          25 vlineto
          8 -4 -3 1 -7 hhcurveto
          -11 -5 -2 -7 -8 hvcurveto
          -5 -109 -6 -88 -3 -109 rrcurveto
          endchar
        </CharString>
        <CharString name="bullet">
          -217 98 269 rmoveto
          -11 -13 -14 -5 -3 hvcurveto
          -61 -85 135 -17 4 81 rrcurveto
          24 -8 16 -43 vhcurveto
          endchar
        </CharString>
        <CharString name="c">
          -71 344 70 rmoveto
          33 83 -308 -193 -32 107 rrcurveto
          112 136 110 50 -108 vhcurveto
          3 3 12 11 3 4 rrcurveto
          3 vlineto
          -142 243 -355 -646 600 271 rrcurveto
          endchar
        </CharString>
        <CharString name="cacute">
          -71 344 70 rmoveto
          33 83 -308 -193 -32 107 rrcurveto
          112 136 110 50 -108 vhcurveto
          3 3 12 11 3 4 rrcurveto
          3 vlineto
          -142 243 -355 -646 600 271 rrcurveto
          -264 244 rmoveto
          -3 -4 3 -10 4 -1 43 11 20 28 20 32 48 75 -55 11 -38 -77 -13 -31 -16 -8 -13 -26 rrcurveto
          endchar
        </CharString>
        <CharString name="caron">
          -107 239 615 rmoveto
          -68 -164 -77 116 -54 50 rrcurveto
          -5 -27 -8 -3 -3 hvcurveto
          82 -114 111 -68 79 182 rrcurveto
          1 vlineto
          1 1 rlineto
          7 -11 4 -13 -7 -5 -1 -3 -3 vhcurveto
          endchar
        </CharString>
        <CharString name="ccaron">
          -71 344 70 rmoveto
          33 83 -308 -193 -32 107 rrcurveto
          112 136 110 50 -108 vhcurveto
          3 3 12 11 3 4 rrcurveto
          3 vlineto
          -142 243 -355 -646 600 271 rrcurveto
          -101 374 rmoveto
          -68 -164 -77 116 -54 50 rrcurveto
          -5 -27 -8 -3 -3 hvcurveto
          82 -114 111 -68 79 182 rrcurveto
          1 vlineto
          1 1 rlineto
          7 -11 4 -13 -7 -5 -1 -3 -3 vhcurveto
          endchar
        </CharString>
        <CharString name="ccedilla">
          -71 103 -198 rmoveto
          -23 10 -21 21 -11 vhcurveto
          32 hlineto
          59 83 39 70 63 -46 36 -60 hvcurveto
          -20 -18 -5 -19 hhcurveto
          -7 hlineto
          -3 -1 1 3 hvcurveto
          4 21 0 16 -4 10 -1 3 rcurveline
          9 1 10 1 9 2 47 8 61 21 75 33 33 83 -308 -193 -32 107 rrcurveto
          112 136 110 50 -108 vhcurveto
          3 3 12 11 3 4 rrcurveto
          3 vlineto
          -105 182 -229 -317 148 -56 rrcurveto
          -5 13 17 -3 20 hhcurveto
          -1 -7 1 -9 3 -11 rrcurveto
          2 -6 8 -42 -6 vvcurveto
          11 hlineto
          23 19 10 23 hhcurveto
          52 36 -22 -55 -59 -75 -27 -47 -16 -22 14 20 2 0 1 1 1 hvcurveto
          26 27 rlineto
          1 1 0 0 1 vvcurveto
          1 vlineto
          7 -7 1 -7 -25 -8 -23 -20 vhcurveto
          endchar
        </CharString>
        <CharString name="cedilla">
          -17 99 -198 rmoveto
          -23 10 -21 21 -11 vhcurveto
          32 hlineto
          59 83 39 70 63 -45 36 -60 hvcurveto
          -20 -18 -5 -20 hhcurveto
          -7 hlineto
          -3 -1 1 3 hvcurveto
          18 82 -58 4 14 -64 rrcurveto
          2 -7 8 -41 -6 vvcurveto
          11 hlineto
          23 20 10 23 hhcurveto
          51 36 -22 -55 -59 -73 -27 -48 -17 -21 14 20 2 0 1 1 1 hvcurveto
          26 27 rlineto
          1 1 0 0 1 vvcurveto
          1 vlineto
          7 -7 1 -8 -25 -8 -23 -20 vhcurveto
          endchar
        </CharString>
        <CharString name="cent">
          -71 143 307 rmoveto
          -1 -20 -1 -14 -17 vvcurveto
          -120 -24 -111 -259 235 32 rrcurveto
          -59 vlineto
          13 15 1 11 11 hvcurveto
          30 vlineto
          24 vlineto
          43 11 52 18 65 29 16 47 -88 -41 -89 -27 rrcurveto
          -1 7 0 5 3 vvcurveto
          158 vlineto
          17 -5 13 -14 11 -22 3 3 12 11 3 4 rrcurveto
          3 vlineto
          -16 31 -23 16 -21 7 rrcurveto
          51 vlineto
          8 -4 -4 1 -7 hhcurveto
          -9 -6 -4 -5 -8 hvcurveto
          -106 -240 rmoveto
          71 50 66 53 17 vhcurveto
          -3 -102 4 16 3 -95 -52 -11 -43 2 -12 36 rrcurveto
          endchar
        </CharString>
        <CharString name="circumflex">
          -113 216 464 rmoveto
          -4 2 3 -2 4 hhcurveto
          9 9 7 7 hvcurveto
          0 -1 1 1 vvcurveto
          1 vlineto
          3 -12 19 -1 2 vhcurveto
          -14 33 -35 64 46 vvcurveto
          -3 hlineto
          -3 1 1 -1 hhcurveto
          -45 -32 -68 -105 -13 -31 rrcurveto
          -4 2 3 -2 4 hhcurveto
          36 27 97 22 38 hvcurveto
          16 -24 6 -15 28 -69 8 -16 rlinecurve
          endchar
        </CharString>
        <CharString name="colon">
          -281 32 89 rmoveto
          -1 0 0 1 -1 vhcurveto
          -7 1 11 -16 1 hhcurveto
          17 -7 15 13 4 13 4 13 -11 9 -13 4 -12 3 -14 -8 -3 -12 rrcurveto
          53 156 rmoveto
          -3 1 -7 -5 -1 -1 -31 -31 44 -18 13 33 3 11 -1 6 -17 4 rrcurveto
          endchar
        </CharString>
        <CharString name="comma">
          -243 87 -64 rmoveto
          -3 -8 -1 -6 9 -5 33 14 12 41 8 30 8 26 -2 59 -30 8 -11 3 -10 0 -4 -11 -5 -24 30 -30 -6 -25 rrcurveto
          -10 -22 -44 -3 -8 vhcurveto
          endchar
        </CharString>
        <CharString name="copyright">
          118 226 -1 rmoveto
          -106 -103 91 108 11 hvcurveto
          135 97 84 139 110 109 -71 -102 -140 -117 -105 -140 vhcurveto
          -182 197 rmoveto
          -102 108 -71 88 60 147 91 79 5 vhcurveto
          -585 -335 274 687 184 -244 rrcurveto
          -3 vlineto
          -1 -2 -3 -3 -5 -5 -9 -9 rcurveline
          -49 109 -137 -110 -113 vvcurveto
          36 -73 248 123 51 4 19 146 -156 13 -53 8 rrcurveto
          -116 -106 -70 -120 hvcurveto
          endchar
        </CharString>
        <CharString name="currency">
          74 113 50 rmoveto
          18 18 2 9 18 21 11 13 9 11 5 10 -4 8 30 -32 28 6 rrcurveto
          44 37 20 32 28 hvcurveto
          11 -17 10 -10 12 -23 32 -69 47 9 -40 67 -17 25 -14 24 -27 12 rrcurveto
          21 28 11 38 43 vvcurveto
          33 -7 24 -13 21 vhcurveto
          23 9 13 20 16 19 40 63 -48 7 -34 -63 -9 -17 -8 -9 -11 -9 rrcurveto
          21 -24 -34 7 -36 hhcurveto
          -39 -28 -20 -17 -29 hvcurveto
          -12 9 -18 5 -9 17 -38 52 -54 -5 47 -52 16 -20 18 -21 29 -11 -19 -27 -5 -36 -1 -33 -5 -60 32 -34 11 -16 -19 -21 -30 -47 2 -32 1 -1 9 0 1 1 rrcurveto
          20 208 rmoveto
          87 55 40 72 vhcurveto
          32 -5 88 -10 -24 -124 rrcurveto
          -56 -74 -42 -38 -53 -58 35 75 vhcurveto
          endchar
        </CharString>
        <CharString name="d">
          11 3 78 rmoveto
          -42 3 -42 51 77 58 74 48 46 vhcurveto
          -57 23 9 -37 59 hhcurveto
          41 52 19 37 24 hvcurveto
          -1 -8 1 -1 -38 -28 -30 -38 hhcurveto
          -51 -7 67 40 hvcurveto
          98 88 82 103 vvcurveto
          23 3 52 -34 -17 1 -8 -21 -12 vhcurveto
          -38 -70 -8 -60 -19 -87 rrcurveto
          -105 -76 -8 -182 -54 hvcurveto
          36 -9 rmoveto
          74 68 88 77 33 12 -15 -33 -58 -112 -103 -50 -22 -6 27 20 vhcurveto
          294 397 rmoveto
          -4 1 -20 -5 -5 -1 -21 -1 vvcurveto
          -11 -39 -31 -96 -7 -7 -9 -9 rcurveline
          1 -1 5 3 vvcurveto
          49 22 98 37 51 vhcurveto
          endchar
        </CharString>
        <CharString name="dagger">
          -154 73 322 rmoveto
          29 -245 -12 -106 40 27 22 13 -59 282 10 26 rrcurveto
          48 -8 78 -8 66 vvcurveto
          -33 -3 -63 -34 -31 17 rrcurveto
          5 vlineto
          3 196 rlineto
          3 1 5 3 vvcurveto
          8 1 6 -12 4 vhcurveto
          -18 -19 -3 -187 rlineto
          -14 -49 -72 46 -50 vvcurveto
          -3 -16 53 7 7 5 rrcurveto
          endchar
        </CharString>
        <CharString name="daggerdbl">
          -154 73 322 rmoveto
          3 -21 3 -60 3 -19 -91 3 -41 -52 135 19 16 -183 -3 -33 32 22 16 9 -21 92 -13 94 156 19 -7 36 -153 -16 rrcurveto
          -3 25 -2 56 6 vvcurveto
          59 3 87 4 -20 43 -30 -3 -66 -14 -31 -3 rrcurveto
          -1 0 5 3 197 vhcurveto
          3 1 5 3 vvcurveto
          9 2 4 -31 -14 vhcurveto
          -3 -187 rlineto
          -14 -49 -72 46 -50 vvcurveto
          -3 -16 53 7 7 5 rrcurveto
          endchar
        </CharString>
        <CharString name="degree">
          -270 67 301 rmoveto
          32 23 17 28 28 -21 11 -25 -33 -21 -16 -28 hvcurveto
          -23 -1 22 -17 24 hhcurveto
          -33 38 rmoveto
          24 16 11 27 vhcurveto
          12 -2 26 0 -6 -34 rrcurveto
          -17 -24 -9 -13 -21 -17 6 21 vhcurveto
          endchar
        </CharString>
        <CharString name="dieresis">
          -102 78 601 rmoveto
          -56 -21 69 -66 16 57 rrcurveto
          12 -20 18 -9 vhcurveto
          124 hmoveto
          -56 -21 68 -66 16 57 rrcurveto
          12 -19 18 -9 vhcurveto
          endchar
        </CharString>
        <CharString name="divide">
          100 68 251 rmoveto
          387 hlineto
          7 4 22 7 hvcurveto
          -53 hlineto
          -23 -22 -1 -8 hhcurveto
          -42 -207 -6 -4 -43 hvcurveto
          159 -116 rmoveto
          -7 5 5 -10 3 hhcurveto
          33 19 17 21 16 -21 8 -24 -10 -28 -30 -15 18 hvcurveto
          15 261 rmoveto
          -5 -9 -8 -4 -3 hvcurveto
          -38 -49 84 -6 3 44 rrcurveto
          13 -3 10 -29 vhcurveto
          endchar
        </CharString>
        <CharString name="dollar">
          -104 96 -148 rmoveto
          5 -1 4 -1 5 1 rrcurveto
          5 8 2 7 3 hvcurveto
          35 133 49 24 32 35 23 65 rlinecurve
          24 66 -61 95 3 6 5 23 36 4 7 33 rrcurveto
          11 43 -26 13 33 vvcurveto
          -3 10 10 69 6 vvcurveto
          12 -4 2 -4 1 vhcurveto
          -1 -1 1 -1 hhcurveto
          -1 hlineto
          -18 -13 -8 -40 -17 vvcurveto
          -41 -3 -40 -23 -15 -60 -15 -52 38 -43 25 -25 8 -56 -30 -88 -18 -58 -29 -29 -94 44 19 65 13 48 49 29 9 37 2 8 -1 6 -4 3 -21 -4 -23 -23 -11 -25 -9 -24 -20 -34 -5 -25 rrcurveto
          -27 -67 93 -60 37 -17 7 -3 -18 -44 -16 -89 rrcurveto
          116 369 rmoveto
          29 -6 -9 -65 -3 -27 -8 -21 -16 -57 -25 5 -3 3 rcurveline
          9 59 13 53 13 56 rrcurveto
          -44 150 rmoveto
          8 21 17 30 18 -5 rrcurveto
          4 13 -5 -12 -4 hvcurveto
          -24 -90 -13 8 -24 29 5 24 rlinecurve
          79 2 rmoveto
          8 -5 -4 -18 -4 -11 -9 3 rcurveline
          endchar
        </CharString>
        <CharString name="dotaccent">
          -242 80 614 rmoveto
          -9 -15 -15 -5 -3 hvcurveto
          -58 -87 132 -12 4 78 rrcurveto
          25 -7 16 -44 vhcurveto
          endchar
        </CharString>
        <CharString name="e">
          -79 105 vmoveto
          84 -241 229 176 32 103 rrcurveto
          7 -1 8 -9 4 vhcurveto
          -18 -13 15 4 -17 -20 rrcurveto
          -66 -60 -41 -39 -97 hhcurveto
          -32 -48 18 39 hvcurveto
          1 1 7 1 vvcurveto
          44 44 98 78 78 vvcurveto
          17 -12 11 -17 -95 -64 -127 -90 8 vhcurveto
          153 180 rmoveto
          -53 -72 -77 -43 -24 vhcurveto
          -1 3 -1 14 3 vvcurveto
          53 57 81 60 vhcurveto
          endchar
        </CharString>
        <CharString name="eacute">
          -79 105 vmoveto
          84 -241 229 176 32 103 rrcurveto
          7 -1 8 -9 4 vhcurveto
          -18 -13 15 4 -17 -20 rrcurveto
          -66 -60 -41 -39 -97 hhcurveto
          -32 -48 18 39 hvcurveto
          1 1 7 1 vvcurveto
          44 44 98 78 78 vvcurveto
          17 -12 11 -17 -95 -64 -127 -90 8 vhcurveto
          153 180 rmoveto
          -53 -72 -77 -43 -24 vhcurveto
          -1 3 -1 14 3 vvcurveto
          53 57 81 60 vhcurveto
          -72 93 rmoveto
          -3 -4 3 -10 4 -1 43 11 20 28 20 32 48 75 -55 11 -38 -77 -13 -31 -16 -8 -13 -26 rrcurveto
          endchar
        </CharString>
        <CharString name="ecaron">
          -79 105 vmoveto
          84 -241 229 176 32 103 rrcurveto
          7 -1 8 -9 4 vhcurveto
          -18 -13 15 4 -17 -20 rrcurveto
          -66 -60 -41 -39 -97 hhcurveto
          -32 -48 18 39 hvcurveto
          1 1 7 1 vvcurveto
          44 44 98 78 78 vvcurveto
          17 -12 11 -17 -95 -64 -127 -90 8 vhcurveto
          153 180 rmoveto
          -53 -72 -77 -43 -24 vhcurveto
          -1 3 -1 14 3 vvcurveto
          53 57 81 60 vhcurveto
          67 239 rmoveto
          -68 -164 -77 116 -54 50 rrcurveto
          -5 -27 -8 -3 -3 hvcurveto
          82 -114 111 -68 79 182 rrcurveto
          1 vlineto
          1 1 rlineto
          7 -11 4 -13 -7 -5 -1 -3 -3 vhcurveto
          endchar
        </CharString>
        <CharString name="ecircumflex">
          -79 105 vmoveto
          84 -241 229 176 32 103 rrcurveto
          7 -1 8 -9 4 vhcurveto
          -18 -13 15 4 -17 -20 rrcurveto
          -66 -60 -41 -39 -97 hhcurveto
          -32 -48 18 39 hvcurveto
          1 1 7 1 vvcurveto
          44 44 98 78 78 vvcurveto
          17 -12 11 -17 -95 -64 -127 -90 8 vhcurveto
          153 180 rmoveto
          -53 -72 -77 -43 -24 vhcurveto
          -1 3 -1 14 3 vvcurveto
          53 57 81 60 vhcurveto
          49 88 rmoveto
          -4 2 3 -2 4 hhcurveto
          9 9 7 7 hvcurveto
          0 -1 1 1 vvcurveto
          1 vlineto
          3 -12 19 -1 2 vhcurveto
          -14 33 -35 64 46 vvcurveto
          -3 hlineto
          -3 1 1 -1 hhcurveto
          -45 -32 -68 -105 -13 -31 rrcurveto
          -4 2 3 -2 4 hhcurveto
          36 27 97 22 38 hvcurveto
          16 -24 6 -15 28 -69 8 -16 rlinecurve
          endchar
        </CharString>
        <CharString name="edieresis">
          -79 105 vmoveto
          84 -241 229 176 32 103 rrcurveto
          7 -1 8 -9 4 vhcurveto
          -18 -13 15 4 -17 -20 rrcurveto
          -66 -60 -41 -39 -97 hhcurveto
          -32 -48 18 39 hvcurveto
          1 1 7 1 vvcurveto
          44 44 98 78 78 vvcurveto
          17 -12 11 -17 -95 -64 -127 -90 8 vhcurveto
          153 180 rmoveto
          -53 -72 -77 -43 -24 vhcurveto
          -1 3 -1 14 3 vvcurveto
          53 57 81 60 vhcurveto
          -84 158 rmoveto
          -56 -21 69 -66 16 57 rrcurveto
          12 -20 18 -9 vhcurveto
          124 hmoveto
          -56 -21 68 -66 16 57 rrcurveto
          12 -19 18 -9 vhcurveto
          endchar
        </CharString>
        <CharString name="egrave">
          -79 105 vmoveto
          84 -241 229 176 32 103 rrcurveto
          7 -1 8 -9 4 vhcurveto
          -18 -13 15 4 -17 -20 rrcurveto
          -66 -60 -41 -39 -97 hhcurveto
          -32 -48 18 39 hvcurveto
          1 1 7 1 vvcurveto
          44 44 98 78 78 vvcurveto
          17 -12 11 -17 -95 -64 -127 -90 8 vhcurveto
          153 180 rmoveto
          -53 -72 -77 -43 -24 vhcurveto
          -1 3 -1 14 3 vvcurveto
          53 57 81 60 vhcurveto
          -24 143 rmoveto
          -11 24 -13 7 -13 27 -32 72 -48 -8 41 -71 20 -29 16 -28 36 -8 3 1 4 9 -3 4 rrcurveto
          endchar
        </CharString>
        <CharString name="eight">
          -71 35 188 rmoveto
          -32 -123 11 -67 69 -20 61 -16 57 75 29 118 24 85 -15 77 -34 47 5 12 rcurveline
          8 20 76 100 13 18 12 17 -1 1 7 23 3 7 6 20 -8 3 -18 5 -7 -35 -13 -11 -15 39 -28 13 -27 7 -40 11 -39 -41 -21 -80 -19 -69 29 -16 8 -52 -40 -51 -40 -36 -21 -81 rrcurveto
          28 -23 rmoveto
          21 77 33 40 50 42 42 -25 6 -72 -18 -79 -15 -48 -23 -49 -29 -21 rrcurveto
          -6 -18 3 3 -5 hvcurveto
          -47 11 -15 29 24 89 rrcurveto
          88 328 rmoveto
          9 40 24 29 21 -8 rrcurveto
          9 49 -20 -32 -7 hvcurveto
          -11 -33 -51 -66 -20 6 -27 7 -9 30 13 47 rrcurveto
          endchar
        </CharString>
        <CharString name="ellipsis">
          -34 78 68 rmoveto
          -56 -19 69 -71 16 61 rrcurveto
          11 -20 18 -9 vhcurveto
          124 hmoveto
          -56 -19 68 -71 16 61 rrcurveto
          11 -19 18 -9 vhcurveto
          123 hmoveto
          -55 -18 65 -72 19 61 rrcurveto
          11 -18 18 -11 vhcurveto
          endchar
        </CharString>
        <CharString name="emdash">
          230 49 241 rmoveto
          -4 -1 -15 11 1 vhcurveto
          496 15 rlineto
          19 1 2 6 12 vvcurveto
          11 -3 8 -11 vhcurveto
          -7 hlineto
          -28 -4 -410 -8 -30 -4 rrcurveto
          -18 -20 7 -26 hvcurveto
          endchar
        </CharString>
        <CharString name="endash">
          28 49 241 rmoveto
          -4 -1 -15 11 1 vhcurveto
          323 8 rlineto
          17 1 3 6 12 vvcurveto
          9 -3 10 -11 vhcurveto
          -6 hlineto
          -28 -4 -238 -1 -29 -4 rrcurveto
          -18 -20 7 -26 hvcurveto
          endchar
        </CharString>
        <CharString name="equal">
          -185 65 99 rmoveto
          -4 -13 4 -7 11 -3 20 -7 72 -15 18 21 -16 19 -28 5 -21 5 -6 2 -33 6 -3 3 -9 -1 -2 -7 -3 -8 rrcurveto
          -4 132 rmoveto
          -3 -9 16 -17 8 -3 101 -27 rcurveline
          11 6 -6 33 -77 22 -25 3 rlinecurve
          -11 4 -10 3 -4 -15 rrcurveto
          endchar
        </CharString>
        <CharString name="eth">
          -113 135 316 rmoveto
          -4 -4 5 -10 3 -1 21 5 14 9 13 13 51 -60 rcurveline
          -105 -76 -8 -182 -54 hvcurveto
          -42 3 -42 51 77 58 74 48 46 vhcurveto
          67 86 -39 100 -47 65 1 3 -1 0 3 3 42 66 -41 17 -34 -55 -47 45 -41 11 21 -51 41 -50 rcurveline
          -9 -13 -10 -10 -9 -17 rrcurveto
          -96 -247 rmoveto
          74 68 88 77 33 12 -15 -33 -58 -112 -103 -50 -22 -6 27 20 vhcurveto
          endchar
        </CharString>
        <CharString name="exclam">
          -292 70 13 rmoveto
          -9 5 -5 10 20 -2 32 9 vhcurveto
          -15 -18 -10 -17 hvcurveto
          -28 176 rmoveto
          -7 3 5 -3 7 hhcurveto
          13 1 12 11 hvcurveto
          16 vlineto
          -4 92 9 279 -47 -47 rrcurveto
          -8 2 -41 -7 vvcurveto
          4 -36 -1 -228 8 -33 rrcurveto
          endchar
        </CharString>
        <CharString name="exclamdown">
          -292 75 408 rmoveto
          -12 19 -7 13 vhcurveto
          5 3 25 -20 -10 -5 -4 -7 vhcurveto
          -27 -129 rmoveto
          -8 -24 1 -169 -4 -26 rrcurveto
          -4 -2 -32 -5 vvcurveto
          46 -34 -9 204 4 68 rrcurveto
          12 vlineto
          8 -1 9 -12 -7 -5 -2 -5 -3 vhcurveto
          endchar
        </CharString>
        <CharString name="f">
          -81 -32 -239 rmoveto
          -35 1 -110 53 74 44 188 56 vhcurveto
          -1 37 -17 32 36 vvcurveto
          55 4 185 53 70 vvcurveto
          -24 4 -15 -16 -23 hvcurveto
          -37 -55 -54 -21 -65 hhcurveto
          -33 -39 8 40 -9 hvcurveto
          73 52 127 272 -116 -11 -143 -351 rcurveline
          -32 -118 -5 -48 -86 vvcurveto
          28 11 rmoveto
          52 10 138 38 24 vhcurveto
          59 -26 9 -38 -64 vvcurveto
          -29 -41 -176 -40 -35 0 96 23 vhcurveto
          96 375 rmoveto
          56 151 10 9 rlineto
          -3 1 -9 -3 vvcurveto
          -51 -34 -66 -33 -38 vhcurveto
          endchar
        </CharString>
        <CharString name="fi">
          127 337 214 rmoveto
          -5 -51 -3 -41 1 -29 rrcurveto
          1 -8 0 -7 -7 vvcurveto
          -3 -3 -4 -4 -5 -3 rrcurveto
          -37 -55 -54 -21 -65 hhcurveto
          -33 -39 8 40 -9 hvcurveto
          73 52 127 272 -116 -11 -143 -351 rcurveline
          -32 -118 -5 -48 -86 vvcurveto
          -35 1 -110 53 74 44 188 56 vhcurveto
          -1 37 -17 32 36 vvcurveto
          35 3 98 24 56 37 9 5 8 6 7 5 4 -19 rcurveline
          11 -29 18 -4 17 -7 98 -34 223 159 -273 -107 rrcurveto
          -41 -24 26 30 -8 hvcurveto
          -3 14 rlineto
          3 6 2 6 6 vvcurveto
          -6 1 hlineto
          63 14 55 24 59 vhcurveto
          17 3 -10 4 -12 hhcurveto
          -20 -16 -74 -3 -2 hvcurveto
          -341 -442 rmoveto
          52 10 138 38 24 vhcurveto
          59 -26 9 -38 -64 vvcurveto
          -29 -41 -176 -40 -35 0 96 23 vhcurveto
          96 375 rmoveto
          56 151 10 9 rlineto
          -3 1 -9 -3 vvcurveto
          -51 -34 -66 -33 -38 vhcurveto
          350 296 rmoveto
          -93 4 93 -98 94 vvcurveto
          endchar
        </CharString>
        <CharString name="five">
          -58 15 118 rmoveto
          -13 -49 0 -50 21 -29 40 -11 rcurveline
          73 -22 124 58 42 151 36 133 -34 96 -75 17 -25 8 -27 -8 -24 7 rrcurveto
          -5 -10 3 13 4 hvcurveto
          22 81 10 10 27 -3 rlineto
          15 16 -1 -3 11 hvcurveto
          13 64 -24 45 13 hvcurveto
          4 17 -8 4 -7 1 rrcurveto
          -4 -5 2 -3 hhcurveto
          -56 4 -63 3 -53 1 -20 -17 0 -40 5 -25 -4 -18 -10 -86 -6 -17 14 -4 rcurveline
          29 -7 31 18 28 -8 66 -17 28 -65 -29 -114 -37 -124 -103 -38 -63 16 -21 5 -14 39 10 42 1 3 1 6 1 1 48 49 rcurveline
          1 1 0 1 3 vvcurveto
          5 17 -8 4 -7 4 -34 5 -24 -42 -11 -46 rrcurveto
          endchar
        </CharString>
        <CharString name="fl">
          153 328 68 rmoveto
          -3 -2 -3 -2 -3 -3 rrcurveto
          -37 -55 -54 -21 -65 hhcurveto
          -33 -39 8 40 -9 hvcurveto
          73 52 127 272 -116 -11 -143 -351 rcurveline
          -32 -118 -5 -48 -86 vvcurveto
          -35 1 -110 53 74 44 188 56 vhcurveto
          -1 37 -17 32 36 vvcurveto
          35 3 98 24 56 37 9 5 9 6 7 6 5 -12 rcurveline
          -46 24 36 -36 61 hhcurveto
          48 72 28 58 hvcurveto
          -11 hlineto
          -45 -17 -44 -13 -44 hhcurveto
          -35 -26 11 22 -17 hvcurveto
          -16 21 -9 24 -1 29 rrcurveto
          7 vlineto
          63 40 11 34 55 vhcurveto
          39 63 37 108 76 vvcurveto
          6 -1 54 -21 vhcurveto
          -52 -20 -105 -271 -8 -154 rrcurveto
          -329 -313 rmoveto
          52 10 138 38 24 vhcurveto
          59 -26 9 -38 -64 vvcurveto
          -29 -41 -176 -40 -35 0 96 23 vhcurveto
          490 691 rmoveto
          -1 -72 -54 -162 -59 -39 rrcurveto
          15 48 127 18 47 vhcurveto
          5 12 34 63 9 9 rrcurveto
          -394 -316 rmoveto
          56 151 10 9 rlineto
          -3 1 -9 -3 vvcurveto
          -51 -34 -66 -33 -38 vhcurveto
          endchar
        </CharString>
        <CharString name="florin">
          -137 59 207 rmoveto
          -8 3 -40 9 -17 vvcurveto
          -42 59 36 13 -42 vhcurveto
          47 -305 -135 13 61 -53 107 10 rlinecurve
          3 -18 173 1 vvcurveto
          -40 176 rlineto
          5 vlineto
          24 16 58 -34 25 -2 rrcurveto
          60 -74 5 -38 -8 vhcurveto
          -11 23 0 23 21 vvcurveto
          53 19 57 57 vhcurveto
          161 -96 -24 100 -140 14 -81 1 -25 -65 12 -141 rrcurveto
          endchar
        </CharString>
        <CharString name="four">
          -50 160 -47 rmoveto
          -12 -1 8 -2 5 hhcurveto
          12 -4 11 14 5 19 3 9 4 14 -7 4 19 104 4 45 24 81 2 8 7 35 5 7 23 3 36 9 11 42 6 19 4 28 -16 5 -6 -25 -19 -38 -21 3 -7 4 -3 4 4 17 rrcurveto
          37 191 3 3 -7 14 -4 7 rlinecurve
          -1 -1 2 0 hvcurveto
          -8 1 -2 -9 -7 -11 -5 -63 -15 -44 -16 -58 rrcurveto
          -3 -15 -9 -26 -3 vvcurveto
          -8 -7 rlineto
          -1 -3 -15 4 -7 hhcurveto
          -40 12 -32 29 -41 11 3 11 rcurveline
          85 138 9 -1 1 10 4 8 rlinecurve
          3 13 -3 8 -9 2 rrcurveto
          -12 -150 -210 -10 hvcurveto
          -4 -9 -2 -10 8 -5 27 12 17 0 19 -6 18 -5 rcurveline
          35 -15 82 -36 -1 -3 rrcurveto
          endchar
        </CharString>
        <CharString name="g">
          -9 -28 -371 rmoveto
          -30 21 55 -18 33 hhcurveto
          83 13 77 66 13 hvcurveto
          6 30 19 157 3 30 rrcurveto
          36 44 182 76 7 vvcurveto
          6 -3 5 -7 4 vhcurveto
          -89 -26 -33 -39 -76 -30 rrcurveto
          3 -1 13 3 45 8 117 44 vvcurveto
          34 -48 0 -21 vhcurveto
          -218 -64 34 -182 88 -4 rrcurveto
          40 49 31 17 31 hvcurveto
          -7 1 -24 -7 vvcurveto
          -23 2 -22 -12 -21 vhcurveto
          -17 -17 -96 -76 -19 -16 rrcurveto
          -37 -45 -42 -61 -64 vvcurveto
          -5 1 -23 1 -5 vhcurveto
          28 37 rmoveto
          91 112 101 69 45 vhcurveto
          -23 vlineto
          -36 -8 -234 -88 -33 -52 19 37 vhcurveto
          38 383 rmoveto
          -22 70 81 107 66 -8 rrcurveto
          25 13 -21 -28 hvcurveto
          -10 vlineto
          3 -35 -38 -96 -92 -3 rrcurveto
          -15 -21 3 21 hvcurveto
          endchar
        </CharString>
        <CharString name="germandbls">
          536 553 624 rmoveto
          54 55 34 35 11 11 8 8 5 4 rlinecurve
          27 35 64 40 43 hhcurveto
          36 22 -21 -37 hvcurveto
          -16 -87 -124 -89 -60 -41 rrcurveto
          4 -216 97 -41 106 hhcurveto
          95 137 -62 -108 -125 -144 -169 -126 -103 -85 93 97 hvcurveto
          18 45 -34 20 -16 hhcurveto
          -12 -6 0 -11 -11 hvcurveto
          -4 -1 -22 -7 vvcurveto
          -110 109 -102 110 135 168 197 124 142 -129 28 -80 29 vhcurveto
          42 42 138 68 112 vvcurveto
          43 -23 38 -48 -132 -137 -155 -91 -67 vhcurveto
          -151 -124 -100 -635 -44 -131 rrcurveto
          -94 47 98 -56 hhcurveto
          -65 40 -76 74 vhcurveto
          85 43 -32 407 214 394 rrcurveto
          endchar
        </CharString>
        <CharString name="grave">
          -239 125 498 rmoveto
          -11 24 -13 7 -13 27 -32 72 -48 -8 41 -71 20 -29 16 -28 36 -8 3 1 4 9 -3 4 rrcurveto
          endchar
        </CharString>
        <CharString name="greater">
          36 68 21 rmoveto
          -1 -1 0 -22 4 -8 8 -2 rcurveline
          24 -6 12 28 14 14 26 26 141 104 31 23 11 6 66 43 15 4 rrcurveto
          5 vlineto
          2 6 -2 5 -5 4 -83 76 -70 73 -68 88 -5 7 -6 5 -9 3 rrcurveto
          -1 0 -1 1 -1 hvcurveto
          -2 1 rlineto
          -3 -7 -14 -10 -3 hhcurveto
          -3 -3 5 -16 4 -1 56 -76 73 -86 75 -60 rrcurveto
          endchar
        </CharString>
        <CharString name="guillemotleft">
          87 110 250 rmoveto
          69 28 71 42 59 37 1 1 8 10 -1 3 -1 3 -10 7 -5 1 rrcurveto
          -1 0 0 1 -1 hvcurveto
          -6 -6 -2 -4 -6 hvcurveto
          -69 -45 -70 -37 -76 -33 rrcurveto
          -5 -2 -3 -3 -4 vvcurveto
          -3 vlineto
          9 -7 42 -36 8 -8 19 -19 83 -94 16 -19 rrcurveto
          -13 5 9 -20 17 hhcurveto
          7 hlineto
          4 4 5 11 -1 3 rrcurveto
          -29 191 rmoveto
          69 29 71 40 59 39 3 1 6 9 -1 3 -1 3 -10 6 -4 3 rrcurveto
          -1 hlineto
          -1 -1 0 1 -1 hvcurveto
          -6 -6 -2 -4 -5 hvcurveto
          -69 -45 -70 -37 -77 -33 rrcurveto
          -5 -2 -2 -3 -5 vvcurveto
          -3 vlineto
          6 -6 45 -39 8 -5 18 -21 86 -92 14 -20 rrcurveto
          -13 7 5 -19 20 hhcurveto
          6 hlineto
          4 4 5 11 -1 3 rrcurveto
          endchar
        </CharString>
        <CharString name="guillemotright">
          103 66 76 rmoveto
          -1 -3 4 -12 5 -4 rrcurveto
          6 hlineto
          19 6 20 11 7 hvcurveto
          16 19 86 92 17 20 10 7 40 35 11 7 rrcurveto
          3 vlineto
          4 -3 3 -6 2 vhcurveto
          -77 33 -69 35 -71 44 rrcurveto
          4 -7 -5 3 -7 hhcurveto
          -2 -1 rlineto
          -1 hlineto
          -5 -3 -9 -6 -1 -3 -1 -3 6 -8 3 -1 59 -37 73 -41 69 -28 rrcurveto
          -6 -174 rmoveto
          -1 -1 5 -13 4 -4 rrcurveto
          7 hlineto
          19 7 21 11 5 hvcurveto
          17 20 85 89 18 21 8 8 43 34 9 7 rrcurveto
          4 vlineto
          4 -2 3 -5 2 vhcurveto
          -80 32 -68 36 -71 44 rrcurveto
          4 -5 -5 2 -8 hhcurveto
          -2 hlineto
          -1 hlineto
          -5 -3 -10 -6 -1 -3 -1 -3 8 -9 1 -1 59 -37 73 -41 71 -28 rrcurveto
          endchar
        </CharString>
        <CharString name="guilsinglleft">
          -36 110 250 rmoveto
          69 28 71 42 59 37 1 1 8 10 -1 3 -1 3 -10 7 -5 1 rrcurveto
          -1 0 0 1 -1 hvcurveto
          -6 -6 -2 -4 -6 hvcurveto
          -69 -45 -70 -37 -76 -33 rrcurveto
          -5 -2 -3 -3 -4 vvcurveto
          -3 vlineto
          9 -7 42 -36 8 -8 19 -19 83 -94 16 -19 rrcurveto
          -13 5 9 -20 17 hhcurveto
          7 hlineto
          4 4 5 11 -1 3 rrcurveto
          endchar
        </CharString>
        <CharString name="guilsinglright">
          -96 66 76 rmoveto
          -1 -3 4 -12 5 -4 rrcurveto
          6 hlineto
          19 6 20 11 7 hvcurveto
          16 19 86 92 17 20 10 7 40 35 11 7 rrcurveto
          3 vlineto
          4 -3 3 -6 2 vhcurveto
          -77 33 -69 35 -71 44 rrcurveto
          4 -7 -5 3 -7 hhcurveto
          -2 -1 rlineto
          -1 hlineto
          -5 -3 -9 -6 -1 -3 -1 -3 6 -8 3 -1 59 -37 73 -41 69 -28 rrcurveto
          endchar
        </CharString>
        <CharString name="h">
          -1 0 vmoveto
          -9 61 76 320 27 101 rrcurveto
          28 8 19 77 39 hhcurveto
          4 9 -2 -3 4 hvcurveto
          2 vlineto
          15 -10 7 -53 -14 vvcurveto
          -179 -140 -72 8 -86 vhcurveto
          39 28 38 38 51 hhcurveto
          17 19 1 -21 7 hvcurveto
          4 -51 -11 -175 75 35 rrcurveto
          111 226 -116 -140 -122 hhcurveto
          -94 6 121 80 3 hvcurveto
          12 -3 -13 -1 -8 hhcurveto
          -100 -17 -245 26 -57 hvcurveto
          94 302 rmoveto
          78 31 19 380 -60 -213 rrcurveto
          -8 -31 -29 -123 -15 -1 -1 -10 -4 -3 1 -8 -3 vvcurveto
          endchar
        </CharString>
        <CharString name="hungarumlaut">
          -164 16 500 rmoveto
          -3 -3 4 -10 5 -1 40 9 21 30 21 31 45 77 -49 8 -41 -76 -16 -31 -11 -7 -16 -27 rrcurveto
          98 -4 rmoveto
          -3 -4 4 -10 4 -1 41 11 21 28 21 32 48 74 -55 12 -38 -77 -16 -31 -11 -8 -16 -26 rrcurveto
          endchar
        </CharString>
        <CharString name="hyphen">
          -79 49 241 rmoveto
          -4 -1 -15 11 1 vhcurveto
          220 4 rlineto
          17 1 4 6 11 vvcurveto
          11 -4 9 -12 vhcurveto
          -5 hlineto
          -29 -3 -132 1 -31 -3 rrcurveto
          -18 -20 7 -26 hvcurveto
          endchar
        </CharString>
        <CharString name="i">
          -198 13 214 rmoveto
          -21 -207 33 -10 36 -11 98 -34 223 159 -273 -107 rrcurveto
          -56 -21 44 45 63 14 55 24 59 hvcurveto
          17 3 -10 4 -12 hhcurveto
          -20 -16 -74 -3 -2 hvcurveto
          105 219 rmoveto
          -93 4 93 -98 94 vvcurveto
          endchar
        </CharString>
        <CharString name="iacute">
          -198 13 214 rmoveto
          -21 -207 33 -10 36 -11 98 -34 223 159 -273 -107 rrcurveto
          -56 -21 44 45 63 14 55 24 59 hvcurveto
          17 3 -10 4 -12 hhcurveto
          -20 -16 -74 -3 -2 hvcurveto
          12 192 rmoveto
          -5 -3 4 -10 4 hhcurveto
          41 9 21 29 20 33 47 74 -51 13 -41 -79 -13 -29 -15 -11 -14 -24 rrcurveto
          endchar
        </CharString>
        <CharString name="icircumflex">
          -198 13 214 rmoveto
          -21 -207 33 -10 36 -11 98 -34 223 159 -273 -107 rrcurveto
          -56 -21 44 45 63 14 55 24 59 hvcurveto
          17 3 -10 4 -12 hhcurveto
          -20 -16 -74 -3 -2 hvcurveto
          143 180 rmoveto
          -4 1 3 -2 5 hhcurveto
          9 10 8 5 hvcurveto
          1 -1 2 1 vvcurveto
          1 vlineto
          3 -14 17 3 vvcurveto
          -13 29 rlineto
          -16 37 -20 41 35 vvcurveto
          -3 hlineto
          -3 hlineto
          -1 1 -45 -28 -65 -110 -15 -28 rlinecurve
          -5 3 3 -2 3 hhcurveto
          19 15 24 27 16 hvcurveto
          24 40 9 13 9 9 10 5 rlinecurve
          3 -3 10 -15 1 -5 8 -14 27 -71 8 -15 rrcurveto
          endchar
        </CharString>
        <CharString name="idieresis">
          -198 13 214 rmoveto
          -21 -207 33 -10 36 -11 98 -34 223 159 -273 -107 rrcurveto
          -56 -21 44 45 63 14 55 24 59 hvcurveto
          17 3 -10 4 -12 hhcurveto
          -20 -16 -74 -3 -2 hvcurveto
          12 234 rmoveto
          -55 -21 67 -66 16 57 rrcurveto
          12 -19 18 -9 vhcurveto
          123 hmoveto
          -54 -21 65 -66 18 57 rrcurveto
          12 -18 18 -11 vhcurveto
          endchar
        </CharString>
        <CharString name="igrave">
          -198 129 383 rmoveto
          -14 25 -10 6 -13 29 -35 70 -44 -8 40 -70 19 -29 18 -28 35 -8 3 1 2 9 -1 3 rrcurveto
          -116 -169 rmoveto
          -21 -207 33 -10 36 -11 98 -34 223 159 -273 -107 rrcurveto
          -56 -21 44 45 63 14 55 24 59 hvcurveto
          17 3 -10 4 -12 hhcurveto
          -20 -16 -74 -3 -2 hvcurveto
          endchar
        </CharString>
        <CharString name="j">
          -273 -218 -257 rmoveto
          -74 41 -110 89 128 4 283 77 4 vhcurveto
          24 3 3 61 4 hhcurveto
          9 9 196 140 -76 -9 -15 -8 rlinecurve
          -29 -24 -64 -50 -21 -21 2 134 rcurveline
          5 29 -37 40 -8 -118 rrcurveto
          -103 vlineto
          -29 -238 -106 -145 vvcurveto
          20 -4 rmoveto
          106 136 96 82 45 vhcurveto
          -15 2 -63 -13 vvcurveto
          -56 -13 -251 -103 -65 -39 98 53 vhcurveto
          283 687 rmoveto
          -92 4 92 -99 95 vvcurveto
          endchar
        </CharString>
        <CharString name="k">
          -30 3 -6 rmoveto
          51 -5 64 35 21 hvcurveto
          1 4 18 1 7 hhcurveto
          72 71 -98 -8 94 hvcurveto
          21 -3 43 22 28 vvcurveto
          3 -6 6 -3 vhcurveto
          -20 -15 -19 1 -21 hhcurveto
          -61 -66 38 48 -34 hvcurveto
          63 34 160 123 -101 32 -104 -3 -65 -88 -67 -70 92 176 112 378 -138 -109 -67 -282 rcurveline
          48 -154 rmoveto
          40 37 79 80 67 hhcurveto
          -11 -73 -104 -80 -68 33 rrcurveto
          38 397 rmoveto
          21 11 -2 -47 -11 vvcurveto
          -30 -149 -24 -34 -41 -81 rrcurveto
          endchar
        </CharString>
        <CharString name="l">
          -172 4 116 rmoveto
          -70 13 46 -62 77 hhcurveto
          49 72 28 57 hvcurveto
          -11 hlineto
          -45 -17 -45 -12 -43 hhcurveto
          -69 -36 50 64 62 42 11 32 56 hvcurveto
          41 60 36 113 73 vvcurveto
          7 -3 54 -19 vhcurveto
          -53 -18 -107 -275 -5 -153 rrcurveto
          161 379 rmoveto
          -1 -74 -55 -159 -59 -41 rrcurveto
          17 49 125 18 47 vhcurveto
          4 13 34 60 10 12 rrcurveto
          endchar
        </CharString>
        <CharString name="lacute">
          -172 4 116 rmoveto
          -70 13 46 -62 77 hhcurveto
          49 72 28 57 hvcurveto
          -11 hlineto
          -45 -17 -45 -12 -43 hhcurveto
          -69 -36 50 64 62 42 11 32 56 hvcurveto
          41 60 36 113 73 vvcurveto
          7 -3 54 -19 vhcurveto
          -53 -18 -107 -275 -5 -153 rrcurveto
          161 379 rmoveto
          -1 -74 -55 -159 -59 -41 rrcurveto
          17 49 125 18 47 vhcurveto
          4 13 34 60 10 12 rrcurveto
          -71 113 rmoveto
          -3 -4 3 -10 4 -1 43 11 20 28 20 32 48 75 -55 11 -38 -77 -13 -31 -16 -8 -13 -26 rrcurveto
          endchar
        </CharString>
        <CharString name="less">
          72 72 234 rmoveto
          32 -23 139 -122 29 -25 5 -6 90 -109 37 -48 7 -9 -4 -2 8 -3 15 -3 14 14 3 13 rrcurveto
          1 1 -1 2 1 vvcurveto
          2 4 -292 304 -5 5 -3 4 3 7 rlinecurve
          2 2 273 118 16 46 1 11 -8 6 -9 4 rrcurveto
          -1 -7 0 1 -1 hvcurveto
          -29 -23 -150 -88 -31 -18 -14 -6 -83 -30 -13 -5 -8 -3 -13 -3 -3 -11 rrcurveto
          endchar
        </CharString>
        <CharString name="logicalnot">
          1 40 330 rmoveto
          -5 1 -15 9 1 vhcurveto
          271 11 25 -177 rlineto
          -8 7 0 9 8 9 2 5 vhcurveto
          1 vlineto
          -1 1 -5 9 -19 179 -4 12 rlinecurve
          -1 8 4 8 -21 -1 rrcurveto
          -2 hlineto
          -4 -3 0 -1 -2 hvcurveto
          -45 -4 -169 -4 -28 -4 rrcurveto
          -19 -20 6 -24 hvcurveto
          endchar
        </CharString>
        <CharString name="lslash">
          -172 4 116 rmoveto
          -70 13 46 -62 77 hhcurveto
          49 72 28 57 hvcurveto
          -11 hlineto
          -45 -17 -45 -12 -43 hhcurveto
          -69 -36 50 64 46 24 20 24 28 hvcurveto
          4 3 190 4 rlineto
          17 1 3 6 11 vvcurveto
          11 -3 9 -12 vhcurveto
          -5 hlineto
          -22 -2 -80 0 -51 -2 rrcurveto
          -11 hlineto
          8 14 8 16 8 18 rrcurveto
          29 61 20 75 56 vvcurveto
          7 -3 54 -19 vhcurveto
          -53 -18 -107 -275 -5 -153 rrcurveto
          161 379 rmoveto
          -57 -33 -101 -39 -67 vhcurveto
          -2 -3 -2 -4 -3 -3 rrcurveto
          -10 hlineto
          -5 1 -4 0 -4 -1 rrcurveto
          -1 0 0 -1 -1 hvcurveto
          15 45 41 106 4 13 34 60 10 12 rlinecurve
          -115 -274 rmoveto
          2 1 3 1 5 vhcurveto
          -2 vlineto
          3 -5 rlineto
          endchar
        </CharString>
        <CharString name="m">
          301 -5 9 rmoveto
          -3 -1 7 -6 3 hhcurveto
          49 183 318 -63 38 hvcurveto
          -62 -208 -24 -66 43 23 8 8 rlinecurve
          45 101 102 151 91 29 rrcurveto
          -60 -30 -56 -61 vvcurveto
          -81 41 -36 83 28 134 25 37 vhcurveto
          3 -1 2 1 vvcurveto
          -19 -47 -53 -20 -52 hhcurveto
          -71 -33 29 72 hvcurveto
          68 40 62 67 vvcurveto
          -53 49 -117 -168 -68 -56 4 46 62 158 -94 -53 -151 -122 rcurveline
          15 41 54 124 -55 -17 -46 -131 rcurveline
          endchar
        </CharString>
        <CharString name="minus">
          18 49 241 rmoveto
          -4 -1 -15 11 1 vhcurveto
          304 10 rlineto
          17 1 3 6 12 vvcurveto
          9 -3 10 -11 vhcurveto
          -6 hlineto
          -30 -4 -215 -3 -31 -4 rrcurveto
          -18 -20 7 -26 hvcurveto
          endchar
        </CharString>
        <CharString name="mu">
          -26 278 365 rmoveto
          -47 16 28 -116 24 -116 rrcurveto
          -25 -11 2 -21 vhcurveto
          -108 24 -45 263 -29 -73 -5 -476 74 -26 -32 396 rrcurveto
          -66 32 20 -68 98 hhcurveto
          47 -3 63 26 -88 242 rrcurveto
          endchar
        </CharString>
        <CharString name="multiply">
          7 102 109 rmoveto
          51 -29 5 51 52 60 71 -83 179 48 -110 20 -41 8 -36 2 -44 33 79 141 rcurveline
          -11 17 -15 -12 -8 -10 -4 -4 rcurveline
          -15 -18 -26 -46 -21 -21 -54 65 -2 63 -46 -49 80 -120 rcurveline
          endchar
        </CharString>
        <CharString name="n">
          26 228 89 rmoveto
          -38 -5 -24 34 -24 vhcurveto
          33 hlineto
          65 110 85 66 hvcurveto
          10 vlineto
          -42 -53 -35 -91 -82 hhcurveto
          -31 -8 19 28 hvcurveto
          3 80 18 35 -5 81 rrcurveto
          11 -4 -7 -1 -8 hhcurveto
          -37 -25 -35 -17 -25 hvcurveto
          -16 -16 -64 -80 -16 -16 rrcurveto
          51 20 35 41 vvcurveto
          7 0 20 -1 7 vhcurveto
          -11 41 -36 -61 -84 vvcurveto
          -43 -139 rlineto
          -22 vlineto
          15 6 1 11 8 hvcurveto
          8 8 43 54 10 12 24 16 69 114 47 11 rrcurveto
          -65 -1 -23 -66 vvcurveto
          endchar
        </CharString>
        <CharString name="nacute">
          26 228 89 rmoveto
          -38 -5 -24 34 -24 vhcurveto
          33 hlineto
          65 110 85 66 hvcurveto
          10 vlineto
          -42 -53 -35 -91 -82 hhcurveto
          -31 -8 19 28 hvcurveto
          3 80 18 35 -5 81 rrcurveto
          11 -4 -7 -1 -8 hhcurveto
          -37 -25 -35 -17 -25 hvcurveto
          -16 -16 -64 -80 -16 -16 rrcurveto
          51 20 35 41 vvcurveto
          7 0 20 -1 7 vhcurveto
          -11 41 -36 -61 -84 vvcurveto
          -43 -139 rlineto
          -22 vlineto
          15 6 1 11 8 hvcurveto
          8 8 43 54 10 12 24 16 69 114 47 11 rrcurveto
          -65 -1 -23 -66 vvcurveto
          -59 263 rmoveto
          -3 -4 3 -10 4 -1 43 11 20 28 20 32 48 75 -55 11 -38 -77 -13 -31 -16 -8 -13 -26 rrcurveto
          endchar
        </CharString>
        <CharString name="nbspace">
          56 endchar
        </CharString>
        <CharString name="ncaron">
          26 228 89 rmoveto
          -38 -5 -24 34 -24 vhcurveto
          33 hlineto
          65 110 85 66 hvcurveto
          10 vlineto
          -42 -53 -35 -91 -82 hhcurveto
          -31 -8 19 28 hvcurveto
          3 80 18 35 -5 81 rrcurveto
          11 -4 -7 -1 -8 hhcurveto
          -37 -25 -35 -17 -25 hvcurveto
          -16 -16 -64 -80 -16 -16 rrcurveto
          51 20 35 41 vvcurveto
          7 0 20 -1 7 vhcurveto
          -11 41 -36 -61 -84 vvcurveto
          -43 -139 rlineto
          -22 vlineto
          15 6 1 11 8 hvcurveto
          8 8 43 54 10 12 24 16 69 114 47 11 rrcurveto
          -65 -1 -23 -66 vvcurveto
          85 392 rmoveto
          -68 -164 -77 116 -54 50 rrcurveto
          -5 -27 -8 -3 -3 hvcurveto
          82 -114 111 -68 79 182 rrcurveto
          1 vlineto
          1 1 rlineto
          7 -11 4 -13 -7 -5 -1 -3 -3 vhcurveto
          endchar
        </CharString>
        <CharString name="nine">
          -172 67 -18 rmoveto
          5 -28 17 5 4 21 4 20 rlinecurve
          10 35 13 69 78 326 15 69 rlinecurve
          -5 57 -21 34 -31 8 -47 12 -40 -50 -25 -96 -13 -48 -2 -34 8 -21 8 -21 11 -12 14 -4 rrcurveto
          -4 15 9 -2 4 hhcurveto
          44 6 2 -14 rlineto
          -77 152 rmoveto
          19 67 33 35 29 -9 rrcurveto
          12 -3 10 -3 -27 vvcurveto
          6 -54 -19 -73 -24 -44 -39 9 rlinecurve
          -25 7 -19 30 17 65 rrcurveto
          endchar
        </CharString>
        <CharString name="ntilde">
          26 228 89 rmoveto
          -38 -5 -24 34 -24 vhcurveto
          33 hlineto
          65 110 85 66 hvcurveto
          10 vlineto
          -42 -53 -35 -91 -82 hhcurveto
          -31 -8 19 28 hvcurveto
          3 80 18 35 -5 81 rrcurveto
          11 -4 -7 -1 -8 hhcurveto
          -37 -25 -35 -17 -25 hvcurveto
          -16 -16 -64 -80 -16 -16 rrcurveto
          51 20 35 41 vvcurveto
          7 0 20 -1 7 vhcurveto
          -11 41 -36 -61 -84 vvcurveto
          -43 -139 rlineto
          -22 vlineto
          15 6 1 11 8 hvcurveto
          8 8 43 54 10 12 24 16 69 114 47 11 rrcurveto
          -65 -1 -23 -66 vvcurveto
          -98 351 rmoveto
          45 34 -52 52 hhcurveto
          55 48 16 78 33 -13 32 -29 -9 -16 0 -16 hvcurveto
          31 6 -16 -39 -58 -35 6 -38 hvcurveto
          -50 -27 44 -47 hhcurveto
          -23 9 -55 -13 3 -63 rrcurveto
          11 hlineto
          17 15 18 22 24 hhcurveto
          endchar
        </CharString>
        <CharString name="numbersign">
          30 64 163 rmoveto
          -31 49 32 8 -25 vhcurveto
          3 -10 1 -53 2 -9 23 6 rcurveline
          93 vlineto
          -3 84 46 -8 24 hvcurveto
          18 -112 rlineto
          19 141 hlineto
          -19 11 198 55 -56 11 rrcurveto
          -10 -29 -64 -29 -26 hhcurveto
          -17 2 49 9 hvcurveto
          70 80 -33 40 vvcurveto
          -25 -23 -13 -28 hhcurveto
          -2 hlineto
          0 0 0 -1 1 vhcurveto
          -18 67 rlineto
          -21 15 -9 -8 -21 -23 11 -19 -21 vvcurveto
          -35 -66 -13 -29 -8 vhcurveto
          -3 13 -4 50 -3 13 rrcurveto
          15 -1 -8 8 -24 hhcurveto
          5 -117 rlineto
          -37 -79 4 -46 vvcurveto
          23 54 29 2 2 hvcurveto
          -76 vlineto
          -6 -42 -13 -10 hvcurveto
          180 174 rmoveto
          3 -7 5 -34 3 -5 rrcurveto
          -60 -64 -17 -41 -10 vhcurveto
          77 vlineto
          23 10 62 33 22 hhcurveto
          endchar
        </CharString>
        <CharString name="o">
          -21 2 89 rmoveto
          -46 6 -41 52 16 27 -2 12 15 vhcurveto
          88 54 79 4 84 29 63 51 rlinecurve
          -8 9 rlineto
          -24 -48 -68 -32 -54 hhcurveto
          -20 hlineto
          30 55 19 29 58 6 -2 25 7 vvcurveto
          15 -9 -17 4 -17 hhcurveto
          -62 -19 -115 -47 -23 -2 -22 12 -20 hvcurveto
          -33 -25 -25 -12 -47 hhcurveto
          -36 -3 28 31 77 66 58 70 21 hvcurveto
          19 -7 -9 1 -15 hhcurveto
          -77 -57 -113 -63 hvcurveto
          184 56 rmoveto
          41 20 65 38 22 vhcurveto
          16 -3 -5 -34 -2 vvcurveto
          -42 -20 -57 -39 -23 vhcurveto
          -13 3 3 23 7 vvcurveto
          endchar
        </CharString>
        <CharString name="oacute">
          -21 2 89 rmoveto
          -46 6 -41 52 16 27 -2 12 15 vhcurveto
          88 54 79 4 84 29 63 51 rlinecurve
          -8 9 rlineto
          -24 -48 -68 -32 -54 hhcurveto
          -20 hlineto
          30 55 19 29 58 6 -2 25 7 vvcurveto
          15 -9 -17 4 -17 hhcurveto
          -62 -19 -115 -47 -23 -2 -22 12 -20 hvcurveto
          -33 -25 -25 -12 -47 hhcurveto
          -36 -3 28 31 77 66 58 70 21 hvcurveto
          19 -7 -9 1 -15 hhcurveto
          -77 -57 -113 -63 hvcurveto
          184 56 rmoveto
          41 20 65 38 22 vhcurveto
          16 -3 -5 -34 -2 vvcurveto
          -42 -20 -57 -39 -23 vhcurveto
          -13 3 3 23 7 vvcurveto
          -70 205 rmoveto
          -3 -4 3 -10 4 -1 43 11 20 28 20 32 48 75 -55 11 -38 -77 -13 -31 -16 -8 -13 -26 rrcurveto
          endchar
        </CharString>
        <CharString name="ocircumflex">
          -21 2 89 rmoveto
          -46 6 -41 52 16 27 -2 12 15 vhcurveto
          88 54 79 4 84 29 63 51 rlinecurve
          -8 9 rlineto
          -24 -48 -68 -32 -54 hhcurveto
          -20 hlineto
          30 55 19 29 58 6 -2 25 7 vvcurveto
          15 -9 -17 4 -17 hhcurveto
          -62 -19 -115 -47 -23 -2 -22 12 -20 hvcurveto
          -33 -25 -25 -12 -47 hhcurveto
          -36 -3 28 31 77 66 58 70 21 hvcurveto
          19 -7 -9 1 -15 hhcurveto
          -77 -57 -113 -63 hvcurveto
          184 56 rmoveto
          41 20 65 38 22 vhcurveto
          16 -3 -5 -34 -2 vvcurveto
          -42 -20 -57 -39 -23 vhcurveto
          -13 3 3 23 7 vvcurveto
          63 222 rmoveto
          -4 2 3 -2 4 hhcurveto
          9 9 7 7 hvcurveto
          0 -1 1 1 vvcurveto
          1 vlineto
          3 -12 19 -1 2 vhcurveto
          -14 33 -35 64 46 vvcurveto
          -3 hlineto
          -3 1 1 -1 hhcurveto
          -45 -32 -68 -105 -13 -31 rrcurveto
          -4 2 3 -2 4 hhcurveto
          36 27 97 22 38 hvcurveto
          16 -24 6 -15 28 -69 8 -16 rlinecurve
          endchar
        </CharString>
        <CharString name="odieresis">
          -21 2 89 rmoveto
          -46 6 -41 52 16 27 -2 12 15 vhcurveto
          88 54 79 4 84 29 63 51 rlinecurve
          -8 9 rlineto
          -24 -48 -68 -32 -54 hhcurveto
          -20 hlineto
          30 55 19 29 58 6 -2 25 7 vvcurveto
          15 -9 -17 4 -17 hhcurveto
          -62 -19 -115 -47 -23 -2 -22 12 -20 hvcurveto
          -33 -25 -25 -12 -47 hhcurveto
          -36 -3 28 31 77 66 58 70 21 hvcurveto
          19 -7 -9 1 -15 hhcurveto
          -77 -57 -113 -63 hvcurveto
          184 56 rmoveto
          41 20 65 38 22 vhcurveto
          16 -3 -5 -34 -2 vvcurveto
          -42 -20 -57 -39 -23 vhcurveto
          -13 3 3 23 7 vvcurveto
          -53 279 rmoveto
          -56 -21 69 -66 16 57 rrcurveto
          12 -20 18 -9 vhcurveto
          124 hmoveto
          -56 -21 68 -66 16 57 rrcurveto
          12 -19 18 -9 vhcurveto
          endchar
        </CharString>
        <CharString name="oe">
          139 2 89 rmoveto
          -46 6 -41 52 16 27 -2 12 15 vhcurveto
          85 52 91 -209 217 168 29 99 rlinecurve
          8 -1 8 -9 4 vhcurveto
          -17 -11 15 0 -18 -18 rrcurveto
          -66 -56 -48 -40 -94 hhcurveto
          -30 -50 19 39 hvcurveto
          3 1 5 1 vvcurveto
          47 41 95 82 77 vvcurveto
          16 -12 12 -17 -24 -21 -8 -15 -20 vhcurveto
          4 vlineto
          15 -9 -17 4 -17 hhcurveto
          -62 -19 -115 -47 -23 -2 -22 12 -20 hvcurveto
          -33 -25 -25 -12 -47 hhcurveto
          -36 -3 28 31 77 66 58 70 21 hvcurveto
          19 -7 -9 1 -15 hhcurveto
          -77 -57 -113 -63 hvcurveto
          346 176 rmoveto
          -3 -55 -69 -72 -43 -26 rrcurveto
          -1 2 -1 4 6 vvcurveto
          43 102 rlineto
          23 23 24 16 27 hhcurveto
          -162 -120 rmoveto
          41 20 65 38 22 vhcurveto
          8 -1 2 -7 1 -9 -29 -48 -24 -52 -8 -44 rrcurveto
          -12 3 4 23 7 vvcurveto
          endchar
        </CharString>
        <CharString name="ograve">
          -21 2 89 rmoveto
          -46 6 -41 52 16 27 -2 12 15 vhcurveto
          88 54 79 4 84 29 63 51 rlinecurve
          -8 9 rlineto
          -24 -48 -68 -32 -54 hhcurveto
          -20 hlineto
          30 55 19 29 58 6 -2 25 7 vvcurveto
          15 -9 -17 4 -17 hhcurveto
          -62 -19 -115 -47 -23 -2 -22 12 -20 hvcurveto
          -33 -25 -25 -12 -47 hhcurveto
          -36 -3 28 31 77 66 58 70 21 hvcurveto
          19 -7 -9 1 -15 hhcurveto
          -77 -57 -113 -63 hvcurveto
          184 56 rmoveto
          41 20 65 38 22 vhcurveto
          16 -3 -5 -34 -2 vvcurveto
          -42 -20 -57 -39 -23 vhcurveto
          -13 3 3 23 7 vvcurveto
          48 249 rmoveto
          -11 24 -13 7 -13 27 -32 72 -48 -8 41 -71 20 -29 16 -28 36 -8 3 1 4 9 -3 4 rrcurveto
          endchar
        </CharString>
        <CharString name="ohungarumlaut">
          -21 2 89 rmoveto
          -46 6 -41 52 16 27 -2 12 15 vhcurveto
          88 54 79 4 84 29 63 51 rlinecurve
          -8 9 rlineto
          -24 -48 -68 -32 -54 hhcurveto
          -20 hlineto
          30 55 19 29 58 6 -2 25 7 vvcurveto
          15 -9 -17 4 -17 hhcurveto
          -62 -19 -115 -47 -23 -2 -22 12 -20 hvcurveto
          -33 -25 -25 -12 -47 hhcurveto
          -36 -3 28 31 77 66 58 70 21 hvcurveto
          19 -7 -9 1 -15 hhcurveto
          -77 -57 -113 -63 hvcurveto
          184 56 rmoveto
          41 20 65 38 22 vhcurveto
          16 -3 -5 -34 -2 vvcurveto
          -42 -20 -57 -39 -23 vhcurveto
          -13 3 3 23 7 vvcurveto
          -78 245 rmoveto
          -3 -3 4 -10 5 -1 40 9 21 30 21 31 45 77 -49 8 -41 -76 -16 -31 -11 -7 -16 -27 rrcurveto
          98 -4 rmoveto
          -3 -4 4 -10 4 -1 41 11 21 28 21 32 48 74 -55 12 -38 -77 -16 -31 -11 -8 -16 -26 rrcurveto
          endchar
        </CharString>
        <CharString name="one">
          -205 4 9 rmoveto
          -12 0 -16 5 -11 vhcurveto
          7 8 20 9 9 11 35 168 54 200 44 158 rrcurveto
          11 1 26 -8 3 vhcurveto
          -1 -1 -1 0 hvcurveto
          -2 1 -47 -39 -67 -9 -21 -71 rlinecurve
          11 hlineto
          11 56 25 3 11 hvcurveto
          -12 -15 -70 -3 -13 vhcurveto
          endchar
        </CharString>
        <CharString name="onehalf">
          199 143 217 rmoveto
          -7 0 -8 3 -7 vhcurveto
          5 5 12 4 5 7 22 93 33 110 26 88 rrcurveto
          5 1 16 -5 1 vhcurveto
          -1 0 -1 0 hvcurveto
          -1 1 -30 -22 -40 -5 -13 -39 rlinecurve
          7 hlineto
          9 30 15 9 hhcurveto
          -5 -11 -41 -6 vvcurveto
          -57 -342 rmoveto
          1 -12 7 -9 11 1 3 1 rcurveline
          1 0 1 1 hvcurveto
          95 144 129 146 128 117 rrcurveto
          5 3 17 22 7 vvcurveto
          5 19 -18 -2 -8 -1 rrcurveto
          -3 1 -2 1 -4 hvcurveto
          -3 -1 -379 -424 11 -13 1 1 rlinecurve
          384 122 rmoveto
          -42 -53 -47 -48 -21 -85 12 -2 17 29 11 -5 20 -5 12 -28 19 -3 16 -5 26 9 13 38 rrcurveto
          4 9 54 3 vvcurveto
          -19 19 -3 3 -2 -8 -1 -4 rlinecurve
          -5 -19 17 -15 -11 -26 rrcurveto
          -31 -6 -15 10 -10 hhcurveto
          -22 7 -18 21 -21 8 16 62 62 19 24 95 11 41 5 35 -24 8 -23 3 -35 -32 -14 -51 -2 -9 1 -5 4 -1 11 -2 20 72 27 -8 17 -4 -3 -19 -8 -29 -4 -19 -3 -11 -11 -13 rrcurveto
          endchar
        </CharString>
        <CharString name="onequarter">
          229 183 263 rmoveto
          -7 -1 -9 4 -5 vhcurveto
          4 4 14 6 5 5 24 88 34 104 29 84 rrcurveto
          5 0 15 -5 1 vhcurveto
          0 -1 0 0 vhcurveto
          -1 hlineto
          -30 -19 -45 -7 -13 -36 rrcurveto
          0 6 0 1 vhcurveto
          9 33 14 9 hhcurveto
          -4 -9 -40 -3 -5 vhcurveto
          -82 -337 rmoveto
          1 -12 7 -9 11 1 3 1 rcurveline
          1 0 1 1 hvcurveto
          95 144 129 146 128 117 rrcurveto
          5 3 17 22 7 vvcurveto
          5 19 -18 -2 -8 -1 rrcurveto
          -3 1 -2 1 -4 hvcurveto
          -3 -1 -379 -424 11 -13 1 1 rlinecurve
          286 -109 rmoveto
          -5 3 -1 3 vhcurveto
          7 -1 5 5 3 8 1 4 2 6 -3 1 8 42 2 20 14 33 rrcurveto
          3 5 14 2 4 vhcurveto
          10 21 5 17 5 hvcurveto
          4 8 1 10 -8 3 -3 -8 -10 -19 -11 3 -3 1 -1 1 1 8 19 79 rcurveline
          1 1 -2 6 -3 3 rrcurveto
          0 -1 0 0 vhcurveto
          -4 1 -1 -4 -4 -4 -3 -27 -7 -16 -8 -26 rrcurveto
          -3 -6 -3 -10 -2 vvcurveto
          -4 -3 rlineto
          -1 -9 2 -3 hhcurveto
          -21 4 -16 13 -21 4 1 5 rcurveline
          44 57 5 -1 1 4 1 4 rlinecurve
          2 5 -2 3 -5 1 rrcurveto
          -5 -78 -86 -5 hvcurveto
          -1 -4 -2 -3 4 -3 15 5 7 0 11 -2 9 -2 rcurveline
          18 -8 41 -12 1 -2 rrcurveto
          endchar
        </CharString>
        <CharString name="onesuperior">
          -286 144 296 rmoveto
          -4 -1 -6 3 -4 vhcurveto
          3 3 9 3 5 4 16 64 24 76 21 61 rrcurveto
          4 0 10 -3 1 vhcurveto
          -1 0 0 0 hvcurveto
          -1 hlineto
          -21 -13 -33 -6 -8 -26 rrcurveto
          0 4 0 1 vhcurveto
          5 25 10 6 hhcurveto
          -3 -6 -28 -3 -5 vhcurveto
          endchar
        </CharString>
        <CharString name="ordfeminine">
          -146 60 245 rmoveto
          24 -3 34 39 3 16 rrcurveto
          -40 3 24 -17 40 hhcurveto
          33 27 8 44 5 hvcurveto
          -3 hlineto
          -24 -21 3 -14 -33 -5 rrcurveto
          -76 14 87 47 20 hvcurveto
          -68 47 -111 -161 85 -27 rrcurveto
          -16 44 rmoveto
          16 76 56 30 14 -31 rrcurveto
          -31 -3 -32 -72 -33 hhcurveto
          -16 -2 12 16 hvcurveto
          endchar
        </CharString>
        <CharString name="ordmasculine">
          -137 31 470 rmoveto
          -37 4 -31 35 9 20 -2 9 9 vhcurveto
          58 43 52 3 56 23 41 40 rlinecurve
          -5 7 rlineto
          -19 -33 -44 -25 -35 hhcurveto
          -14 hlineto
          21 42 12 25 45 5 -2 18 7 vvcurveto
          11 -5 -11 4 -12 hhcurveto
          -42 -11 -91 -37 -17 -2 -18 8 -16 hvcurveto
          -27 -16 -17 -8 -31 hhcurveto
          -22 -4 21 25 62 45 43 45 18 hvcurveto
          15 -4 -7 0 -9 hhcurveto
          -51 -38 -88 -50 hvcurveto
          122 44 rmoveto
          35 12 46 26 20 vhcurveto
          11 -3 -4 -27 -1 vvcurveto
          -34 -12 -43 -27 -19 vhcurveto
          -9 3 3 17 6 vvcurveto
          endchar
        </CharString>
        <CharString name="oslash">
          -21 -41 -23 rmoveto
          1 -12 7 -8 11 1 3 1 rcurveline
          1 0 0 1 hvcurveto
          12 19 13 18 13 19 3 -3 3 -2 3 -2 rrcurveto
          -5 7 11 -2 13 hhcurveto
          16 27 -2 12 15 hvcurveto
          88 54 79 4 84 29 63 51 rlinecurve
          -8 9 rlineto
          -24 -48 -68 -32 -54 hhcurveto
          -20 hlineto
          30 55 19 29 58 6 -2 25 7 vvcurveto
          -5 7 -6 5 -7 3 23 24 24 23 24 22 rrcurveto
          6 2 16 25 6 vvcurveto
          5 17 -18 0 -7 -1 rrcurveto
          -4 1 -2 1 -4 hvcurveto
          -2 -2 -37 -41 -33 -37 -29 -34 rlinecurve
          -11 -2 -10 -6 -8 -10 -10 -12 -8 -14 -6 -15 -8 -8 rcurveline
          -43 -49 -35 -40 -27 -33 -11 -14 -11 -12 -9 -11 rrcurveto
          14 vlineto
          77 66 58 70 21 vhcurveto
          19 -7 -9 1 -15 hhcurveto
          -77 -57 -113 -63 -11 1 -11 1 -11 hvcurveto
          -5 0 -4 1 -5 vhcurveto
          -5 -7 rlineto
          -44 -56 3 0 -2 vvcurveto
          90 57 rmoveto
          -4 3 -3 2 -2 3 19 25 rcurveline
          29 37 30 35 29 35 14 16 rcurveline
          -5 vlineto
          -3 -19 -1 -15 -11 vvcurveto
          -23 -2 -22 12 -20 vhcurveto
          -33 -25 -25 -12 -47 hhcurveto
          -9 -7 1 3 -5 hvcurveto
          137 111 rmoveto
          41 20 65 38 22 vhcurveto
          16 -3 -5 -34 -2 vvcurveto
          -42 -20 -57 -39 -23 vhcurveto
          -13 3 3 23 7 vvcurveto
          endchar
        </CharString>
        <CharString name="otilde">
          -21 2 89 rmoveto
          -46 6 -41 52 16 27 -2 12 15 vhcurveto
          88 54 79 4 84 29 63 51 rlinecurve
          -8 9 rlineto
          -24 -48 -68 -32 -54 hhcurveto
          -20 hlineto
          30 55 19 29 58 6 -2 25 7 vvcurveto
          15 -9 -17 4 -17 hhcurveto
          -62 -19 -115 -47 -23 -2 -22 12 -20 hvcurveto
          -33 -25 -25 -12 -47 hhcurveto
          -36 -3 28 31 77 66 58 70 21 hvcurveto
          19 -7 -9 1 -15 hhcurveto
          -77 -57 -113 -63 hvcurveto
          184 56 rmoveto
          41 20 65 38 22 vhcurveto
          16 -3 -5 -34 -2 vvcurveto
          -42 -20 -57 -39 -23 vhcurveto
          -13 3 3 23 7 vvcurveto
          -73 272 rmoveto
          45 34 -52 52 hhcurveto
          55 48 16 78 33 -13 32 -29 -9 -16 0 -16 hvcurveto
          31 6 -16 -39 -58 -35 6 -38 hvcurveto
          -50 -27 44 -47 hhcurveto
          -23 9 -55 -13 3 -63 rrcurveto
          11 hlineto
          17 15 18 22 24 hhcurveto
          endchar
        </CharString>
        <CharString name="p">
          -32 -43 -360 rmoveto
          -4 3 15 -11 3 hhcurveto
          5 -1 32 5 17 50 8 26 rlinecurve
          2 20 22 73 3 8 rrcurveto
          23 18 94 24 vvcurveto
          8 10 rlineto
          3 22 3 7 3 vhcurveto
          351 69 -79 142 -4 -56 -19 -38 -207 -91 11 30 70 12 122 248 -122 16 -63 -15 -67 -49 -43 -71 10 36 1 60 -30 -8 -48 -126 43 -65 -16 -38 -50 -114 -65 -98 29 -125 3 -8 6 -30 2 -7 rrcurveto
          12 68 rmoveto
          -19 99 45 112 61 77 -3 -116 -7 -111 -56 -104 -16 8 -1 20 -4 15 rrcurveto
          251 547 rmoveto
          114 30 -155 -274 -87 -8 -19 90 67 141 80 21 rrcurveto
          endchar
        </CharString>
        <CharString name="paragraph">
          -4 340 66 rmoveto
          -11 -7 59 -162 182 112 -12 101 109 vvcurveto
          13 vlineto
          5 0 6 -1 5 vhcurveto
          -1 17 rlineto
          12 vlineto
          11 -3 -6 -1 -8 -53 -27 -15 -44 hhcurveto
          24 -28 -35 14 -39 hhcurveto
          -73 -45 -49 -76 -75 44 -36 75 37 12 8 19 41 hvcurveto
          9 -9 24 -276 rlineto
          3 -43 31 67 17 vvcurveto
          28 vlineto
          -8 46 -11 210 -8 81 20 1 21 5 21 8 rrcurveto
          -120 16 -113 -119 vvcurveto
          endchar
        </CharString>
        <CharString name="parenleft">
          -125 81 233 rmoveto
          -20 -73 -5 -256 83 -24 13 -3 7 5 3 13 -25 -8 -65 218 42 104 rrcurveto
          58 22 83 192 63 hhcurveto
          9 20 -14 1 -12 4 -55 16 -113 -212 -16 -55 rrcurveto
          endchar
        </CharString>
        <CharString name="parenright">
          -143 77 -41 rmoveto
          -28 -28 -18 47 -13 -60 102 -97 117 409 6 118 16 65 8 110 -84 22 -23 7 -17 -2 -7 -28 53 -15 30 -31 3 -59 -16 -107 -75 -292 -54 -59 rrcurveto
          endchar
        </CharString>
        <CharString name="percent">
          -56 174 362 rmoveto
          -120 -372 30 3 33 12 118 417 rcurveline
          3 15 -9 7 -13 1 -37 -29 -86 -81 -32 63 rrcurveto
          13 47 58 -47 41 vvcurveto
          26 -32 -6 -12 -32 -38 -27 -41 -36 47 -17 27 vhcurveto
          28 22 24 26 hhcurveto
          25 -240 rmoveto
          -52 14 -37 49 vhcurveto
          225 47 -212 290 -76 -248 rrcurveto
          40 hmoveto
          16 161 171 -166 -158 -49 rrcurveto
          -29 0 33 21 hvcurveto
          endchar
        </CharString>
        <CharString name="percent.001">
          -64 191 305 rmoveto
          -211 -327 30 -9 34 7 222 370 rcurveline
          7 13 -7 10 -12 5 -43 -19 -104 -55 -15 68 24 43 42 -61 13 40 8 26 -35 -1 -10 6 -30 7 -47 -15 -8 -40 -9 -34 39 -28 27 -8 26 -5 31 15 22 -7 rrcurveto
          -37 -238 rmoveto
          -13 -51 2 -38 49 -13 231 -11 -135 332 -134 -219 rrcurveto
          39 -10 rmoveto
          59 151 117 -207 -162 -4 -25 8 2 29 9 23 rrcurveto
          endchar
        </CharString>
        <CharString name="period">
          -282 93 46 rmoveto
          -60 -5 52 -84 28 52 3 11 -14 22 -9 4 rrcurveto
          endchar
        </CharString>
        <CharString name="periodcentered">
          -282 68 275 rmoveto
          -54 -18 64 -70 19 59 rrcurveto
          12 -18 17 -11 vhcurveto
          endchar
        </CharString>
        <CharString name="plus">
          8 154 73 rmoveto
          34 hlineto
          36 137 180 -43 11 68 -20 -11 rlinecurve
          -141 17 rlineto
          1 -4 -16 7 -4 hhcurveto
          32 118 4 19 -11 3 -9 3 rlinecurve
          -11 3 -10 -1 -4 -12 -12 -44 -4 -39 -12 -51 -153 41 rcurveline
          -7 -27 11 -11 23 -9 20 -4 83 -22 22 -3 rrcurveto
          endchar
        </CharString>
        <CharString name="plusminus">
          -13 36 108 rmoveto
          -5 0 -14 11 1 vhcurveto
          303 10 rlineto
          19 1 2 6 12 vvcurveto
          9 -4 10 -11 vhcurveto
          -6 hlineto
          -14 -2 -60 0 -64 -4 rrcurveto
          -6 140 hlineto
          185 5 -9 71 -15 -18 -22 -5 -97 -12 -22 -3 rrcurveto
          -4 -17 2 -3 hhcurveto
          122 vlineto
          17 -12 3 -11 -11 -10 -4 -12 vhcurveto
          -45 7 -40 -52 vvcurveto
          -157 hlineto
          -27 13 -9 25 -1 vhcurveto
          19 89 3 20 hhcurveto
          -137 -21 vlineto
          -37 -32 -2 -1 -9 hvcurveto
          -20 -19 7 -26 hvcurveto
          endchar
        </CharString>
        <CharString name="q">
          -14 115 -259 rmoveto
          -21 2 -74 41 vhcurveto
          130 43 -14 181 -21 105 123 79 189 229 -320 -276 rrcurveto
          -43 19 3 5 -46 hvcurveto
          5 25 44 124 5 22 rrcurveto
          10 31 9 -5 22 vvcurveto
          16 -11 12 -16 -72 -88 -42 -61 -48 vhcurveto
          -42 -45 53 -98 63 27 -3 -4 -13 -17 -3 -7 -7 -27 43 -29 21 -9 rrcurveto
          -7 1 -29 -7 vvcurveto
          -1 -60 -10 -53 -53 vvcurveto
          105 231 rmoveto
          13 -8 -4 -104 -9 vvcurveto
          -40 0 -129 -68 vhcurveto
          -25 17 -6 5 36 273 rrcurveto
          -51 24 rmoveto
          8 6 7 9 8 7 -6 -8 -7 -3 -7 -7 -13 -7 4 9 vhcurveto
          48 81 rmoveto
          -10 -5 -25 -5 vhcurveto
          -42 hlineto
          -81 42 rmoveto
          1 0 0 1 1 vhcurveto
          12 15 76 67 16 13 rrcurveto
          11 13 26 19 19 hhcurveto
          -83 -52 -61 -82 -11 -18 1 13 vhcurveto
          1 43 rmoveto
          -1 1 0 0 0 vvcurveto
          3 vlineto
          21 36 27 21 5 vhcurveto
          endchar
        </CharString>
        <CharString name="question">
          21 105 -22 rmoveto
          -4 -10 -5 -20 16 2 rrcurveto
          1 14 11 7 3 hvcurveto
          1 2 rlineto
          1 1 0 1 vvcurveto
          4 16 -1 11 -9 4 -11 1 -5 -7 -5 -19 rrcurveto
          58 161 rmoveto
          7 41 7 41 11 40 rrcurveto
          3 5 11 3 vvcurveto
          73 57 54 37 29 115 30 107 -25 93 -68 18 -51 13 -99 -66 -24 -93 -9 -31 0 -26 8 -19 9 -19 6 0 3 20 3 21 2 14 -1 7 -1 7 2 9 5 10 30 74 65 50 49 -13 rrcurveto
          45 -13 12 -81 -19 -78 -8 -38 -18 -84 -123 -63 2 -24 -82 -237 71 94 rrcurveto
          endchar
        </CharString>
        <CharString name="questiondown">
          -32 262 563 rmoveto
          4 -15 5 -6 9 1 8 3 0 9 -3 13 rrcurveto
          1 -1 0 1 vvcurveto
          -1 1 rlineto
          5 -3 -11 10 -1 hhcurveto
          -12 -2 -15 -8 8 hvcurveto
          50 -132 rmoveto
          -64 76 76 -195 -5 -19 107 -52 14 -68 8 -32 16 -64 -9 -67 -40 -11 -41 -11 -58 43 -25 60 -8 16 6 6 -7 33 -3 17 -5 0 -7 -16 -7 -15 0 -21 8 -26 19 -78 88 -52 43 10 rrcurveto
          58 16 24 75 -28 88 -24 95 -48 31 -62 46 rrcurveto
          3 -5 10 1 vvcurveto
          -9 33 -7 33 -5 35 rrcurveto
          endchar
        </CharString>
        <CharString name="quotedbl">
          -207 29 496 rmoveto
          -17 21 -88 13 vhcurveto
          4 hlineto
          11 25 0 10 23 vvcurveto
          18 -6 48 -28 -11 -4 -10 -9 vhcurveto
          83 10 rmoveto
          -21 41 -66 7 -22 vhcurveto
          9 11 rlineto
          0 3 25 -1 7 vhcurveto
          27 8 63 -44 -11 -12 -12 -12 vhcurveto
          endchar
        </CharString>
        <CharString name="quotedblbase">
          -185 39 45 rmoveto
          -17 18 -88 16 vhcurveto
          3 1 rlineto
          11 24 0 12 21 vvcurveto
          19 -4 48 -30 -11 -3 -11 -9 vhcurveto
          82 10 rmoveto
          -20 41 -68 7 -20 vhcurveto
          10 10 rlineto
          0 3 25 -1 8 vhcurveto
          26 8 63 -44 -11 -13 -11 -13 vhcurveto
          endchar
        </CharString>
        <CharString name="quotedblleft">
          -145 91 496 rmoveto
          -17 21 -88 13 vhcurveto
          4 hlineto
          11 25 0 10 23 vvcurveto
          18 -5 48 -29 -11 -4 -10 -9 vhcurveto
          84 10 rmoveto
          -1 -21 40 -66 8 -22 9 11 rcurveline
          0 3 25 -1 7 vhcurveto
          27 8 63 -44 -11 -11 -12 -12 vhcurveto
          endchar
        </CharString>
        <CharString name="quotedblright">
          -145 91 496 rmoveto
          -17 21 -88 13 vhcurveto
          4 hlineto
          11 25 0 10 23 vvcurveto
          18 -5 48 -29 -11 -4 -10 -9 vhcurveto
          84 10 rmoveto
          -1 -21 40 -66 8 -22 9 11 rcurveline
          0 3 25 -1 7 vhcurveto
          27 8 63 -44 -11 -11 -12 -12 vhcurveto
          endchar
        </CharString>
        <CharString name="quoteleft">
          -311 24 392 rmoveto
          -3 6 -7 3 vhcurveto
          30 25 12 46 5 34 rrcurveto
          28 3 -28 23 -24 hhcurveto
          -24 11 -12 -25 -28 -18 -32 -25 vvcurveto
          endchar
        </CharString>
        <CharString name="quoteright">
          -267 48 373 rmoveto
          -4 3 -8 3 vhcurveto
          33 10 27 50 12 28 9 27 -19 29 -23 7 -8 -23 9 -15 -7 -24 -7 -27 -25 -26 -7 -24 rrcurveto
          endchar
        </CharString>
        <CharString name="quotesinglbase">
          -281 43 -42 rmoveto
          -4 6 -6 3 vhcurveto
          30 20 13 53 5 30 rrcurveto
          29 3 -28 23 -25 hhcurveto
          -24 12 -12 -25 -27 -19 -33 -24 vvcurveto
          endchar
        </CharString>
        <CharString name="quotesingle">
          -311 24 392 rmoveto
          -3 6 -7 3 vhcurveto
          30 25 12 46 5 34 rrcurveto
          28 3 -28 23 -24 hhcurveto
          -24 11 -12 -25 -28 -18 -32 -25 vvcurveto
          endchar
        </CharString>
        <CharString name="r">
          -24 416 47 rmoveto
          43 -148 -88 -4 62 vhcurveto
          60 22 64 62 vvcurveto
          -23 -112 -30 -2 -11 hvcurveto
          91 119 -185 12 -1 -112 rrcurveto
          -28 27 -12 20 -8 vhcurveto
          -26 -74 -7 -74 -53 3 -41 -53 124 -7 41 205 rrcurveto
          8 25 75 13 24 hhcurveto
          -43 -19 -40 -44 vvcurveto
          -24 -108 161 44 44 28 rrcurveto
          -334 200 rmoveto
          25 83 53 -63 -49 -49 rrcurveto
          -13 5 -16 7 17 vvcurveto
          endchar
        </CharString>
        <CharString name="racute">
          -24 416 47 rmoveto
          43 -148 -88 -4 62 vhcurveto
          60 22 64 62 vvcurveto
          -23 -112 -30 -2 -11 hvcurveto
          91 119 -185 12 -1 -112 rrcurveto
          -28 27 -12 20 -8 vhcurveto
          -26 -74 -7 -74 -53 3 -41 -53 124 -7 41 205 rrcurveto
          8 25 75 13 24 hhcurveto
          -43 -19 -40 -44 vvcurveto
          -24 -108 161 44 44 28 rrcurveto
          -334 200 rmoveto
          25 83 53 -63 -49 -49 rrcurveto
          -13 5 -16 7 17 vvcurveto
          42 249 rmoveto
          -3 -4 3 -10 4 -1 43 11 20 28 20 32 48 75 -55 11 -38 -77 -13 -31 -16 -8 -13 -26 rrcurveto
          endchar
        </CharString>
        <CharString name="rcaron">
          -24 416 47 rmoveto
          43 -148 -88 -4 62 vhcurveto
          60 22 64 62 vvcurveto
          -23 -112 -30 -2 -11 hvcurveto
          91 119 -185 12 -1 -112 rrcurveto
          -28 27 -12 20 -8 vhcurveto
          -26 -74 -7 -74 -53 3 -41 -53 124 -7 41 205 rrcurveto
          8 25 75 13 24 hhcurveto
          -43 -19 -40 -44 vvcurveto
          -24 -108 161 44 44 28 rrcurveto
          -334 200 rmoveto
          25 83 53 -63 -49 -49 rrcurveto
          -13 5 -16 7 17 vvcurveto
          210 259 rmoveto
          -68 -164 -77 116 -54 50 rrcurveto
          -5 -27 -8 -3 -3 hvcurveto
          82 -114 111 -68 79 182 rrcurveto
          1 vlineto
          1 1 rlineto
          7 -11 4 -13 -7 -5 -1 -3 -3 vhcurveto
          endchar
        </CharString>
        <CharString name="registered">
          94 226 -1 rmoveto
          186 13 71 125 107 vvcurveto
          132 -103 79 -117 -139 -96 -120 -137 vhcurveto
          -108 -11 103 -91 106 hhcurveto
          -56 77 rmoveto
          22 10 20 -17 8 175 rrcurveto
          71 -6 -167 8 62 hvcurveto
          15 42 23 19 22 hvcurveto
          -56 -33 -59 -38 -96 hhcurveto
          -88 -98 64 101 121 102 104 116 hvcurveto
          153 11 67 -166 -54 -121 rrcurveto
          -12 -17 -46 -9 -16 hhcurveto
          -42 -13 95 27 -30 hvcurveto
          92 -8 55 203 -117 -56 -19 -11 -52 -49 -3 -9 rrcurveto
          6 -4 26 5 vvcurveto
          5 -3 -2 15 -9 -7 -23 -20 -2 hhcurveto
          3 -23 4 1 4 1 3 3 rlinecurve
          8 9 rlineto
          3 3 2 -1 -20 vvcurveto
          -47 -91 -69 -165 81 4 rrcurveto
          123 273 rmoveto
          100 84 -98 -196 -75 29 -5 39 43 17 35 27 rrcurveto
          -91 -98 rmoveto
          2 -51 -34 -142 -10 45 rrcurveto
          36 20 85 22 27 vhcurveto
          endchar
        </CharString>
        <CharString name="ring">
          -116 138 540 rmoveto
          37 33 33 45 43 -28 12 -32 -39 -26 -26 -43 hvcurveto
          -36 -3 27 -28 31 hhcurveto
          -45 63 rmoveto
          37 26 18 32 vhcurveto
          16 -3 39 -4 -11 -53 rrcurveto
          -25 -35 -19 -16 -25 -26 17 32 vhcurveto
          endchar
        </CharString>
        <CharString name="s">
          38 85 55 rmoveto
          -27 59 38 -39 60 hhcurveto
          61 -12 162 78 75 vvcurveto
          10 vlineto
          -60 -79 15 -50 -126 hhcurveto
          187 vlineto
          20 20 16 20 vvcurveto
          9 -2 10 -12 -30 -7 -39 -18 -15 vhcurveto
          -10 -10 -38 -39 -10 -8 -14 -11 -64 -53 -16 -11 rrcurveto
          -5 hlineto
          -5 hlineto
          -2 -33 9 -1 hhcurveto
          -7 -7 -6 -3 4 hvcurveto
          19 -29 -94 -34 56 -41 83 56 rlinecurve
          39 29 rmoveto
          14 11 59 63 12 10 4 4 20 13 5 3 rrcurveto
          9 -52 3 -51 -53 vvcurveto
          -39 -71 21 31 -16 hvcurveto
          endchar
        </CharString>
        <CharString name="sacute">
          38 85 55 rmoveto
          -27 59 38 -39 60 hhcurveto
          61 -12 162 78 75 vvcurveto
          10 vlineto
          -60 -79 15 -50 -126 hhcurveto
          187 vlineto
          20 20 16 20 vvcurveto
          9 -2 10 -12 -30 -7 -39 -18 -15 vhcurveto
          -10 -10 -38 -39 -10 -8 -14 -11 -64 -53 -16 -11 rrcurveto
          -5 hlineto
          -5 hlineto
          -2 -33 9 -1 hhcurveto
          -7 -7 -6 -3 4 hvcurveto
          19 -29 -94 -34 56 -41 83 56 rlinecurve
          39 29 rmoveto
          14 11 59 63 12 10 4 4 20 13 5 3 rrcurveto
          9 -52 3 -51 -53 vvcurveto
          -39 -71 21 31 -16 hvcurveto
          60 287 rmoveto
          -3 -4 3 -10 4 -1 43 11 20 28 20 32 48 75 -55 11 -38 -77 -13 -31 -16 -8 -13 -26 rrcurveto
          endchar
        </CharString>
        <CharString name="scaron">
          38 85 55 rmoveto
          -27 59 38 -39 60 hhcurveto
          61 -12 162 78 75 vvcurveto
          10 vlineto
          -60 -79 15 -50 -126 hhcurveto
          187 vlineto
          20 20 16 20 vvcurveto
          9 -2 10 -12 -30 -7 -39 -18 -15 vhcurveto
          -10 -10 -38 -39 -10 -8 -14 -11 -64 -53 -16 -11 rrcurveto
          -5 hlineto
          -5 hlineto
          -2 -33 9 -1 hhcurveto
          -7 -7 -6 -3 4 hvcurveto
          19 -29 -94 -34 56 -41 83 56 rlinecurve
          39 29 rmoveto
          14 11 59 63 12 10 4 4 20 13 5 3 rrcurveto
          9 -52 3 -51 -53 vvcurveto
          -39 -71 21 31 -16 hvcurveto
          191 370 rmoveto
          -68 -164 -77 116 -54 50 rrcurveto
          -5 -27 -8 -3 -3 hvcurveto
          82 -114 111 -68 79 182 rrcurveto
          1 vlineto
          1 1 rlineto
          7 -11 4 -13 -7 -5 -1 -3 -3 vhcurveto
          endchar
        </CharString>
        <CharString name="section">
          18 328 143 rmoveto
          49 -84 -276 -138 56 161 -1 -3 -17 -5 -3 -3 -3 -4 rcurveline
          -42 -217 357 221 -93 108 31 43 3 21 -16 17 5 125 -111 3 -83 -39 -61 21 -54 26 11 44 62 99 173 10 -16 -115 rrcurveto
          3 17 4 1 4 hvcurveto
          3 5 9 241 -485 -228 296 -131 rlinecurve
          -79 -59 -9 -96 270 -28 rrcurveto
          -180 87 rmoveto
          1 -1 -1 -1 -1 vhcurveto
          -7 9 -6 11 -4 11 13 20 18 18 24 13 65 54 83 -33 16 -60 11 -33 -11 -21 -25 -16 -39 -19 -56 8 -80 39 rrcurveto
          endchar
        </CharString>
        <CharString name="semicolon">
          -242 100 -50 rmoveto
          -3 -2 -7 -1 vvcurveto
          -3 -13 -1 -19 -4 -19 -1 -11 -2 -11 -2 -11 9 -3 rcurveline
          19 -2 17 49 13 vvcurveto
          5 16 10 28 -26 7 -9 4 -7 -6 -3 -11 rrcurveto
          -14 130 rmoveto
          -3 -13 4 -8 13 -3 13 -4 8 5 3 13 3 13 -4 8 -12 3 -13 3 -8 -4 -4 -13 rrcurveto
          endchar
        </CharString>
        <CharString name="seven">
          -137 81 85 rmoveto
          -10 -29 -34 -103 24 -7 rrcurveto
          2 hlineto
          2 hlineto
          6 4 23 22 1 hhcurveto
          3 5 -1 16 -3 3 25 95 rcurveline
          35 131 46 122 37 128 3 11 10 46 3 10 rrcurveto
          16 -3 -1 -5 vhcurveto
          -44 11 -45 -10 -40 7 -21 7 -11 17 -23 7 -28 -107 rcurveline
          25 -8 -8 32 19 7 37 9 66 -16 33 -12 -37 -139 -48 -135 -37 -141 rrcurveto
          endchar
        </CharString>
        <CharString name="six">
          -112 36 220 rmoveto
          -73 -277 233 -87 86 284 15 58 -27 44 -29 5 -17 6 -63 -47 -46 -173 -44 13 -36 66 27 98 27 109 87 167 63 66 5 11 rcurveline
          4 12 -1 15 -8 1 -3 2 rcurveline
          -84 -81 -79 -144 -37 -148 rrcurveto
          122 -129 rmoveto
          15 49 23 57 37 -13 19 -4 -3 -33 -9 -29 -11 -51 -47 -45 -26 8 -17 3 16 37 3 21 rrcurveto
          endchar
        </CharString>
        <CharString name="slash">
          34 24 27 rmoveto
          1 -12 7 -9 11 1 3 1 rcurveline
          1 0 1 1 hvcurveto
          95 144 129 146 128 117 rrcurveto
          5 3 17 22 7 vvcurveto
          5 19 -18 -2 -8 -1 rrcurveto
          -3 1 -2 1 -4 hvcurveto
          -3 -1 -379 -424 11 -13 1 1 rlinecurve
          endchar
        </CharString>
        <CharString name="space">
          56 endchar
        </CharString>
        <CharString name="sterling">
          312 641 476 rmoveto
          -89 94 -220 30 -32 -317 rrcurveto
          8 -25 -98 24 -24 hhcurveto
          -13 -15 5 -17 -3 0 -9 7 1 hvcurveto
          158 -35 -14 -21 -23 -93 -15 -18 rlinecurve
          -63 59 -165 22 4 -103 5 -110 52 45 167 35 343 12 113 -241 4 241 -18 -12 rcurveline
          -20 -133 -77 164 -322 8 rrcurveto
          25 17 30 110 6 hhcurveto
          168 -22 rlineto
          3 47 -20 46 -186 hhcurveto
          80 500 345 -485 -107 187 rrcurveto
          -604 -387 rmoveto
          -8 93 176 -32 25 -50 -107 8 -67 -72 -19 53 rrcurveto
          endchar
        </CharString>
        <CharString name="t">
          -154 17 212 rmoveto
          -15 -152 29 -71 99 3 50 6 88 17 24 43 -75 14 28 -46 -113 -16 rrcurveto
          -67 -23 61 58 25 11 33 11 25 hvcurveto
          46 -8 80 -7 65 vvcurveto
          -35 -3 -60 -33 -33 16 rrcurveto
          5 vlineto
          47 189 rlineto
          1 1 8 1 vvcurveto
          9 1 6 -11 3 vhcurveto
          -19 -19 -47 -179 -12 -48 -75 44 2 -48 rlinecurve
          -2 -17 52 6 6 6 rrcurveto
          endchar
        </CharString>
        <CharString name="thorn">
          -32 56 13 rmoveto
          45 -205 19 97 -16 290 216 11 83 291 -144 48 -63 -13 -67 -52 -44 -69 12 37 -1 259 -26 -9 -52 -120 49 -270 -16 -37 rrcurveto
          182 231 rmoveto
          129 33 -113 -341 -137 58 -21 85 62 150 80 15 rrcurveto
          endchar
        </CharString>
        <CharString name="three">
          -9 27 132 rmoveto
          -24 -86 52 -63 38 -13 81 -21 130 55 39 175 25 97 -32 55 -36 44 rrcurveto
          1 0 0 1 1 vhcurveto
          4 vlineto
          1 3 rlineto
          1 0 1 1 1 vhcurveto
          1 2 2 3 3 vhcurveto
          1 1 1 2 2 1 10 12 32 45 23 40 19 31 -10 10 -1 1 -4 3 -15 -5 -3 -5 -17 5 -72 20 -14 3 -8 1 -25 8 -23 3 -23 3 -23 -8 -3 -7 -7 -20 -4 -25 15 -4 rrcurveto
          31 -6 37 17 44 -10 9 -3 35 -10 8 -5 rrcurveto
          4 1 -10 -1 hvcurveto
          -27 -91 -110 24 -12 -49 -4 -17 7 -1 7 -3 20 -7 23 10 21 -7 41 -11 36 -72 -21 -81 -37 -132 -93 -36 -65 10 -31 3 -36 53 14 58 8 30 29 19 5 31 4 12 -2 7 -7 1 rrcurveto
          -3 2 -31 -23 -22 -23 -15 -55 rlinecurve
          endchar
        </CharString>
        <CharString name="threequarters">
          255 148 292 rmoveto
          -16 -50 33 -36 21 -7 45 -13 77 33 21 100 16 56 -20 32 -20 26 rrcurveto
          0 0 0 1 vvcurveto
          2 vlineto
          1 2 rlineto
          0 0 1 1 vvcurveto
          1 1 1 2 1 vhcurveto
          3 2 5 8 18 25 14 24 rlinecurve
          11 17 -6 6 1 vvcurveto
          -3 1 -9 -2 -1 -3 -9 2 -44 11 -6 3 -11 4 -45 9 -5 -13 -4 -12 -2 -14 8 -3 19 -3 20 9 26 -5 4 -2 21 -6 5 -2 rrcurveto
          3 0 -6 -1 hvcurveto
          -15 -53 -63 14 -8 -28 -3 -9 5 -2 4 -1 11 -4 13 6 13 -4 24 -6 18 -42 -10 -47 -21 -77 -55 -19 -36 5 rrcurveto
          -19 -20 33 33 8 hvcurveto
          6 17 15 11 3 18 3 7 -1 3 -5 1 -1 2 rcurveline
          -19 -13 -12 -14 -8 -32 rrcurveto
          81 -192 rmoveto
          1 -12 7 -9 11 1 3 1 rcurveline
          1 0 1 1 hvcurveto
          95 144 129 146 128 117 rrcurveto
          5 3 17 22 7 vvcurveto
          5 19 -18 -2 -8 -1 rrcurveto
          -3 1 -2 1 -4 hvcurveto
          -3 -1 -379 -424 11 -13 1 1 rlinecurve
          254 -125 rmoveto
          -5 -1 5 -2 3 hhcurveto
          8 -1 5 7 4 9 1 5 3 8 -4 1 11 56 1 21 16 44 rrcurveto
          4 6 17 2 5 vhcurveto
          14 20 7 21 8 hvcurveto
          3 10 3 14 -10 3 -2 -12 -14 -22 -11 3 -4 1 -3 3 3 9 22 100 rcurveline
          1 1 -3 8 -3 3 rrcurveto
          0 -1 1 0 vhcurveto
          -4 1 -2 -4 -4 -7 -3 -33 -10 -21 -8 -32 rrcurveto
          -3 -8 -4 -13 -2 vvcurveto
          -5 -4 rlineto
          -1 -10 2 -4 hhcurveto
          -24 7 -19 15 -24 5 2 6 rcurveline
          50 72 rlineto
          5 2 5 4 1 hvcurveto
          2 7 -2 4 -5 1 rrcurveto
          -7 -89 -110 -5 hvcurveto
          -3 -5 0 -4 4 -4 17 7 9 -1 11 -2 11 -3 rcurveline
          22 -8 48 -18 -1 -2 rrcurveto
          endchar
        </CharString>
        <CharString name="threesuperior">
          -168 174 338 rmoveto
          -11 -41 24 -25 18 -8 40 -8 62 24 18 79 11 46 -15 23 -16 21 rrcurveto
          0 0 0 1 vvcurveto
          1 vlineto
          2 vlineto
          0 0 0 1 1 vhcurveto
          1 1 1 1 1 vhcurveto
          2 2 5 5 15 21 11 18 rlinecurve
          13 9 -4 6 -1 hhcurveto
          -1 1 -8 -1 -1 -3 -10 3 -31 7 -9 3 rrcurveto
          -8 -37 11 -11 -5 hvcurveto
          -3 -9 -2 -11 7 -3 15 -3 18 9 21 -5 rrcurveto
          -1 1 21 -7 3 hhcurveto
          1 1 -5 -1 hvcurveto
          -12 -41 -55 11 -4 -22 -3 -8 4 -1 3 -1 11 -3 9 5 11 -4 19 -5 19 -32 -11 -37 -18 -60 -44 -17 -31 5 rrcurveto
          -16 -15 25 27 5 hvcurveto
          5 13 12 10 3 13 2 5 -1 3 -3 1 -2 1 rcurveline
          -15 -11 -10 -10 -7 -25 rrcurveto
          endchar
        </CharString>
        <CharString name="tilde">
          -27 109 560 rmoveto
          45 34 -52 52 hhcurveto
          55 48 16 78 33 -13 32 -29 -9 -16 0 -16 hvcurveto
          31 6 -16 -39 -58 -35 6 -38 hvcurveto
          -50 -27 44 -47 hhcurveto
          -23 9 -55 -13 3 -63 rrcurveto
          11 hlineto
          17 15 18 22 24 hhcurveto
          endchar
        </CharString>
        <CharString name="trademark">
          770 1016 -52 rmoveto
          -80 19 44 -74 95 hhcurveto
          25 -8 72 43 -65 -23 -278 48 136 331 5 197 rrcurveto
          40 vlineto
          28 -6 40 -24 vhcurveto
          -72 -13 -81 -181 -59 -105 5 21 18 116 2 22 rrcurveto
          5 vlineto
          8 1 8 8 vvcurveto
          10 vlineto
          -15 51 3 6 -165 -211 rrcurveto
          44 7 34 36 vvcurveto
          23 5 37 -32 -32 -44 -33 -13 -29 vhcurveto
          -3 -2 -31 -5 -9 vvcurveto
          -7 4 -3 7 vhcurveto
          3 1 8 3 22 10 95 38 rlinecurve
          2 7 3 -27 -35 vvcurveto
          -33 vlineto
          -21 -2 -16 -3 -3 vhcurveto
          -6 -20 -12 -45 -113 -140 rrcurveto
          -13 -15 -1 -5 -19 vvcurveto
          -20 6 0 20 43 37 46 39 13 vhcurveto
          4 11 15 48 7 27 6 23 rcurveline
          22 26 101 128 21 25 2 4 22 18 3 -22 rrcurveto
          -48 -279 2 -20 -9 vvcurveto
          -1 4 -5 3 3 8 5 1 1 vhcurveto
          5 16 27 80 8 13 43 91 57 123 87 69 rrcurveto
          4 2 -6 -4 1 hvcurveto
          2 -10 rlineto
          -10 vlineto
          -9 1 -12 -12 vvcurveto
          -9 vlineto
          -3 -148 -35 -139 11 -147 rrcurveto
          -987 196 rmoveto
          -80 104 -58 73 157 84 196 124 28 vhcurveto
          6 34 9 46 9 74 2 19 rlinecurve
          5 32 35 17 34 vvcurveto
          16 -3 -7 17 -17 hhcurveto
          -25 -18 -6 -58 -2 -22 rrcurveto
          -52 -47 -76 -37 -73 -51 -44 11 -51 hhcurveto
          25 10 41 -28 -12 vhcurveto
          -84 vlineto
          14 50 51 -14 50 hhcurveto
          97 -5 50 37 56 46 -1 -139 -37 -131 -80 -108 rrcurveto
          -47 -36 -54 -37 -64 hhcurveto
          -64 -91 51 72 51 39 27 43 hvcurveto
          15 -16 2 -11 -49 -25 -61 -38 vhcurveto
          508 -128 rmoveto
          34 73 76 20 23 vhcurveto
          -3 vlineto
          -5 -15 -19 -52 -2 -4 rrcurveto
          -20 -10 -30 -39 -27 hhcurveto
          -16 566 rmoveto
          -3 1 -3 -3 vvcurveto
          -9 0 -7 -8 -7 vhcurveto
          16 2 8 5 8 vhcurveto
          endchar
        </CharString>
        <CharString name="two">
          -95 215 328 rmoveto
          -79 -100 -87 -84 -40 -158 25 -6 28 54 23 -8 38 -10 20 -49 38 -8 30 -8 48 14 24 71 2 11 20 96 -5 6 -35 35 rcurveline
          -5 5 -3 -14 -3 -8 -11 -35 29 -26 -16 -49 -14 -57 -24 16 -21 3 -42 13 -31 39 -41 14 29 114 119 33 43 177 22 74 5 67 -42 13 -44 9 -63 -65 -28 -90 -4 -17 2 -10 8 -1 rrcurveto
          11 -4 13 35 17 29 19 31 24 30 25 -7 31 -8 -5 -35 -15 -53 -9 -33 -5 -22 -21 -24 rrcurveto
          endchar
        </CharString>
        <CharString name="twosuperior">
          -123 300 398 rmoveto
          -48 -51 -56 -45 -24 -81 15 -3 17 26 15 -2 22 -7 15 -25 23 -3 19 -5 30 9 15 36 rrcurveto
          5 14 49 -4 4 vhcurveto
          -21 19 -4 3 -2 -8 -1 -4 rlinecurve
          -8 -18 20 -14 -11 -25 -8 -30 -17 8 -12 2 -26 5 -20 23 -25 6 16 61 76 15 27 93 14 38 3 34 -26 8 -30 3 -35 -32 -20 -47 -2 -9 1 -5 5 -1 13 -3 23 70 32 -8 rrcurveto
          20 -4 -4 -18 -9 -28 -5 -17 -4 -11 -13 -13 rrcurveto
          endchar
        </CharString>
        <CharString name="u">
          -26 85 260 rmoveto
          -120 -222 33 -42 57 -5 rrcurveto
          102 14 73 69 36 hvcurveto
          -84 -9 39 -39 79 hhcurveto
          103 18 59 81 -162 -80 -43 -3 -71 0 43 221 rrcurveto
          8 -9 2 -5 -1 -1 -3 -3 -3 vhcurveto
          -6 -6 rlineto
          -59 -77 -166 -81 -23 -11 -1 24 vhcurveto
          8 89 76 73 -27 55 rrcurveto
          endchar
        </CharString>
        <CharString name="uacute">
          -26 85 260 rmoveto
          -120 -222 33 -42 57 -5 rrcurveto
          102 14 73 69 36 hvcurveto
          -84 -9 39 -39 79 hhcurveto
          103 18 59 81 -162 -80 -43 -3 -71 0 43 221 rrcurveto
          8 -9 2 -5 -1 -1 -3 -3 -3 vhcurveto
          -6 -6 rlineto
          -59 -77 -166 -81 -23 -11 -1 24 vhcurveto
          8 89 76 73 -27 55 rrcurveto
          59 87 rmoveto
          -3 -4 3 -10 4 -1 43 11 20 28 20 32 48 75 -55 11 -38 -77 -13 -31 -16 -8 -13 -26 rrcurveto
          endchar
        </CharString>
        <CharString name="ucircumflex">
          -26 85 260 rmoveto
          -120 -222 33 -42 57 -5 rrcurveto
          102 14 73 69 36 hvcurveto
          -84 -9 39 -39 79 hhcurveto
          103 18 59 81 -162 -80 -43 -3 -71 0 43 221 rrcurveto
          8 -9 2 -5 -1 -1 -3 -3 -3 vhcurveto
          -6 -6 rlineto
          -59 -77 -166 -81 -23 -11 -1 24 vhcurveto
          8 89 76 73 -27 55 rrcurveto
          164 58 rmoveto
          -4 2 3 -2 4 hhcurveto
          9 9 7 7 hvcurveto
          0 -1 1 1 vvcurveto
          1 vlineto
          3 -12 19 -1 2 vhcurveto
          -14 33 -35 64 46 vvcurveto
          -3 hlineto
          -3 1 1 -1 hhcurveto
          -45 -32 -68 -105 -13 -31 rrcurveto
          -4 2 3 -2 4 hhcurveto
          36 27 97 22 38 hvcurveto
          16 -24 6 -15 28 -69 8 -16 rlinecurve
          endchar
        </CharString>
        <CharString name="udieresis">
          -26 85 260 rmoveto
          -120 -222 33 -42 57 -5 rrcurveto
          102 14 73 69 36 hvcurveto
          -84 -9 39 -39 79 hhcurveto
          103 18 59 81 -162 -80 -43 -3 -71 0 43 221 rrcurveto
          8 -9 2 -5 -1 -1 -3 -3 -3 vhcurveto
          -6 -6 rlineto
          -59 -77 -166 -81 -23 -11 -1 24 vhcurveto
          8 89 76 73 -27 55 rrcurveto
          23 136 rmoveto
          -56 -21 69 -66 16 57 rrcurveto
          12 -20 18 -9 vhcurveto
          124 hmoveto
          -56 -21 68 -66 16 57 rrcurveto
          12 -19 18 -9 vhcurveto
          endchar
        </CharString>
        <CharString name="ugrave">
          -26 85 260 rmoveto
          -120 -222 33 -42 57 -5 rrcurveto
          102 14 73 69 36 hvcurveto
          -84 -9 39 -39 79 hhcurveto
          103 18 59 81 -162 -80 -43 -3 -71 0 43 221 rrcurveto
          8 -9 2 -5 -1 -1 -3 -3 -3 vhcurveto
          -6 -6 rlineto
          -59 -77 -166 -81 -23 -11 -1 24 vhcurveto
          8 89 76 73 -27 55 rrcurveto
          109 106 rmoveto
          -11 24 -13 7 -13 27 -32 72 -48 -8 41 -71 20 -29 16 -28 36 -8 3 1 4 9 -3 4 rrcurveto
          endchar
        </CharString>
        <CharString name="uhungarumlaut">
          -26 85 260 rmoveto
          -120 -222 33 -42 57 -5 rrcurveto
          102 14 73 69 36 hvcurveto
          -84 -9 39 -39 79 hhcurveto
          103 18 59 81 -162 -80 -43 -3 -71 0 43 221 rrcurveto
          8 -9 2 -5 -1 -1 -3 -3 -3 vhcurveto
          -6 -6 rlineto
          -59 -77 -166 -81 -23 -11 -1 24 vhcurveto
          8 89 76 73 -27 55 rrcurveto
          5 84 rmoveto
          -3 -3 4 -10 5 -1 40 9 21 30 21 31 45 77 -49 8 -41 -76 -16 -31 -11 -7 -16 -27 rrcurveto
          98 -4 rmoveto
          -3 -4 4 -10 4 -1 41 11 21 28 21 32 48 74 -55 12 -38 -77 -16 -31 -11 -8 -16 -26 rrcurveto
          endchar
        </CharString>
        <CharString name="underscore">
          44 20 9 rmoveto
          387 hlineto
          5 6 23 7 hvcurveto
          -15 -77 -1 -15 hhcurveto
          -41 -2 -209 -5 -41 -3 rrcurveto
          endchar
        </CharString>
        <CharString name="uni00AD">
          -68 52 220 rmoveto
          -4 -5 -13 11 -3 vhcurveto
          214 -53 17 -3 4 4 3 11 rlinecurve
          3 9 -1 10 -12 4 -5 2 rcurveline
          -27 2 -131 35 -28 8 -19 3 -15 15 -9 -27 rrcurveto
          endchar
        </CharString>
        <CharString name="uni2215">
          82 13 21 rmoveto
          -11 4 -11 11 vhcurveto
          3 hlineto
          0 0 0 1 1 vhcurveto
          117 128 155 118 145 95 8 3 16 18 4 7 rrcurveto
          17 7 -18 3 -8 -3 -1 -1 -1 hhcurveto
          -4 hlineto
          -448 -352 12 -16 1 vvcurveto
          endchar
        </CharString>
        <CharString name="uring">
          -26 85 260 rmoveto
          -120 -222 33 -42 57 -5 rrcurveto
          102 14 73 69 36 hvcurveto
          -84 -9 39 -39 79 hhcurveto
          103 18 59 81 -162 -80 -43 -3 -71 0 43 221 rrcurveto
          8 -9 2 -5 -1 -1 -3 -3 -3 vhcurveto
          -6 -6 rlineto
          -59 -77 -166 -81 -23 -11 -1 24 vhcurveto
          8 89 76 73 -27 55 rrcurveto
          102 68 rmoveto
          37 33 33 45 43 -28 12 -32 -39 -26 -26 -43 hvcurveto
          -36 -3 27 -28 31 hhcurveto
          -45 63 rmoveto
          37 26 18 32 vhcurveto
          16 -3 39 -4 -11 -53 rrcurveto
          -25 -35 -19 -16 -25 -26 17 32 vhcurveto
          endchar
        </CharString>
        <CharString name="v">
          -149 20 279 rmoveto
          24 -140 15 -96 8 -47 rrcurveto
          -1 1 9 0 3 hhcurveto
          16 10 2 17 7 hvcurveto
          81 193 rlineto
          19 -3 61 -8 4 vvcurveto
          10 vlineto
          -9 3 -48 17 -10 2 -1 1 -14 9 -3 -1 rrcurveto
          -5 -1 -14 -11 -7 vvcurveto
          -27 -78 -7 -31 -42 -61 -9 -9 rcurveline
          -47 256 rlineto
          1 -1 0 -3 -9 -2 -16 -5 -3 vhcurveto
          endchar
        </CharString>
        <CharString name="w">
          -19 17 309 rmoveto
          -28 -457 112 160 66 119 rrcurveto
          -19 5 21 -104 31 hhcurveto
          58 11 105 28 8 hvcurveto
          -12 17 14 2 20 hhcurveto
          34 -4 80 100 -104 -68 rrcurveto
          -50 -3 12 56 -18 hvcurveto
          -19 -20 rlineto
          -15 -6 -138 -37 -8 vhcurveto
          -24 27 -6 129 -8 43 rrcurveto
          -24 hlineto
          8 -44 -121 -268 -12 172 -3 26 0 127 3 26 rrcurveto
          13 -12 12 -13 vhcurveto
          endchar
        </CharString>
        <CharString name="x">
          -102 18 -89 rmoveto
          51 -31 27 134 53 60 58 -19 119 -70 21 106 rrcurveto
          -26 -9 -35 3 -22 hvcurveto
          -42 8 -36 1 -44 34 97 181 rcurveline
          -16 24 -21 -34 -1 1 -14 -19 -46 -84 -19 -22 -58 62 -4 151 -47 -52 86 -202 rcurveline
          endchar
        </CharString>
        <CharString name="y">
          -89 -20 -390 rmoveto
          -27 14 -21 29 vhcurveto
          203 -20 -85 257 77 166 9 9 77 65 10 10 46 79 -28 -34 -10 -8 -21 -18 -79 -44 -23 -18 rrcurveto
          91 29 60 72 vvcurveto
          4 vlineto
          -3 4 -13 12 -13 -7 rrcurveto
          -60 -14 -25 -158 -91 hhcurveto
          -35 -3 5 14 32 38 20 93 37 vvcurveto
          0 4 32 -14 -1 vhcurveto
          -3 -14 -6 -3 -1 hvcurveto
          -36 -175 15 -88 47 1 rrcurveto
          49 39 43 34 26 hvcurveto
          -3 -36 5 -34 -12 -25 rrcurveto
          -83 -87 -98 -165 -115 vvcurveto
          30 22 rmoveto
          68 106 222 41 vhcurveto
          2 hlineto
          1 -1 1 0 0 vvcurveto
          -12 -110 1 -225 -107 4 rrcurveto
          -27 -6 21 21 hvcurveto
          endchar
        </CharString>
        <CharString name="yacute">
          -89 -20 -390 rmoveto
          -27 14 -21 29 vhcurveto
          203 -20 -85 257 77 166 9 9 77 65 10 10 46 79 -28 -34 -10 -8 -21 -18 -79 -44 -23 -18 rrcurveto
          91 29 60 72 vvcurveto
          4 vlineto
          -3 4 -13 12 -13 -7 rrcurveto
          -60 -14 -25 -158 -91 hhcurveto
          -35 -3 5 14 32 38 20 93 37 vvcurveto
          0 4 32 -14 -1 vhcurveto
          -3 -14 -6 -3 -1 hvcurveto
          -36 -175 15 -88 47 1 rrcurveto
          49 39 43 34 26 hvcurveto
          -3 -36 5 -34 -12 -25 rrcurveto
          -83 -87 -98 -165 -115 vvcurveto
          30 22 rmoveto
          68 106 222 41 vhcurveto
          2 hlineto
          1 -1 1 0 0 vvcurveto
          -12 -110 1 -225 -107 4 rrcurveto
          -27 -6 21 21 hvcurveto
          90 706 rmoveto
          -3 -4 3 -10 4 -1 43 11 20 28 20 32 48 75 -55 11 -38 -77 -13 -31 -16 -8 -13 -26 rrcurveto
          endchar
        </CharString>
        <CharString name="ydieresis">
          -89 -20 -390 rmoveto
          -27 14 -21 29 vhcurveto
          203 -20 -85 257 77 166 9 9 77 65 10 10 46 79 -28 -34 -10 -8 -21 -18 -79 -44 -23 -18 rrcurveto
          91 29 60 72 vvcurveto
          4 vlineto
          -3 4 -13 12 -13 -7 rrcurveto
          -60 -14 -25 -158 -91 hhcurveto
          -35 -3 5 14 32 38 20 93 37 vvcurveto
          0 4 32 -14 -1 vhcurveto
          -3 -14 -6 -3 -1 hvcurveto
          -36 -175 15 -88 47 1 rrcurveto
          49 39 43 34 26 hvcurveto
          -3 -36 5 -34 -12 -25 rrcurveto
          -83 -87 -98 -165 -115 vvcurveto
          30 22 rmoveto
          68 106 222 41 vhcurveto
          2 hlineto
          1 -1 1 0 0 vvcurveto
          -12 -110 1 -225 -107 4 rrcurveto
          -27 -6 21 21 hvcurveto
          63 761 rmoveto
          -56 -21 69 -66 16 57 rrcurveto
          12 -20 18 -9 vhcurveto
          124 hmoveto
          -56 -21 68 -66 16 57 rrcurveto
          12 -19 18 -9 vhcurveto
          endchar
        </CharString>
        <CharString name="yen">
          109 187 292 rmoveto
          -12 21 -12 8 vhcurveto
          71 hlineto
          -1 -5 0 -6 -6 vvcurveto
          -17 vlineto
          -40 -39 -1 -3 hhcurveto
          -9 -3 -1 -7 -8 vvcurveto
          -14 6 -7 13 vhcurveto
          26 hlineto
          15 16 1 1 17 hvcurveto
          5 -135 15 -154 22 86 10 207 rcurveline
          44 4 35 7 7 12 rrcurveto
          13 -21 -26 -2 -24 hhcurveto
          -14 hlineto
          2 34 rlineto
          85 hlineto
          9 8 -8 13 -40 10 -44 3 rlinecurve
          2 35 10 28 37 90 99 270 3 29 rlinecurve
          6 vlineto
          9 -5 4 -9 vhcurveto
          0 -2 -1 -1 vhcurveto
          -2 hlineto
          -22 -11 10 -36 -3 -16 -110 -250 -18 -46 -7 -11 -2 -2 rcurveline
          -182 290 rlineto
          13 -3 0 6 -11 hhcurveto
          -5 hlineto
          -14 -8 -77 -21 -12 -10 rrcurveto
          -9 -4 -4 -7 -9 vvcurveto
          36 25 12 35 hhcurveto
          0 3 -1 3 vhcurveto
          4 hlineto
          179 -319 -3 -37 rlineto
          1 -19 -16 0 -15 hhcurveto
          -29 hlineto
          -11 -12 -2 -12 hvcurveto
          endchar
        </CharString>
        <CharString name="z">
          90 130 -293 rmoveto
          102 -102 115 275 81 vvcurveto
          51 59 70 29 69 27 9 9 rcurveline
          1 -6 8 -3 -58 -87 -62 -32 -45 vhcurveto
          -22 35 1 30 -34 29 rrcurveto
          35 16 89 -64 vhcurveto
          -135 5 -40 -133 -63 -74 20 -9 rcurveline
          64 56 66 128 83 hhcurveto
          27 6 -18 -24 hvcurveto
          -111 -116 41 -48 vvcurveto
          -23 14 1 20 vhcurveto
          38 21 40 32 hhcurveto
          35 2 -52 -26 -11 0 -4 -9 -11 hvcurveto
          -21 -23 -83 -106 -19 -23 rrcurveto
          -19 -25 -29 -33 -36 vvcurveto
          171 207 rmoveto
          0 0 -11 -3 vvcurveto
          -55 -59 -145 -74 -3 vhcurveto
          -1 1 -1 10 3 vvcurveto
          60 94 115 41 28 vhcurveto
          -85 133 rmoveto
          -7 -11 -4 -3 -8 -3 -2 1 -1 hhcurveto
          5 9 4 4 11 hhcurveto
          endchar
        </CharString>
        <CharString name="zacute">
          90 130 -293 rmoveto
          102 -102 115 275 81 vvcurveto
          51 59 70 29 69 27 9 9 rcurveline
          1 -6 8 -3 -58 -87 -62 -32 -45 vhcurveto
          -22 35 1 30 -34 29 rrcurveto
          35 16 89 -64 vhcurveto
          -135 5 -40 -133 -63 -74 20 -9 rcurveline
          64 56 66 128 83 hhcurveto
          27 6 -18 -24 hvcurveto
          -111 -116 41 -48 vvcurveto
          -23 14 1 20 vhcurveto
          38 21 40 32 hhcurveto
          35 2 -52 -26 -11 0 -4 -9 -11 hvcurveto
          -21 -23 -83 -106 -19 -23 rrcurveto
          -19 -25 -29 -33 -36 vvcurveto
          171 207 rmoveto
          0 0 -11 -3 vvcurveto
          -55 -59 -145 -74 -3 vhcurveto
          -1 1 -1 10 3 vvcurveto
          60 94 115 41 28 vhcurveto
          -85 133 rmoveto
          -7 -11 -4 -3 -8 -3 -2 1 -1 hhcurveto
          5 9 4 4 11 hhcurveto
          -33 270 rmoveto
          -3 -4 3 -10 4 -1 43 11 20 28 20 32 48 75 -55 11 -38 -77 -13 -31 -16 -8 -13 -26 rrcurveto
          endchar
        </CharString>
        <CharString name="zcaron">
          90 130 -293 rmoveto
          102 -102 115 275 81 vvcurveto
          51 59 70 29 69 27 9 9 rcurveline
          1 -6 8 -3 -58 -87 -62 -32 -45 vhcurveto
          -22 35 1 30 -34 29 rrcurveto
          35 16 89 -64 vhcurveto
          -135 5 -40 -133 -63 -74 20 -9 rcurveline
          64 56 66 128 83 hhcurveto
          27 6 -18 -24 hvcurveto
          -111 -116 41 -48 vvcurveto
          -23 14 1 20 vhcurveto
          38 21 40 32 hhcurveto
          35 2 -52 -26 -11 0 -4 -9 -11 hvcurveto
          -21 -23 -83 -106 -19 -23 rrcurveto
          -19 -25 -29 -33 -36 vvcurveto
          171 207 rmoveto
          0 0 -11 -3 vvcurveto
          -55 -59 -145 -74 -3 vhcurveto
          -1 1 -1 10 3 vvcurveto
          60 94 115 41 28 vhcurveto
          -85 133 rmoveto
          -7 -11 -4 -3 -8 -3 -2 1 -1 hhcurveto
          5 9 4 4 11 hhcurveto
          73 363 rmoveto
          -68 -164 -77 116 -54 50 rrcurveto
          -5 -27 -8 -3 -3 hvcurveto
          82 -114 111 -68 79 182 rrcurveto
          1 vlineto
          1 1 rlineto
          7 -11 4 -13 -7 -5 -1 -3 -3 vhcurveto
          endchar
        </CharString>
        <CharString name="zdotaccent">
          90 130 -293 rmoveto
          102 -102 115 275 81 vvcurveto
          51 59 70 29 69 27 9 9 rcurveline
          1 -6 8 -3 -58 -87 -62 -32 -45 vhcurveto
          -22 35 1 30 -34 29 rrcurveto
          35 16 89 -64 vhcurveto
          -135 5 -40 -133 -63 -74 20 -9 rcurveline
          64 56 66 128 83 hhcurveto
          27 6 -18 -24 hvcurveto
          -111 -116 41 -48 vvcurveto
          -23 14 1 20 vhcurveto
          38 21 40 32 hhcurveto
          35 2 -52 -26 -11 0 -4 -9 -11 hvcurveto
          -21 -23 -83 -106 -19 -23 rrcurveto
          -19 -25 -29 -33 -36 vvcurveto
          171 207 rmoveto
          0 0 -11 -3 vvcurveto
          -55 -59 -145 -74 -3 vhcurveto
          -1 1 -1 10 3 vvcurveto
          60 94 115 41 28 vhcurveto
          -85 133 rmoveto
          -7 -11 -4 -3 -8 -3 -2 1 -1 hhcurveto
          5 9 4 4 11 hhcurveto
          2 336 rmoveto
          -9 -15 -15 -5 -3 hvcurveto
          -58 -87 132 -12 4 78 rrcurveto
          25 -7 16 -44 vhcurveto
          endchar
        </CharString>
        <CharString name="zero">
          57 121 -51 rmoveto
          111 -28 125 121 54 196 52 184 -67 76 -90 28 -105 24 -110 -91 -49 -191 -52 -152 50 -141 81 -26 rrcurveto
          -51 307 rmoveto
          21 84 37 55 35 36 36 37 49 25 57 -19 7 -3 12 -8 18 -14 18 -13 11 -18 5 -23 5 -23 4 -21 1 -21 4 -41 -10 -56 -29 -75 -16 -55 -29 -33 -67 -47 -33 -23 -31 -11 -28 1 rrcurveto
          -35 8 -23 38 -19 44 -17 45 -2 60 19 71 rrcurveto
          endchar
        </CharString>
</ttFont>
